<?xml version="1.0" encoding="UTF-8" standalone="no"?>
<!DOCTYPE svg PUBLIC "-//W3C//DTD SVG 1.1//EN"
 "http://www.w3.org/Graphics/SVG/1.1/DTD/svg11.dtd">
<!-- Generated by graphviz version 10.0.1 (20240210.2158)
 -->
<!-- Title: Example Pipeline_preview Pages: 1 -->
<svg width="516pt" height="1152pt"
 viewBox="0.00 0.00 516.00 1152.12" xmlns="http://www.w3.org/2000/svg" xmlns:xlink="http://www.w3.org/1999/xlink">
<g id="graph0" class="graph" transform="scale(1 1) rotate(0) translate(4 1148.12)">
<title>Example Pipeline_preview</title>
<polygon fill="white" stroke="none" points="-4,4 -4,-1148.12 512,-1148.12 512,4 -4,4"/>
<g id="clust1" class="cluster">
<title>cluster_1588564354416</title>
<polygon fill="none" stroke="grey" points="12,-915.12 12,-1136.12 392,-1136.12 392,-915.12 12,-915.12"/>
<text text-anchor="middle" x="202" y="-1118.83" font-family="Times New Roman,serif" font-size="14.00">Example Pipeline</text>
</g>
<g id="clust2" class="cluster">
<title>cluster_1588564073488</title>
<polygon fill="none" stroke="grey" points="8,-575.25 8,-907.12 168,-907.12 168,-575.25 8,-575.25"/>
<text text-anchor="middle" x="88" y="-889.83" font-family="Times New Roman,serif" font-size="14.00">Process node 1</text>
</g>
<g id="clust3" class="cluster">
<title>cluster_1588564353792</title>
<polygon fill="none" stroke="grey" points="78,-237 78,-567.25 312,-567.25 312,-237 78,-237"/>
<text text-anchor="middle" x="195" y="-549.95" font-family="Times New Roman,serif" font-size="14.00">Process node 6</text>
</g>
<g id="clust4" class="cluster">
<title>cluster_1588564355088</title>
<polygon fill="none" stroke="grey" points="16,-8 16,-229 374,-229 374,-8 16,-8"/>
<text text-anchor="middle" x="195" y="-211.7" font-family="Times New Roman,serif" font-size="14.00">FINAL NODE</text>
</g>
<g id="clust5" class="cluster">
<title>cluster_1588564217728</title>
<polygon fill="none" stroke="grey" points="180,-829.62 180,-905.38 332,-905.38 332,-829.62 180,-829.62"/>
<text text-anchor="middle" x="256" y="-888.08" font-family="Times New Roman,serif" font-size="14.00">Process node 2</text>
</g>
<g id="clust6" class="cluster">
<title>cluster_1588564348512</title>
<polygon fill="none" stroke="grey" points="176,-742.38 176,-821.62 336,-821.62 336,-742.38 176,-742.38"/>
<text text-anchor="middle" x="256" y="-804.33" font-family="Times New Roman,serif" font-size="14.00">Process node 3</text>
</g>
<g id="clust7" class="cluster">
<title>cluster_1588564353312</title>
<polygon fill="none" stroke="grey" points="176,-575.25 176,-734.38 336,-734.38 336,-575.25 176,-575.25"/>
<text text-anchor="middle" x="256" y="-717.08" font-family="Times New Roman,serif" font-size="14.00">Process node 5</text>
</g>
<g id="clust8" class="cluster">
<title>cluster_1588564352832</title>
<polygon fill="none" stroke="grey" points="344,-742.38 344,-821.62 500,-821.62 500,-742.38 344,-742.38"/>
<text text-anchor="middle" x="422" y="-804.33" font-family="Times New Roman,serif" font-size="14.00">Process node 4</text>
</g>
<!-- 1588564354608 -->
<g id="node1" class="node">
<title>1588564354608</title>
<text text-anchor="middle" x="202" y="-1087.08" font-family="Times New Roman,serif" font-size="14.00">ExampleContext</text>
<text text-anchor="middle" x="202" y="-1071.33" font-family="Times New Roman,serif" font-size="14.00">thread_count=4,</text>
<text text-anchor="middle" x="202" y="-1055.58" font-family="Times New Roman,serif" font-size="14.00"> &#160;&#160;&#160;&#160;&#160;&#160;&#160;&#160;&#160;&#160;&#160;&#160;&#160;&#160;input_x=0.0,</text>
<text text-anchor="middle" x="202" y="-1039.83" font-family="Times New Roman,serif" font-size="14.00"> &#160;&#160;&#160;&#160;&#160;&#160;&#160;&#160;&#160;&#160;&#160;&#160;&#160;&#160;input_y=0.0,</text>
<text text-anchor="middle" x="202" y="-1024.08" font-family="Times New Roman,serif" font-size="14.00"> &#160;&#160;&#160;&#160;&#160;&#160;&#160;&#160;&#160;&#160;&#160;&#160;&#160;&#160;result_step1=&lt;class &#39;tuyau.context.NoDefault&#39;&gt;,</text>
<text text-anchor="middle" x="202" y="-1008.33" font-family="Times New Roman,serif" font-size="14.00"> &#160;&#160;&#160;&#160;&#160;&#160;&#160;&#160;&#160;&#160;&#160;&#160;&#160;&#160;result_step3=&lt;class &#39;tuyau.context.NoDefault&#39;&gt;,</text>
<text text-anchor="middle" x="202" y="-992.58" font-family="Times New Roman,serif" font-size="14.00"> &#160;&#160;&#160;&#160;&#160;&#160;&#160;&#160;&#160;&#160;&#160;&#160;&#160;&#160;result_step4=&lt;class &#39;tuyau.context.NoDefault&#39;&gt;,</text>
<text text-anchor="middle" x="202" y="-976.83" font-family="Times New Roman,serif" font-size="14.00"> &#160;&#160;&#160;&#160;&#160;&#160;&#160;&#160;&#160;&#160;&#160;&#160;&#160;&#160;result_step5=&lt;class &#39;tuyau.context.NoDefault&#39;&gt;,</text>
<text text-anchor="middle" x="202" y="-961.08" font-family="Times New Roman,serif" font-size="14.00"> &#160;&#160;&#160;&#160;&#160;&#160;&#160;&#160;&#160;&#160;&#160;&#160;&#160;&#160;result_step6=&lt;class &#39;tuyau.context.NoDefault&#39;&gt;,</text>
<text text-anchor="middle" x="202" y="-945.33" font-family="Times New Roman,serif" font-size="14.00"> &#160;&#160;&#160;&#160;&#160;&#160;&#160;&#160;&#160;&#160;&#160;&#160;&#160;&#160;result_step7=&lt;class &#39;tuyau.context.NoDefault&#39;&gt;,</text>
<text text-anchor="middle" x="202" y="-929.58" font-family="Times New Roman,serif" font-size="14.00"> &#160;&#160;&#160;&#160;&#160;&#160;&#160;&#160;&#160;&#160;&#160;&#160;&#160;&#160;result_func_step=&lt;class &#39;tuyau.context.NoDefault&#39;&gt;</text>
</g>
<!-- 1588564079392 -->
<g id="node2" class="node">
<title>1588564079392</title>
<path fill="none" stroke="darkgreen" d="M147.75,-875.38C147.75,-875.38 28.25,-875.38 28.25,-875.38 22.25,-875.38 16.25,-869.38 16.25,-863.38 16.25,-863.38 16.25,-847.88 16.25,-847.88 16.25,-841.88 22.25,-835.88 28.25,-835.88 28.25,-835.88 147.75,-835.88 147.75,-835.88 153.75,-835.88 159.75,-841.88 159.75,-847.88 159.75,-847.88 159.75,-863.38 159.75,-863.38 159.75,-869.38 153.75,-875.38 147.75,-875.38"/>
<text text-anchor="middle" x="88" y="-858.08" font-family="Times New Roman,serif" font-size="14.00">AdditionStep: Step 1.1</text>
<text text-anchor="middle" x="88" y="-842.33" font-family="Times New Roman,serif" font-size="14.00">result: 9.5</text>
</g>
<!-- 1588564354608&#45;&gt;1588564079392 -->
<g id="edge4" class="edge">
<title>1588564354608&#45;&gt;1588564079392</title>
<path fill="none" stroke="black" d="M112.88,-915.12C111.79,-913.12 110.71,-911.12 109.62,-909.12"/>
<polygon fill="black" stroke="black" points="117.1,-915.57 109.26,-908.45 110.95,-918.91 117.1,-915.57"/>
</g>
<!-- 1588564348464 -->
<g id="node12" class="node">
<title>1588564348464</title>
<path fill="none" stroke="grey" d="M312.38,-873.62C312.38,-873.62 199.62,-873.62 199.62,-873.62 193.62,-873.62 187.62,-867.62 187.62,-861.62 187.62,-861.62 187.62,-849.62 187.62,-849.62 187.62,-843.62 193.62,-837.62 199.62,-837.62 199.62,-837.62 312.38,-837.62 312.38,-837.62 318.38,-837.62 324.38,-843.62 324.38,-849.62 324.38,-849.62 324.38,-861.62 324.38,-861.62 324.38,-867.62 318.38,-873.62 312.38,-873.62"/>
<text text-anchor="middle" x="256" y="-850.2" font-family="Times New Roman,serif" font-size="14.00">SkipStep: Skip step 2</text>
</g>
<!-- 1588564354608&#45;&gt;1588564348464 -->
<g id="edge11" class="edge">
<title>1588564354608&#45;&gt;1588564348464</title>
<path fill="none" stroke="black" d="M240.02,-915.12C240.75,-912.69 241.49,-910.25 242.23,-907.81"/>
<polygon fill="black" stroke="black" points="242.98,-917.41 242.53,-906.82 236.28,-915.38 242.98,-917.41"/>
</g>
<!-- 1588564074352 -->
<g id="node3" class="node">
<title>1588564074352</title>
<path fill="none" stroke="darkgreen" d="M134.62,-788.12C134.62,-788.12 41.38,-788.12 41.38,-788.12 35.38,-788.12 29.38,-782.12 29.38,-776.12 29.38,-776.12 29.38,-764.12 29.38,-764.12 29.38,-758.12 35.38,-752.12 41.38,-752.12 41.38,-752.12 134.62,-752.12 134.62,-752.12 140.62,-752.12 146.62,-758.12 146.62,-764.12 146.62,-764.12 146.62,-776.12 146.62,-776.12 146.62,-782.12 140.62,-788.12 134.62,-788.12"/>
<text text-anchor="middle" x="88" y="-764.7" font-family="Times New Roman,serif" font-size="14.00">LogStep: Step 1.2</text>
</g>
<!-- 1588564079392&#45;&gt;1588564074352 -->
<g id="edge1" class="edge">
<title>1588564079392&#45;&gt;1588564074352</title>
<path fill="none" stroke="black" d="M81.92,-835.43C79.99,-826.01 80.39,-817.38 83.14,-799.4"/>
<polygon fill="black" stroke="black" points="86.54,-800.31 84.67,-789.88 79.63,-799.2 86.54,-800.31"/>
</g>
<!-- 1588564217008 -->
<!-- Square previous result -->
<g id="node4" class="node">
<title>1588564217008</title>
<path fill="none" stroke="darkgreen" d="M147.25,-710.5C147.25,-710.5 30.75,-710.5 30.75,-710.5 24.75,-710.5 18.75,-704.5 18.75,-698.5 18.75,-698.5 18.75,-667.25 18.75,-667.25 18.75,-661.25 24.75,-655.25 30.75,-655.25 30.75,-655.25 147.25,-655.25 147.25,-655.25 153.25,-655.25 159.25,-661.25 159.25,-667.25 159.25,-667.25 159.25,-698.5 159.25,-698.5 159.25,-704.5 153.25,-710.5 147.25,-710.5"/>
<text text-anchor="middle" x="89" y="-693.2" font-family="Times New Roman,serif" font-size="14.00">MutliplyStep: Step 1.3</text>
<text text-anchor="middle" x="89" y="-677.45" font-family="Times New Roman,serif" font-size="14.00">Square previous result</text>
<text text-anchor="middle" x="89" y="-661.7" font-family="Times New Roman,serif" font-size="14.00">result: 90.25</text>
</g>
<!-- 1588564074352&#45;&gt;1588564217008 -->
<g id="edge2" class="edge">
<title>1588564074352&#45;&gt;1588564217008</title>
<path fill="none" stroke="black" d="M81.34,-751.67C78.52,-742.12 78.16,-734.71 80.34,-721.84"/>
<polygon fill="black" stroke="black" points="83.72,-722.78 82.21,-712.3 76.85,-721.43 83.72,-722.78"/>
</g>
<!-- 1588564217632 -->
<g id="node5" class="node">
<title>1588564217632</title>
<path fill="none" stroke="darkgreen" d="M141.62,-619.25C141.62,-619.25 48.38,-619.25 48.38,-619.25 42.38,-619.25 36.38,-613.25 36.38,-607.25 36.38,-607.25 36.38,-595.25 36.38,-595.25 36.38,-589.25 42.38,-583.25 48.38,-583.25 48.38,-583.25 141.62,-583.25 141.62,-583.25 147.62,-583.25 153.62,-589.25 153.62,-595.25 153.62,-595.25 153.62,-607.25 153.62,-607.25 153.62,-613.25 147.62,-619.25 141.62,-619.25"/>
<text text-anchor="middle" x="95" y="-595.83" font-family="Times New Roman,serif" font-size="14.00">LogStep: Step 1.2</text>
</g>
<!-- 1588564217008&#45;&gt;1588564217632 -->
<g id="edge3" class="edge">
<title>1588564217008&#45;&gt;1588564217632</title>
<path fill="none" stroke="black" d="M80.91,-654.91C80.03,-647.48 81.09,-640.65 84.39,-630.31"/>
<polygon fill="black" stroke="black" points="87.6,-631.73 87.56,-621.13 80.98,-629.44 87.6,-631.73"/>
</g>
<!-- 1588564354176 -->
<g id="node6" class="node">
<title>1588564354176</title>
<path fill="none" stroke="darkgreen" d="M254.75,-535.5C254.75,-535.5 135.25,-535.5 135.25,-535.5 129.25,-535.5 123.25,-529.5 123.25,-523.5 123.25,-523.5 123.25,-508 123.25,-508 123.25,-502 129.25,-496 135.25,-496 135.25,-496 254.75,-496 254.75,-496 260.75,-496 266.75,-502 266.75,-508 266.75,-508 266.75,-523.5 266.75,-523.5 266.75,-529.5 260.75,-535.5 254.75,-535.5"/>
<text text-anchor="middle" x="195" y="-518.2" font-family="Times New Roman,serif" font-size="14.00">AdditionStep: Step 6.1</text>
<text text-anchor="middle" x="195" y="-502.45" font-family="Times New Roman,serif" font-size="14.00">result: 102.0</text>
</g>
<!-- 1588564217632&#45;&gt;1588564354176 -->
<g id="edge8" class="edge">
<title>1588564217632&#45;&gt;1588564354176</title>
<path fill="none" stroke="black" d="M108.42,-575.25C110.01,-573.25 111.59,-571.25 113.18,-569.25"/>
<polygon fill="black" stroke="black" points="110.35,-578.45 113.82,-568.43 104.87,-574.1 110.35,-578.45"/>
</g>
<!-- 1588564354224 -->
<g id="node7" class="node">
<title>1588564354224</title>
<path fill="none" stroke="darkgreen" d="M252.12,-460C252.12,-460 137.88,-460 137.88,-460 131.88,-460 125.88,-454 125.88,-448 125.88,-448 125.88,-436 125.88,-436 125.88,-430 131.88,-424 137.88,-424 137.88,-424 252.12,-424 252.12,-424 258.12,-424 264.12,-430 264.12,-436 264.12,-436 264.12,-448 264.12,-448 264.12,-454 258.12,-460 252.12,-460"/>
<text text-anchor="middle" x="195" y="-436.57" font-family="Times New Roman,serif" font-size="14.00">LogStep: result_step6</text>
</g>
<!-- 1588564354176&#45;&gt;1588564354224 -->
<g id="edge5" class="edge">
<title>1588564354176&#45;&gt;1588564354224</title>
<path fill="none" stroke="black" d="M191.82,-495.54C190.21,-484.92 189.31,-477.68 189.12,-471.82"/>
<polygon fill="black" stroke="black" points="192.61,-472.14 189.74,-461.94 185.62,-471.7 192.61,-472.14"/>
</g>
<!-- 1588564073248 -->
<g id="node8" class="node">
<title>1588564073248</title>
<path fill="none" stroke="darkgreen" d="M291.5,-388C291.5,-388 98.5,-388 98.5,-388 92.5,-388 86.5,-382 86.5,-376 86.5,-376 86.5,-329 86.5,-329 86.5,-323 92.5,-317 98.5,-317 98.5,-317 291.5,-317 291.5,-317 297.5,-317 303.5,-323 303.5,-329 303.5,-329 303.5,-376 303.5,-376 303.5,-382 297.5,-388 291.5,-388"/>
<text text-anchor="middle" x="195" y="-370.7" font-family="Times New Roman,serif" font-size="14.00">Function Step: Function step</text>
<text text-anchor="middle" x="195" y="-354.95" font-family="Times New Roman,serif" font-size="14.00">function: do_something_in_process</text>
<text text-anchor="middle" x="195" y="-339.2" font-family="Times New Roman,serif" font-size="14.00">args: </text>
<text text-anchor="middle" x="195" y="-323.45" font-family="Times New Roman,serif" font-size="14.00">kwargs: a=11.75, b=102.0</text>
</g>
<!-- 1588564354224&#45;&gt;1588564073248 -->
<g id="edge6" class="edge">
<title>1588564354224&#45;&gt;1588564073248</title>
<path fill="none" stroke="black" d="M193.3,-423.56C192.42,-413.85 191.76,-406.16 191.33,-399.81"/>
<polygon fill="black" stroke="black" points="194.83,-399.74 190.84,-389.93 187.84,-400.1 194.83,-399.74"/>
</g>
<!-- 1588564354272 -->
<g id="node9" class="node">
<title>1588564354272</title>
<path fill="none" stroke="darkgreen" d="M264.88,-281C264.88,-281 125.12,-281 125.12,-281 119.12,-281 113.12,-275 113.12,-269 113.12,-269 113.12,-257 113.12,-257 113.12,-251 119.12,-245 125.12,-245 125.12,-245 264.88,-245 264.88,-245 270.88,-245 276.88,-251 276.88,-257 276.88,-257 276.88,-269 276.88,-269 276.88,-275 270.88,-281 264.88,-281"/>
<text text-anchor="middle" x="195" y="-257.57" font-family="Times New Roman,serif" font-size="14.00">LogStep: result_func_step</text>
</g>
<!-- 1588564073248&#45;&gt;1588564354272 -->
<g id="edge7" class="edge">
<title>1588564073248&#45;&gt;1588564354272</title>
<path fill="none" stroke="black" d="M192.83,-316.53C192.27,-306.05 192.02,-298.79 192.09,-292.72"/>
<polygon fill="black" stroke="black" points="195.58,-292.96 192.58,-282.79 188.59,-292.61 195.58,-292.96"/>
</g>
<!-- 1588564355328 -->
<g id="node11" class="node">
<title>1588564355328</title>
<text text-anchor="middle" x="195" y="-179.95" font-family="Times New Roman,serif" font-size="14.00">ExampleContext</text>
<text text-anchor="middle" x="195" y="-164.2" font-family="Times New Roman,serif" font-size="14.00">thread_count=2,</text>
<text text-anchor="middle" x="195" y="-148.45" font-family="Times New Roman,serif" font-size="14.00"> &#160;&#160;&#160;&#160;&#160;&#160;&#160;&#160;&#160;&#160;&#160;&#160;&#160;&#160;input_x=1.5,</text>
<text text-anchor="middle" x="195" y="-132.7" font-family="Times New Roman,serif" font-size="14.00"> &#160;&#160;&#160;&#160;&#160;&#160;&#160;&#160;&#160;&#160;&#160;&#160;&#160;&#160;input_y=8,</text>
<text text-anchor="middle" x="195" y="-116.95" font-family="Times New Roman,serif" font-size="14.00"> &#160;&#160;&#160;&#160;&#160;&#160;&#160;&#160;&#160;&#160;&#160;&#160;&#160;&#160;result_step1=90.25,</text>
<text text-anchor="middle" x="195" y="-101.2" font-family="Times New Roman,serif" font-size="14.00"> &#160;&#160;&#160;&#160;&#160;&#160;&#160;&#160;&#160;&#160;&#160;&#160;&#160;&#160;result_step3=9.5,</text>
<text text-anchor="middle" x="195" y="-85.45" font-family="Times New Roman,serif" font-size="14.00"> &#160;&#160;&#160;&#160;&#160;&#160;&#160;&#160;&#160;&#160;&#160;&#160;&#160;&#160;result_step4=2.25,</text>
<text text-anchor="middle" x="195" y="-69.7" font-family="Times New Roman,serif" font-size="14.00"> &#160;&#160;&#160;&#160;&#160;&#160;&#160;&#160;&#160;&#160;&#160;&#160;&#160;&#160;result_step5=11.75,</text>
<text text-anchor="middle" x="195" y="-53.95" font-family="Times New Roman,serif" font-size="14.00"> &#160;&#160;&#160;&#160;&#160;&#160;&#160;&#160;&#160;&#160;&#160;&#160;&#160;&#160;result_step6=102.0,</text>
<text text-anchor="middle" x="195" y="-38.2" font-family="Times New Roman,serif" font-size="14.00"> &#160;&#160;&#160;&#160;&#160;&#160;&#160;&#160;&#160;&#160;&#160;&#160;&#160;&#160;result_step7=&lt;class &#39;tuyau.context.NoDefault&#39;&gt;,</text>
<text text-anchor="middle" x="195" y="-22.45" font-family="Times New Roman,serif" font-size="14.00"> &#160;&#160;&#160;&#160;&#160;&#160;&#160;&#160;&#160;&#160;&#160;&#160;&#160;&#160;result_func_step=10542.0625</text>
</g>
<!-- 1588564354272&#45;&gt;1588564355328 -->
<g id="edge10" class="edge">
<title>1588564354272&#45;&gt;1588564355328</title>
<path fill="none" stroke="black" d="M194.02,-237C193.9,-235 193.78,-233 193.66,-231"/>
<polygon fill="black" stroke="black" points="197.73,-240.28 193.63,-230.51 190.74,-240.7 197.73,-240.28"/>
</g>
<!-- 1588564353744 -->
<g id="node10" class="node">
<title>1588564353744</title>
<path fill="none" stroke="darkgreen" d="M311.12,-619.25C311.12,-619.25 196.88,-619.25 196.88,-619.25 190.88,-619.25 184.88,-613.25 184.88,-607.25 184.88,-607.25 184.88,-595.25 184.88,-595.25 184.88,-589.25 190.88,-583.25 196.88,-583.25 196.88,-583.25 311.12,-583.25 311.12,-583.25 317.12,-583.25 323.12,-589.25 323.12,-595.25 323.12,-595.25 323.12,-607.25 323.12,-607.25 323.12,-613.25 317.12,-619.25 311.12,-619.25"/>
<text text-anchor="middle" x="254" y="-595.83" font-family="Times New Roman,serif" font-size="14.00">LogStep: result_step5</text>
</g>
<!-- 1588564353744&#45;&gt;1588564354176 -->
<g id="edge9" class="edge">
<title>1588564353744&#45;&gt;1588564354176</title>
<path fill="none" stroke="black" d="M229.88,-575.25C228.05,-573.25 226.21,-571.25 224.38,-569.25"/>
<polygon fill="black" stroke="black" points="232.9,-573.37 223.57,-568.36 227.74,-578.1 232.9,-573.37"/>
</g>
<!-- 1588564352736 -->
<g id="node13" class="node">
<title>1588564352736</title>
<path fill="none" stroke="darkgreen" d="M315.75,-789.88C315.75,-789.88 196.25,-789.88 196.25,-789.88 190.25,-789.88 184.25,-783.88 184.25,-777.88 184.25,-777.88 184.25,-762.38 184.25,-762.38 184.25,-756.38 190.25,-750.38 196.25,-750.38 196.25,-750.38 315.75,-750.38 315.75,-750.38 321.75,-750.38 327.75,-756.38 327.75,-762.38 327.75,-762.38 327.75,-777.88 327.75,-777.88 327.75,-783.88 321.75,-789.88 315.75,-789.88"/>
<text text-anchor="middle" x="256" y="-772.58" font-family="Times New Roman,serif" font-size="14.00">AdditionStep: Step 3.1</text>
<text text-anchor="middle" x="256" y="-756.83" font-family="Times New Roman,serif" font-size="14.00">result: 9.5</text>
</g>
<!-- 1588564348464&#45;&gt;1588564352736 -->
<g id="edge12" class="edge">
<title>1588564348464&#45;&gt;1588564352736</title>
<path fill="none" stroke="black" d="M256.1,-829.62C256.1,-827.62 256.1,-825.62 256.1,-823.62"/>
<polygon fill="black" stroke="black" points="259.6,-833.14 256.1,-823.13 252.6,-833.13 259.6,-833.14"/>
</g>
<!-- 1588564353264 -->
<g id="node15" class="node">
<title>1588564353264</title>
<path fill="none" stroke="darkgreen" d="M480.25,-789.88C480.25,-789.88 363.75,-789.88 363.75,-789.88 357.75,-789.88 351.75,-783.88 351.75,-777.88 351.75,-777.88 351.75,-762.38 351.75,-762.38 351.75,-756.38 357.75,-750.38 363.75,-750.38 363.75,-750.38 480.25,-750.38 480.25,-750.38 486.25,-750.38 492.25,-756.38 492.25,-762.38 492.25,-762.38 492.25,-777.88 492.25,-777.88 492.25,-783.88 486.25,-789.88 480.25,-789.88"/>
<text text-anchor="middle" x="422" y="-772.58" font-family="Times New Roman,serif" font-size="14.00">MutliplyStep: Step 4.1</text>
<text text-anchor="middle" x="422" y="-756.83" font-family="Times New Roman,serif" font-size="14.00">result: 2.25</text>
</g>
<!-- 1588564348464&#45;&gt;1588564353264 -->
<g id="edge16" class="edge">
<title>1588564348464&#45;&gt;1588564353264</title>
<path fill="none" stroke="black" d="M332,-845.78C343.94,-842.24 353.77,-837.12 364.17,-829.03"/>
<polygon fill="black" stroke="black" points="366.42,-831.71 371.82,-822.6 361.92,-826.35 366.42,-831.71"/>
</g>
<!-- 1588564353696 -->
<g id="node14" class="node">
<title>1588564353696</title>
<path fill="none" stroke="darkgreen" d="M315.75,-702.62C315.75,-702.62 196.25,-702.62 196.25,-702.62 190.25,-702.62 184.25,-696.62 184.25,-690.62 184.25,-690.62 184.25,-675.12 184.25,-675.12 184.25,-669.12 190.25,-663.12 196.25,-663.12 196.25,-663.12 315.75,-663.12 315.75,-663.12 321.75,-663.12 327.75,-669.12 327.75,-675.12 327.75,-675.12 327.75,-690.62 327.75,-690.62 327.75,-696.62 321.75,-702.62 315.75,-702.62"/>
<text text-anchor="middle" x="256" y="-685.33" font-family="Times New Roman,serif" font-size="14.00">AdditionStep: Step 5.1</text>
<text text-anchor="middle" x="256" y="-669.58" font-family="Times New Roman,serif" font-size="14.00">result: 11.75</text>
</g>
<!-- 1588564352736&#45;&gt;1588564353696 -->
<g id="edge14" class="edge">
<title>1588564352736&#45;&gt;1588564353696</title>
<path fill="none" stroke="black" d="M256.16,-742.38C256.16,-740.37 256.16,-738.37 256.16,-736.37"/>
<polygon fill="black" stroke="black" points="259.66,-745.89 256.17,-735.89 252.66,-745.88 259.66,-745.89"/>
</g>
<!-- 1588564353696&#45;&gt;1588564353744 -->
<g id="edge13" class="edge">
<title>1588564353696&#45;&gt;1588564353744</title>
<path fill="none" stroke="black" d="M255.4,-662.99C255.19,-655.32 254.99,-646.94 254.64,-630.73"/>
<polygon fill="black" stroke="black" points="258.15,-630.99 254.43,-621.07 251.15,-631.14 258.15,-630.99"/>
</g>
<!-- 1588564353264&#45;&gt;1588564353696 -->
<g id="edge15" class="edge">
<title>1588564353264&#45;&gt;1588564353696</title>
<path fill="none" stroke="black" d="M344,-746.33C341.11,-744.61 338.09,-742.73 334.91,-740.65"/>
<polygon fill="black" stroke="black" points="337.06,-737.88 326.8,-735.22 333.16,-743.7 337.06,-737.88"/>
</g>
</g>
</svg>
