<?xml version="1.0" encoding="UTF-8" standalone="no"?>
<!DOCTYPE svg PUBLIC "-//W3C//DTD SVG 1.1//EN"
 "http://www.w3.org/Graphics/SVG/1.1/DTD/svg11.dtd">
<!-- Generated by graphviz version 10.0.1 (20240210.2158)
 -->
<!-- Title: Example Pipeline_preview Pages: 1 -->
<svg width="516pt" height="1121pt"
 viewBox="0.00 0.00 516.00 1120.62" xmlns="http://www.w3.org/2000/svg" xmlns:xlink="http://www.w3.org/1999/xlink">
<g id="graph0" class="graph" transform="scale(1 1) rotate(0) translate(4 1116.62)">
<title>Example Pipeline_preview</title>
<polygon fill="white" stroke="none" points="-4,4 -4,-1116.62 512,-1116.62 512,4 -4,4"/>
<g id="clust1" class="cluster">
<title>cluster_2371801224624</title>
<polygon fill="none" stroke="grey" points="11,-899.38 11,-1104.62 395,-1104.62 395,-899.38 11,-899.38"/>
<text text-anchor="middle" x="203" y="-1087.33" font-family="Times New Roman,serif" font-size="14.00">Example Pipeline</text>
</g>
<g id="clust2" class="cluster">
<title>cluster_2371801814976</title>
<polygon fill="none" stroke="grey" points="8,-559.5 8,-891.38 168,-891.38 168,-559.5 8,-559.5"/>
<text text-anchor="middle" x="88" y="-874.08" font-family="Times New Roman,serif" font-size="14.00">Process node 1</text>
</g>
<g id="clust3" class="cluster">
<title>cluster_2371838693008</title>
<polygon fill="none" stroke="grey" points="78,-221.25 78,-551.5 312,-551.5 312,-221.25 78,-221.25"/>
<text text-anchor="middle" x="195" y="-534.2" font-family="Times New Roman,serif" font-size="14.00">Process node 6</text>
</g>
<g id="clust4" class="cluster">
<title>cluster_2371838450224</title>
<polygon fill="none" stroke="grey" points="16,-8 16,-213.25 374,-213.25 374,-8 16,-8"/>
<text text-anchor="middle" x="195" y="-195.95" font-family="Times New Roman,serif" font-size="14.00">FINAL NODE</text>
</g>
<g id="clust5" class="cluster">
<title>cluster_2371838691856</title>
<polygon fill="none" stroke="grey" points="180,-813.88 180,-889.62 332,-889.62 332,-813.88 180,-813.88"/>
<text text-anchor="middle" x="256" y="-872.33" font-family="Times New Roman,serif" font-size="14.00">Process node 2</text>
</g>
<g id="clust6" class="cluster">
<title>cluster_2371838692144</title>
<polygon fill="none" stroke="grey" points="176,-726.62 176,-805.88 336,-805.88 336,-726.62 176,-726.62"/>
<text text-anchor="middle" x="256" y="-788.58" font-family="Times New Roman,serif" font-size="14.00">Process node 3</text>
</g>
<g id="clust7" class="cluster">
<title>cluster_2371801225632</title>
<polygon fill="none" stroke="grey" points="176,-559.5 176,-718.62 336,-718.62 336,-559.5 176,-559.5"/>
<text text-anchor="middle" x="256" y="-701.33" font-family="Times New Roman,serif" font-size="14.00">Process node 5</text>
</g>
<g id="clust8" class="cluster">
<title>cluster_2371838692432</title>
<polygon fill="none" stroke="grey" points="344,-726.62 344,-805.88 500,-805.88 500,-726.62 344,-726.62"/>
<text text-anchor="middle" x="422" y="-788.58" font-family="Times New Roman,serif" font-size="14.00">Process node 4</text>
</g>
<!-- 2371838444224 -->
<g id="node1" class="node">
<title>2371838444224</title>
<text text-anchor="middle" x="203" y="-1055.58" font-family="Times New Roman,serif" font-size="14.00">ExampleContext(thread_count=4,</text>
<text text-anchor="middle" x="203" y="-1039.83" font-family="Times New Roman,serif" font-size="14.00"> &#160;&#160;&#160;&#160;&#160;&#160;&#160;&#160;&#160;&#160;&#160;&#160;&#160;&#160;input_x=0.0,</text>
<text text-anchor="middle" x="203" y="-1024.08" font-family="Times New Roman,serif" font-size="14.00"> &#160;&#160;&#160;&#160;&#160;&#160;&#160;&#160;&#160;&#160;&#160;&#160;&#160;&#160;input_y=0.0,</text>
<text text-anchor="middle" x="203" y="-1008.33" font-family="Times New Roman,serif" font-size="14.00"> &#160;&#160;&#160;&#160;&#160;&#160;&#160;&#160;&#160;&#160;&#160;&#160;&#160;&#160;result_step1=&lt;class &#39;tuyau.context.NoDefault&#39;&gt;,</text>
<text text-anchor="middle" x="203" y="-992.58" font-family="Times New Roman,serif" font-size="14.00"> &#160;&#160;&#160;&#160;&#160;&#160;&#160;&#160;&#160;&#160;&#160;&#160;&#160;&#160;result_step3=&lt;class &#39;tuyau.context.NoDefault&#39;&gt;,</text>
<text text-anchor="middle" x="203" y="-976.83" font-family="Times New Roman,serif" font-size="14.00"> &#160;&#160;&#160;&#160;&#160;&#160;&#160;&#160;&#160;&#160;&#160;&#160;&#160;&#160;result_step4=&lt;class &#39;tuyau.context.NoDefault&#39;&gt;,</text>
<text text-anchor="middle" x="203" y="-961.08" font-family="Times New Roman,serif" font-size="14.00"> &#160;&#160;&#160;&#160;&#160;&#160;&#160;&#160;&#160;&#160;&#160;&#160;&#160;&#160;result_step5=&lt;class &#39;tuyau.context.NoDefault&#39;&gt;,</text>
<text text-anchor="middle" x="203" y="-945.33" font-family="Times New Roman,serif" font-size="14.00"> &#160;&#160;&#160;&#160;&#160;&#160;&#160;&#160;&#160;&#160;&#160;&#160;&#160;&#160;result_step6=&lt;class &#39;tuyau.context.NoDefault&#39;&gt;,</text>
<text text-anchor="middle" x="203" y="-929.58" font-family="Times New Roman,serif" font-size="14.00"> &#160;&#160;&#160;&#160;&#160;&#160;&#160;&#160;&#160;&#160;&#160;&#160;&#160;&#160;result_step7=&lt;class &#39;tuyau.context.NoDefault&#39;&gt;,</text>
<text text-anchor="middle" x="203" y="-913.83" font-family="Times New Roman,serif" font-size="14.00"> &#160;&#160;&#160;&#160;&#160;&#160;&#160;&#160;&#160;&#160;&#160;&#160;&#160;&#160;result_func_step=&lt;class &#39;tuyau.context.NoDefault&#39;&gt;)</text>
</g>
<!-- 2371838691664 -->
<g id="node2" class="node">
<title>2371838691664</title>
<path fill="none" stroke="darkgreen" d="M147.75,-859.62C147.75,-859.62 28.25,-859.62 28.25,-859.62 22.25,-859.62 16.25,-853.62 16.25,-847.62 16.25,-847.62 16.25,-832.12 16.25,-832.12 16.25,-826.12 22.25,-820.12 28.25,-820.12 28.25,-820.12 147.75,-820.12 147.75,-820.12 153.75,-820.12 159.75,-826.12 159.75,-832.12 159.75,-832.12 159.75,-847.62 159.75,-847.62 159.75,-853.62 153.75,-859.62 147.75,-859.62"/>
<text text-anchor="middle" x="88" y="-842.33" font-family="Times New Roman,serif" font-size="14.00">AdditionStep: Step 1.1</text>
<text text-anchor="middle" x="88" y="-826.58" font-family="Times New Roman,serif" font-size="14.00">result: 9.5</text>
</g>
<!-- 2371838444224&#45;&gt;2371838691664 -->
<g id="edge4" class="edge">
<title>2371838444224&#45;&gt;2371838691664</title>
<path fill="none" stroke="black" d="M139.78,-907.63C128.93,-893.65 118.36,-880.02 109.63,-868.76"/>
<polygon fill="black" stroke="black" points="112.58,-866.85 103.69,-861.1 107.05,-871.14 112.58,-866.85"/>
</g>
<!-- 2371838692096 -->
<g id="node12" class="node">
<title>2371838692096</title>
<path fill="none" stroke="grey" d="M312.38,-857.88C312.38,-857.88 199.62,-857.88 199.62,-857.88 193.62,-857.88 187.62,-851.88 187.62,-845.88 187.62,-845.88 187.62,-833.88 187.62,-833.88 187.62,-827.88 193.62,-821.88 199.62,-821.88 199.62,-821.88 312.38,-821.88 312.38,-821.88 318.38,-821.88 324.38,-827.88 324.38,-833.88 324.38,-833.88 324.38,-845.88 324.38,-845.88 324.38,-851.88 318.38,-857.88 312.38,-857.88"/>
<text text-anchor="middle" x="256" y="-834.45" font-family="Times New Roman,serif" font-size="14.00">SkipStep: Skip step 2</text>
</g>
<!-- 2371838444224&#45;&gt;2371838692096 -->
<g id="edge11" class="edge">
<title>2371838444224&#45;&gt;2371838692096</title>
<path fill="none" stroke="black" d="M232.14,-907.63C237.1,-893.74 241.94,-880.21 245.95,-869"/>
<polygon fill="black" stroke="black" points="249.21,-870.26 249.28,-859.66 242.62,-867.9 249.21,-870.26"/>
</g>
<!-- 2371838691712 -->
<g id="node3" class="node">
<title>2371838691712</title>
<path fill="none" stroke="darkgreen" d="M134.62,-772.38C134.62,-772.38 41.38,-772.38 41.38,-772.38 35.38,-772.38 29.38,-766.38 29.38,-760.38 29.38,-760.38 29.38,-748.38 29.38,-748.38 29.38,-742.38 35.38,-736.38 41.38,-736.38 41.38,-736.38 134.62,-736.38 134.62,-736.38 140.62,-736.38 146.62,-742.38 146.62,-748.38 146.62,-748.38 146.62,-760.38 146.62,-760.38 146.62,-766.38 140.62,-772.38 134.62,-772.38"/>
<text text-anchor="middle" x="88" y="-748.95" font-family="Times New Roman,serif" font-size="14.00">LogStep: Step 1.2</text>
</g>
<!-- 2371838691664&#45;&gt;2371838691712 -->
<g id="edge1" class="edge">
<title>2371838691664&#45;&gt;2371838691712</title>
<path fill="none" stroke="black" d="M88,-819.93C88,-809.32 88,-795.87 88,-784"/>
<polygon fill="black" stroke="black" points="91.5,-784.34 88,-774.34 84.5,-784.34 91.5,-784.34"/>
</g>
<!-- 2371838691760 -->
<!-- Square previous result -->
<g id="node4" class="node">
<title>2371838691760</title>
<path fill="none" stroke="darkgreen" d="M147.25,-694.75C147.25,-694.75 30.75,-694.75 30.75,-694.75 24.75,-694.75 18.75,-688.75 18.75,-682.75 18.75,-682.75 18.75,-651.5 18.75,-651.5 18.75,-645.5 24.75,-639.5 30.75,-639.5 30.75,-639.5 147.25,-639.5 147.25,-639.5 153.25,-639.5 159.25,-645.5 159.25,-651.5 159.25,-651.5 159.25,-682.75 159.25,-682.75 159.25,-688.75 153.25,-694.75 147.25,-694.75"/>
<text text-anchor="middle" x="89" y="-677.45" font-family="Times New Roman,serif" font-size="14.00">MutliplyStep: Step 1.3</text>
<text text-anchor="middle" x="89" y="-661.7" font-family="Times New Roman,serif" font-size="14.00">Square previous result</text>
<text text-anchor="middle" x="89" y="-645.95" font-family="Times New Roman,serif" font-size="14.00">result: 90.25</text>
</g>
<!-- 2371838691712&#45;&gt;2371838691760 -->
<g id="edge2" class="edge">
<title>2371838691712&#45;&gt;2371838691760</title>
<path fill="none" stroke="black" d="M88.2,-736.12C88.3,-727.57 88.43,-716.87 88.55,-706.51"/>
<polygon fill="black" stroke="black" points="92.05,-706.64 88.67,-696.6 85.05,-706.56 92.05,-706.64"/>
</g>
<!-- 2371838691808 -->
<g id="node5" class="node">
<title>2371838691808</title>
<path fill="none" stroke="darkgreen" d="M141.62,-603.5C141.62,-603.5 48.38,-603.5 48.38,-603.5 42.38,-603.5 36.38,-597.5 36.38,-591.5 36.38,-591.5 36.38,-579.5 36.38,-579.5 36.38,-573.5 42.38,-567.5 48.38,-567.5 48.38,-567.5 141.62,-567.5 141.62,-567.5 147.62,-567.5 153.62,-573.5 153.62,-579.5 153.62,-579.5 153.62,-591.5 153.62,-591.5 153.62,-597.5 147.62,-603.5 141.62,-603.5"/>
<text text-anchor="middle" x="95" y="-580.08" font-family="Times New Roman,serif" font-size="14.00">LogStep: Step 1.2</text>
</g>
<!-- 2371838691760&#45;&gt;2371838691808 -->
<g id="edge3" class="edge">
<title>2371838691760&#45;&gt;2371838691808</title>
<path fill="none" stroke="black" d="M91.03,-639.17C91.62,-631.38 92.26,-622.85 92.85,-614.97"/>
<polygon fill="black" stroke="black" points="96.33,-615.44 93.59,-605.2 89.35,-614.91 96.33,-615.44"/>
</g>
<!-- 2371838693248 -->
<g id="node6" class="node">
<title>2371838693248</title>
<path fill="none" stroke="darkgreen" d="M254.75,-519.75C254.75,-519.75 135.25,-519.75 135.25,-519.75 129.25,-519.75 123.25,-513.75 123.25,-507.75 123.25,-507.75 123.25,-492.25 123.25,-492.25 123.25,-486.25 129.25,-480.25 135.25,-480.25 135.25,-480.25 254.75,-480.25 254.75,-480.25 260.75,-480.25 266.75,-486.25 266.75,-492.25 266.75,-492.25 266.75,-507.75 266.75,-507.75 266.75,-513.75 260.75,-519.75 254.75,-519.75"/>
<text text-anchor="middle" x="195" y="-502.45" font-family="Times New Roman,serif" font-size="14.00">AdditionStep: Step 6.1</text>
<text text-anchor="middle" x="195" y="-486.7" font-family="Times New Roman,serif" font-size="14.00">result: 102.0</text>
</g>
<!-- 2371838691808&#45;&gt;2371838693248 -->
<g id="edge9" class="edge">
<title>2371838691808&#45;&gt;2371838693248</title>
<path fill="none" stroke="black" d="M115.72,-567.2C129.49,-555.7 147.84,-540.38 163.42,-527.37"/>
<polygon fill="black" stroke="black" points="165.62,-530.09 171.05,-521 161.13,-524.72 165.62,-530.09"/>
</g>
<!-- 2371838693296 -->
<g id="node7" class="node">
<title>2371838693296</title>
<path fill="none" stroke="darkgreen" d="M252.12,-444.25C252.12,-444.25 137.88,-444.25 137.88,-444.25 131.88,-444.25 125.88,-438.25 125.88,-432.25 125.88,-432.25 125.88,-420.25 125.88,-420.25 125.88,-414.25 131.88,-408.25 137.88,-408.25 137.88,-408.25 252.12,-408.25 252.12,-408.25 258.12,-408.25 264.12,-414.25 264.12,-420.25 264.12,-420.25 264.12,-432.25 264.12,-432.25 264.12,-438.25 258.12,-444.25 252.12,-444.25"/>
<text text-anchor="middle" x="195" y="-420.82" font-family="Times New Roman,serif" font-size="14.00">LogStep: result_step6</text>
</g>
<!-- 2371838693248&#45;&gt;2371838693296 -->
<g id="edge5" class="edge">
<title>2371838693248&#45;&gt;2371838693296</title>
<path fill="none" stroke="black" d="M195,-479.77C195,-472.5 195,-464.04 195,-456.08"/>
<polygon fill="black" stroke="black" points="198.5,-456.08 195,-446.08 191.5,-456.08 198.5,-456.08"/>
</g>
<!-- 2371838691520 -->
<g id="node8" class="node">
<title>2371838691520</title>
<path fill="none" stroke="darkgreen" d="M291.5,-372.25C291.5,-372.25 98.5,-372.25 98.5,-372.25 92.5,-372.25 86.5,-366.25 86.5,-360.25 86.5,-360.25 86.5,-313.25 86.5,-313.25 86.5,-307.25 92.5,-301.25 98.5,-301.25 98.5,-301.25 291.5,-301.25 291.5,-301.25 297.5,-301.25 303.5,-307.25 303.5,-313.25 303.5,-313.25 303.5,-360.25 303.5,-360.25 303.5,-366.25 297.5,-372.25 291.5,-372.25"/>
<text text-anchor="middle" x="195" y="-354.95" font-family="Times New Roman,serif" font-size="14.00">Function Step: Function step</text>
<text text-anchor="middle" x="195" y="-339.2" font-family="Times New Roman,serif" font-size="14.00">function: do_something_in_process</text>
<text text-anchor="middle" x="195" y="-323.45" font-family="Times New Roman,serif" font-size="14.00">args: </text>
<text text-anchor="middle" x="195" y="-307.7" font-family="Times New Roman,serif" font-size="14.00">kwargs: a=11.75, b=102.0</text>
</g>
<!-- 2371838693296&#45;&gt;2371838691520 -->
<g id="edge6" class="edge">
<title>2371838693296&#45;&gt;2371838691520</title>
<path fill="none" stroke="black" d="M195,-407.96C195,-401.05 195,-392.72 195,-384.25"/>
<polygon fill="black" stroke="black" points="198.5,-384.25 195,-374.25 191.5,-384.25 198.5,-384.25"/>
</g>
<!-- 2371838693344 -->
<g id="node9" class="node">
<title>2371838693344</title>
<path fill="none" stroke="darkgreen" d="M264.88,-265.25C264.88,-265.25 125.12,-265.25 125.12,-265.25 119.12,-265.25 113.12,-259.25 113.12,-253.25 113.12,-253.25 113.12,-241.25 113.12,-241.25 113.12,-235.25 119.12,-229.25 125.12,-229.25 125.12,-229.25 264.88,-229.25 264.88,-229.25 270.88,-229.25 276.88,-235.25 276.88,-241.25 276.88,-241.25 276.88,-253.25 276.88,-253.25 276.88,-259.25 270.88,-265.25 264.88,-265.25"/>
<text text-anchor="middle" x="195" y="-241.82" font-family="Times New Roman,serif" font-size="14.00">LogStep: result_func_step</text>
</g>
<!-- 2371838691520&#45;&gt;2371838693344 -->
<g id="edge7" class="edge">
<title>2371838691520&#45;&gt;2371838693344</title>
<path fill="none" stroke="black" d="M195,-300.92C195,-292.91 195,-284.49 195,-276.78"/>
<polygon fill="black" stroke="black" points="198.5,-276.95 195,-266.95 191.5,-276.95 198.5,-276.95"/>
</g>
<!-- 2371838456512 -->
<g id="node11" class="node">
<title>2371838456512</title>
<text text-anchor="middle" x="195" y="-164.2" font-family="Times New Roman,serif" font-size="14.00">ExampleContext(thread_count=2,</text>
<text text-anchor="middle" x="195" y="-148.45" font-family="Times New Roman,serif" font-size="14.00"> &#160;&#160;&#160;&#160;&#160;&#160;&#160;&#160;&#160;&#160;&#160;&#160;&#160;&#160;input_x=1.5,</text>
<text text-anchor="middle" x="195" y="-132.7" font-family="Times New Roman,serif" font-size="14.00"> &#160;&#160;&#160;&#160;&#160;&#160;&#160;&#160;&#160;&#160;&#160;&#160;&#160;&#160;input_y=8,</text>
<text text-anchor="middle" x="195" y="-116.95" font-family="Times New Roman,serif" font-size="14.00"> &#160;&#160;&#160;&#160;&#160;&#160;&#160;&#160;&#160;&#160;&#160;&#160;&#160;&#160;result_step1=90.25,</text>
<text text-anchor="middle" x="195" y="-101.2" font-family="Times New Roman,serif" font-size="14.00"> &#160;&#160;&#160;&#160;&#160;&#160;&#160;&#160;&#160;&#160;&#160;&#160;&#160;&#160;result_step3=9.5,</text>
<text text-anchor="middle" x="195" y="-85.45" font-family="Times New Roman,serif" font-size="14.00"> &#160;&#160;&#160;&#160;&#160;&#160;&#160;&#160;&#160;&#160;&#160;&#160;&#160;&#160;result_step4=2.25,</text>
<text text-anchor="middle" x="195" y="-69.7" font-family="Times New Roman,serif" font-size="14.00"> &#160;&#160;&#160;&#160;&#160;&#160;&#160;&#160;&#160;&#160;&#160;&#160;&#160;&#160;result_step5=11.75,</text>
<text text-anchor="middle" x="195" y="-53.95" font-family="Times New Roman,serif" font-size="14.00"> &#160;&#160;&#160;&#160;&#160;&#160;&#160;&#160;&#160;&#160;&#160;&#160;&#160;&#160;result_step6=102.0,</text>
<text text-anchor="middle" x="195" y="-38.2" font-family="Times New Roman,serif" font-size="14.00"> &#160;&#160;&#160;&#160;&#160;&#160;&#160;&#160;&#160;&#160;&#160;&#160;&#160;&#160;result_step7=&lt;class &#39;tuyau.context.NoDefault&#39;&gt;,</text>
<text text-anchor="middle" x="195" y="-22.45" font-family="Times New Roman,serif" font-size="14.00"> &#160;&#160;&#160;&#160;&#160;&#160;&#160;&#160;&#160;&#160;&#160;&#160;&#160;&#160;result_func_step=10542.0625)</text>
</g>
<!-- 2371838693344&#45;&gt;2371838456512 -->
<g id="edge10" class="edge">
<title>2371838693344&#45;&gt;2371838456512</title>
<path fill="none" stroke="black" d="M195,-228.87C195,-219.24 195,-206.44 195,-192.64"/>
<polygon fill="black" stroke="black" points="198.5,-192.91 195,-182.91 191.5,-192.91 198.5,-192.91"/>
</g>
<!-- 2371838692960 -->
<g id="node10" class="node">
<title>2371838692960</title>
<path fill="none" stroke="darkgreen" d="M311.12,-603.5C311.12,-603.5 196.88,-603.5 196.88,-603.5 190.88,-603.5 184.88,-597.5 184.88,-591.5 184.88,-591.5 184.88,-579.5 184.88,-579.5 184.88,-573.5 190.88,-567.5 196.88,-567.5 196.88,-567.5 311.12,-567.5 311.12,-567.5 317.12,-567.5 323.12,-573.5 323.12,-579.5 323.12,-579.5 323.12,-591.5 323.12,-591.5 323.12,-597.5 317.12,-603.5 311.12,-603.5"/>
<text text-anchor="middle" x="254" y="-580.08" font-family="Times New Roman,serif" font-size="14.00">LogStep: result_step5</text>
</g>
<!-- 2371838692960&#45;&gt;2371838693248 -->
<g id="edge8" class="edge">
<title>2371838692960&#45;&gt;2371838693248</title>
<path fill="none" stroke="black" d="M241.78,-567.2C234.03,-556.24 223.83,-541.8 214.93,-529.21"/>
<polygon fill="black" stroke="black" points="217.95,-527.41 209.32,-521.26 212.23,-531.45 217.95,-527.41"/>
</g>
<!-- 2371838692384 -->
<g id="node13" class="node">
<title>2371838692384</title>
<path fill="none" stroke="darkgreen" d="M315.75,-774.12C315.75,-774.12 196.25,-774.12 196.25,-774.12 190.25,-774.12 184.25,-768.12 184.25,-762.12 184.25,-762.12 184.25,-746.62 184.25,-746.62 184.25,-740.62 190.25,-734.62 196.25,-734.62 196.25,-734.62 315.75,-734.62 315.75,-734.62 321.75,-734.62 327.75,-740.62 327.75,-746.62 327.75,-746.62 327.75,-762.12 327.75,-762.12 327.75,-768.12 321.75,-774.12 315.75,-774.12"/>
<text text-anchor="middle" x="256" y="-756.83" font-family="Times New Roman,serif" font-size="14.00">AdditionStep: Step 3.1</text>
<text text-anchor="middle" x="256" y="-741.08" font-family="Times New Roman,serif" font-size="14.00">result: 9.5</text>
</g>
<!-- 2371838692096&#45;&gt;2371838692384 -->
<g id="edge12" class="edge">
<title>2371838692096&#45;&gt;2371838692384</title>
<path fill="none" stroke="black" d="M256,-821.57C256,-811.26 256,-797.86 256,-785.82"/>
<polygon fill="black" stroke="black" points="259.5,-785.91 256,-775.91 252.5,-785.91 259.5,-785.91"/>
</g>
<!-- 2371838692672 -->
<g id="node15" class="node">
<title>2371838692672</title>
<path fill="none" stroke="darkgreen" d="M480.25,-774.12C480.25,-774.12 363.75,-774.12 363.75,-774.12 357.75,-774.12 351.75,-768.12 351.75,-762.12 351.75,-762.12 351.75,-746.62 351.75,-746.62 351.75,-740.62 357.75,-734.62 363.75,-734.62 363.75,-734.62 480.25,-734.62 480.25,-734.62 486.25,-734.62 492.25,-740.62 492.25,-746.62 492.25,-746.62 492.25,-762.12 492.25,-762.12 492.25,-768.12 486.25,-774.12 480.25,-774.12"/>
<text text-anchor="middle" x="422" y="-756.83" font-family="Times New Roman,serif" font-size="14.00">MutliplyStep: Step 4.1</text>
<text text-anchor="middle" x="422" y="-741.08" font-family="Times New Roman,serif" font-size="14.00">result: 2.25</text>
</g>
<!-- 2371838692096&#45;&gt;2371838692672 -->
<g id="edge16" class="edge">
<title>2371838692096&#45;&gt;2371838692672</title>
<path fill="none" stroke="black" d="M304.62,-821.47C316.38,-816.8 328.79,-811.48 340,-805.88 354.93,-798.42 370.67,-789.11 384.33,-780.51"/>
<polygon fill="black" stroke="black" points="386.05,-783.57 392.6,-775.24 382.29,-777.67 386.05,-783.57"/>
</g>
<!-- 2371838692912 -->
<g id="node14" class="node">
<title>2371838692912</title>
<path fill="none" stroke="darkgreen" d="M315.75,-686.88C315.75,-686.88 196.25,-686.88 196.25,-686.88 190.25,-686.88 184.25,-680.88 184.25,-674.88 184.25,-674.88 184.25,-659.38 184.25,-659.38 184.25,-653.38 190.25,-647.38 196.25,-647.38 196.25,-647.38 315.75,-647.38 315.75,-647.38 321.75,-647.38 327.75,-653.38 327.75,-659.38 327.75,-659.38 327.75,-674.88 327.75,-674.88 327.75,-680.88 321.75,-686.88 315.75,-686.88"/>
<text text-anchor="middle" x="256" y="-669.58" font-family="Times New Roman,serif" font-size="14.00">AdditionStep: Step 5.1</text>
<text text-anchor="middle" x="256" y="-653.83" font-family="Times New Roman,serif" font-size="14.00">result: 11.75</text>
</g>
<!-- 2371838692384&#45;&gt;2371838692912 -->
<g id="edge14" class="edge">
<title>2371838692384&#45;&gt;2371838692912</title>
<path fill="none" stroke="black" d="M256,-734.46C256,-723.93 256,-710.59 256,-698.63"/>
<polygon fill="black" stroke="black" points="259.5,-698.8 256,-688.8 252.5,-698.8 259.5,-698.8"/>
</g>
<!-- 2371838692912&#45;&gt;2371838692960 -->
<g id="edge13" class="edge">
<title>2371838692912&#45;&gt;2371838692960</title>
<path fill="none" stroke="black" d="M255.53,-647.25C255.29,-637.7 254.99,-625.89 254.72,-615.24"/>
<polygon fill="black" stroke="black" points="258.22,-615.3 254.47,-605.39 251.23,-615.47 258.22,-615.3"/>
</g>
<!-- 2371838692672&#45;&gt;2371838692912 -->
<g id="edge15" class="edge">
<title>2371838692672&#45;&gt;2371838692912</title>
<path fill="none" stroke="black" d="M384.75,-734.24C360.7,-721.89 329.19,-705.71 303.37,-692.45"/>
<polygon fill="black" stroke="black" points="305.26,-689.49 294.76,-688.03 302.06,-695.71 305.26,-689.49"/>
</g>
</g>
</svg>
