<?xml version="1.0" encoding="UTF-8" standalone="no"?>
<!DOCTYPE svg PUBLIC "-//W3C//DTD SVG 1.1//EN"
 "http://www.w3.org/Graphics/SVG/1.1/DTD/svg11.dtd">
<!-- Generated by graphviz version 10.0.1 (20240210.2158)
 -->
<!-- Title: Example Pipeline_preview Pages: 1 -->
<svg width="520pt" height="1152pt"
 viewBox="0.00 0.00 520.00 1152.12" xmlns="http://www.w3.org/2000/svg" xmlns:xlink="http://www.w3.org/1999/xlink">
<g id="graph0" class="graph" transform="scale(1 1) rotate(0) translate(4 1148.12)">
<title>Example Pipeline_preview</title>
<polygon fill="white" stroke="none" points="-4,4 -4,-1148.12 516,-1148.12 516,4 -4,4"/>
<g id="clust1" class="cluster">
<title>cluster_1859951390848</title>
<polygon fill="none" stroke="grey" points="32,-915.12 32,-1136.12 358,-1136.12 358,-915.12 32,-915.12"/>
<text text-anchor="middle" x="195" y="-1118.83" font-family="Times New Roman,serif" font-size="14.00">Example Pipeline</text>
</g>
<g id="clust2" class="cluster">
<title>cluster_1859926276720</title>
<polygon fill="none" stroke="grey" points="11,-575.25 11,-907.12 171,-907.12 171,-575.25 11,-575.25"/>
<text text-anchor="middle" x="91" y="-889.83" font-family="Times New Roman,serif" font-size="14.00">Process node 1</text>
</g>
<g id="clust3" class="cluster">
<title>cluster_1859951390128</title>
<polygon fill="none" stroke="grey" points="8,-237 8,-567.25 504,-567.25 504,-237 8,-237"/>
<text text-anchor="middle" x="256" y="-549.95" font-family="Times New Roman,serif" font-size="14.00">Process node 6</text>
</g>
<g id="clust4" class="cluster">
<title>cluster_1859951391568</title>
<polygon fill="none" stroke="grey" points="93,-8 93,-229 419,-229 419,-8 93,-8"/>
<text text-anchor="middle" x="256" y="-211.7" font-family="Times New Roman,serif" font-size="14.00">FINAL NODE</text>
</g>
<g id="clust5" class="cluster">
<title>cluster_1859951384464</title>
<polygon fill="none" stroke="grey" points="183,-829.62 183,-905.38 335,-905.38 335,-829.62 183,-829.62"/>
<text text-anchor="middle" x="259" y="-888.08" font-family="Times New Roman,serif" font-size="14.00">Process node 2</text>
</g>
<g id="clust6" class="cluster">
<title>cluster_1859951388736</title>
<polygon fill="none" stroke="grey" points="179,-742.38 179,-821.62 339,-821.62 339,-742.38 179,-742.38"/>
<text text-anchor="middle" x="259" y="-804.33" font-family="Times New Roman,serif" font-size="14.00">Process node 3</text>
</g>
<g id="clust7" class="cluster">
<title>cluster_1859951389600</title>
<polygon fill="none" stroke="grey" points="179,-575.25 179,-734.38 339,-734.38 339,-575.25 179,-575.25"/>
<text text-anchor="middle" x="259" y="-717.08" font-family="Times New Roman,serif" font-size="14.00">Process node 5</text>
</g>
<g id="clust8" class="cluster">
<title>cluster_1859951389120</title>
<polygon fill="none" stroke="grey" points="347,-742.38 347,-821.62 503,-821.62 503,-742.38 347,-742.38"/>
<text text-anchor="middle" x="425" y="-804.33" font-family="Times New Roman,serif" font-size="14.00">Process node 4</text>
</g>
<!-- 1859951391040 -->
<g id="node1" class="node">
<title>1859951391040</title>
<text text-anchor="middle" x="195" y="-1087.08" font-family="Times New Roman,serif" font-size="14.00">ExampleContext</text>
<text text-anchor="middle" x="195" y="-1071.33" font-family="Times New Roman,serif" font-size="14.00">thread_count=4</text>
<text text-anchor="middle" x="195" y="-1055.58" font-family="Times New Roman,serif" font-size="14.00"> input_x=0.0</text>
<text text-anchor="middle" x="195" y="-1039.83" font-family="Times New Roman,serif" font-size="14.00"> input_y=0.0</text>
<text text-anchor="middle" x="195" y="-1024.08" font-family="Times New Roman,serif" font-size="14.00"> result_step1=&lt;class &#39;tuyau.context.NoDefault&#39;&gt;</text>
<text text-anchor="middle" x="195" y="-1008.33" font-family="Times New Roman,serif" font-size="14.00"> result_step3=&lt;class &#39;tuyau.context.NoDefault&#39;&gt;</text>
<text text-anchor="middle" x="195" y="-992.58" font-family="Times New Roman,serif" font-size="14.00"> result_step4=&lt;class &#39;tuyau.context.NoDefault&#39;&gt;</text>
<text text-anchor="middle" x="195" y="-976.83" font-family="Times New Roman,serif" font-size="14.00"> result_step5=&lt;class &#39;tuyau.context.NoDefault&#39;&gt;</text>
<text text-anchor="middle" x="195" y="-961.08" font-family="Times New Roman,serif" font-size="14.00"> result_step6=&lt;class &#39;tuyau.context.NoDefault&#39;&gt;</text>
<text text-anchor="middle" x="195" y="-945.33" font-family="Times New Roman,serif" font-size="14.00"> result_step7=&lt;class &#39;tuyau.context.NoDefault&#39;&gt;</text>
<text text-anchor="middle" x="195" y="-929.58" font-family="Times New Roman,serif" font-size="14.00"> result_func_step=&lt;class &#39;tuyau.context.NoDefault&#39;&gt;</text>
</g>
<!-- 1859951236096 -->
<g id="node2" class="node">
<title>1859951236096</title>
<path fill="none" stroke="black" d="M150.75,-875.38C150.75,-875.38 31.25,-875.38 31.25,-875.38 25.25,-875.38 19.25,-869.38 19.25,-863.38 19.25,-863.38 19.25,-847.88 19.25,-847.88 19.25,-841.88 25.25,-835.88 31.25,-835.88 31.25,-835.88 150.75,-835.88 150.75,-835.88 156.75,-835.88 162.75,-841.88 162.75,-847.88 162.75,-847.88 162.75,-863.38 162.75,-863.38 162.75,-869.38 156.75,-875.38 150.75,-875.38"/>
<text text-anchor="middle" x="91" y="-858.08" font-family="Times New Roman,serif" font-size="14.00">AdditionStep: Step 1.1</text>
<text text-anchor="middle" x="91" y="-842.33" font-family="Times New Roman,serif" font-size="14.00">result: None</text>
</g>
<!-- 1859951391040&#45;&gt;1859951236096 -->
<g id="edge4" class="edge">
<title>1859951391040&#45;&gt;1859951236096</title>
<path fill="none" stroke="black" d="M113.44,-915.12C112.45,-913.12 111.46,-911.12 110.47,-909.12"/>
<polygon fill="black" stroke="black" points="117.72,-915.89 110.15,-908.48 111.44,-918.99 117.72,-915.89"/>
</g>
<!-- 1859951388400 -->
<g id="node12" class="node">
<title>1859951388400</title>
<path fill="none" stroke="black" d="M315.38,-873.62C315.38,-873.62 202.62,-873.62 202.62,-873.62 196.62,-873.62 190.62,-867.62 190.62,-861.62 190.62,-861.62 190.62,-849.62 190.62,-849.62 190.62,-843.62 196.62,-837.62 202.62,-837.62 202.62,-837.62 315.38,-837.62 315.38,-837.62 321.38,-837.62 327.38,-843.62 327.38,-849.62 327.38,-849.62 327.38,-861.62 327.38,-861.62 327.38,-867.62 321.38,-873.62 315.38,-873.62"/>
<text text-anchor="middle" x="259" y="-850.2" font-family="Times New Roman,serif" font-size="14.00">SkipStep: Skip step 2</text>
</g>
<!-- 1859951391040&#45;&gt;1859951388400 -->
<g id="edge11" class="edge">
<title>1859951391040&#45;&gt;1859951388400</title>
<path fill="none" stroke="black" d="M240.26,-915.12C241.11,-912.69 241.95,-910.25 242.8,-907.81"/>
<polygon fill="black" stroke="black" points="243.18,-917.4 243.15,-906.8 236.56,-915.1 243.18,-917.4"/>
</g>
<!-- 1859951236480 -->
<g id="node3" class="node">
<title>1859951236480</title>
<path fill="none" stroke="black" d="M137.62,-788.12C137.62,-788.12 44.38,-788.12 44.38,-788.12 38.38,-788.12 32.38,-782.12 32.38,-776.12 32.38,-776.12 32.38,-764.12 32.38,-764.12 32.38,-758.12 38.38,-752.12 44.38,-752.12 44.38,-752.12 137.62,-752.12 137.62,-752.12 143.62,-752.12 149.62,-758.12 149.62,-764.12 149.62,-764.12 149.62,-776.12 149.62,-776.12 149.62,-782.12 143.62,-788.12 137.62,-788.12"/>
<text text-anchor="middle" x="91" y="-764.7" font-family="Times New Roman,serif" font-size="14.00">LogStep: Step 1.2</text>
</g>
<!-- 1859951236096&#45;&gt;1859951236480 -->
<g id="edge1" class="edge">
<title>1859951236096&#45;&gt;1859951236480</title>
<path fill="none" stroke="black" d="M84.95,-835.45C83.02,-826.03 83.42,-817.4 86.16,-799.42"/>
<polygon fill="black" stroke="black" points="89.56,-800.32 87.68,-789.89 82.65,-799.22 89.56,-800.32"/>
</g>
<!-- 1859951238784 -->
<!-- Square previous result -->
<g id="node4" class="node">
<title>1859951238784</title>
<path fill="none" stroke="black" d="M150.25,-710.5C150.25,-710.5 33.75,-710.5 33.75,-710.5 27.75,-710.5 21.75,-704.5 21.75,-698.5 21.75,-698.5 21.75,-667.25 21.75,-667.25 21.75,-661.25 27.75,-655.25 33.75,-655.25 33.75,-655.25 150.25,-655.25 150.25,-655.25 156.25,-655.25 162.25,-661.25 162.25,-667.25 162.25,-667.25 162.25,-698.5 162.25,-698.5 162.25,-704.5 156.25,-710.5 150.25,-710.5"/>
<text text-anchor="middle" x="92" y="-693.2" font-family="Times New Roman,serif" font-size="14.00">MutliplyStep: Step 1.3</text>
<text text-anchor="middle" x="92" y="-677.45" font-family="Times New Roman,serif" font-size="14.00">Square previous result</text>
<text text-anchor="middle" x="92" y="-661.7" font-family="Times New Roman,serif" font-size="14.00">result: None</text>
</g>
<!-- 1859951236480&#45;&gt;1859951238784 -->
<g id="edge2" class="edge">
<title>1859951236480&#45;&gt;1859951238784</title>
<path fill="none" stroke="black" d="M84.36,-751.69C81.55,-742.15 81.18,-734.74 83.36,-721.86"/>
<polygon fill="black" stroke="black" points="86.74,-722.8 85.23,-712.31 79.87,-721.46 86.74,-722.8"/>
</g>
<!-- 1859925022944 -->
<g id="node5" class="node">
<title>1859925022944</title>
<path fill="none" stroke="black" d="M144.62,-619.25C144.62,-619.25 51.38,-619.25 51.38,-619.25 45.38,-619.25 39.38,-613.25 39.38,-607.25 39.38,-607.25 39.38,-595.25 39.38,-595.25 39.38,-589.25 45.38,-583.25 51.38,-583.25 51.38,-583.25 144.62,-583.25 144.62,-583.25 150.62,-583.25 156.62,-589.25 156.62,-595.25 156.62,-595.25 156.62,-607.25 156.62,-607.25 156.62,-613.25 150.62,-619.25 144.62,-619.25"/>
<text text-anchor="middle" x="98" y="-595.83" font-family="Times New Roman,serif" font-size="14.00">LogStep: Step 1.2</text>
</g>
<!-- 1859951238784&#45;&gt;1859925022944 -->
<g id="edge3" class="edge">
<title>1859951238784&#45;&gt;1859925022944</title>
<path fill="none" stroke="black" d="M83.92,-654.93C83.05,-647.51 84.1,-640.68 87.4,-630.33"/>
<polygon fill="black" stroke="black" points="90.61,-631.74 90.57,-621.15 83.99,-629.46 90.61,-631.74"/>
</g>
<!-- 1859951390560 -->
<g id="node6" class="node">
<title>1859951390560</title>
<path fill="none" stroke="black" d="M315.75,-535.5C315.75,-535.5 196.25,-535.5 196.25,-535.5 190.25,-535.5 184.25,-529.5 184.25,-523.5 184.25,-523.5 184.25,-508 184.25,-508 184.25,-502 190.25,-496 196.25,-496 196.25,-496 315.75,-496 315.75,-496 321.75,-496 327.75,-502 327.75,-508 327.75,-508 327.75,-523.5 327.75,-523.5 327.75,-529.5 321.75,-535.5 315.75,-535.5"/>
<text text-anchor="middle" x="256" y="-518.2" font-family="Times New Roman,serif" font-size="14.00">AdditionStep: Step 6.1</text>
<text text-anchor="middle" x="256" y="-502.45" font-family="Times New Roman,serif" font-size="14.00">result: None</text>
</g>
<!-- 1859925022944&#45;&gt;1859951390560 -->
<g id="edge8" class="edge">
<title>1859925022944&#45;&gt;1859951390560</title>
<path fill="none" stroke="black" d="M122.07,-575.25C122.18,-575.15 122.28,-575.04 122.39,-574.94"/>
<polygon fill="black" stroke="black" points="124.68,-577.59 129.7,-568.27 119.96,-572.42 124.68,-577.59"/>
</g>
<!-- 1859951390608 -->
<g id="node7" class="node">
<title>1859951390608</title>
<path fill="none" stroke="black" d="M313.12,-460C313.12,-460 198.88,-460 198.88,-460 192.88,-460 186.88,-454 186.88,-448 186.88,-448 186.88,-436 186.88,-436 186.88,-430 192.88,-424 198.88,-424 198.88,-424 313.12,-424 313.12,-424 319.12,-424 325.12,-430 325.12,-436 325.12,-436 325.12,-448 325.12,-448 325.12,-454 319.12,-460 313.12,-460"/>
<text text-anchor="middle" x="256" y="-436.57" font-family="Times New Roman,serif" font-size="14.00">LogStep: result_step6</text>
</g>
<!-- 1859951390560&#45;&gt;1859951390608 -->
<g id="edge5" class="edge">
<title>1859951390560&#45;&gt;1859951390608</title>
<path fill="none" stroke="black" d="M256,-495.93C256,-484.99 256,-477.44 256,-471.5"/>
<polygon fill="black" stroke="black" points="259.5,-471.9 256,-461.9 252.5,-471.9 259.5,-471.9"/>
</g>
<!-- 1859926276672 -->
<g id="node8" class="node">
<title>1859926276672</title>
<path fill="none" stroke="black" d="M483.75,-388C483.75,-388 28.25,-388 28.25,-388 22.25,-388 16.25,-382 16.25,-376 16.25,-376 16.25,-329 16.25,-329 16.25,-323 22.25,-317 28.25,-317 28.25,-317 483.75,-317 483.75,-317 489.75,-317 495.75,-323 495.75,-329 495.75,-329 495.75,-376 495.75,-376 495.75,-382 489.75,-388 483.75,-388"/>
<text text-anchor="middle" x="256" y="-370.7" font-family="Times New Roman,serif" font-size="14.00">Function Step: Function step</text>
<text text-anchor="middle" x="256" y="-354.95" font-family="Times New Roman,serif" font-size="14.00">function: do_something_in_process</text>
<text text-anchor="middle" x="256" y="-339.2" font-family="Times New Roman,serif" font-size="14.00">args: </text>
<text text-anchor="middle" x="256" y="-323.45" font-family="Times New Roman,serif" font-size="14.00">kwargs: a=&lt;class &#39;tuyau.context.NoDefault&#39;&gt;, b=&lt;class &#39;tuyau.context.NoDefault&#39;&gt;</text>
</g>
<!-- 1859951390608&#45;&gt;1859926276672 -->
<g id="edge6" class="edge">
<title>1859951390608&#45;&gt;1859926276672</title>
<path fill="none" stroke="black" d="M256,-423.57C256,-413.86 256,-406.14 256,-399.76"/>
<polygon fill="black" stroke="black" points="259.5,-399.85 256,-389.85 252.5,-399.85 259.5,-399.85"/>
</g>
<!-- 1859951390656 -->
<g id="node9" class="node">
<title>1859951390656</title>
<path fill="none" stroke="black" d="M325.88,-281C325.88,-281 186.12,-281 186.12,-281 180.12,-281 174.12,-275 174.12,-269 174.12,-269 174.12,-257 174.12,-257 174.12,-251 180.12,-245 186.12,-245 186.12,-245 325.88,-245 325.88,-245 331.88,-245 337.88,-251 337.88,-257 337.88,-257 337.88,-269 337.88,-269 337.88,-275 331.88,-281 325.88,-281"/>
<text text-anchor="middle" x="256" y="-257.57" font-family="Times New Roman,serif" font-size="14.00">LogStep: result_func_step</text>
</g>
<!-- 1859926276672&#45;&gt;1859951390656 -->
<g id="edge7" class="edge">
<title>1859926276672&#45;&gt;1859951390656</title>
<path fill="none" stroke="black" d="M256,-316.73C256,-306.17 256,-298.85 256,-292.78"/>
<polygon fill="black" stroke="black" points="259.5,-292.95 256,-282.95 252.5,-292.95 259.5,-292.95"/>
</g>
<!-- 1859951391808 -->
<g id="node11" class="node">
<title>1859951391808</title>
<text text-anchor="middle" x="256" y="-179.95" font-family="Times New Roman,serif" font-size="14.00">ExampleContext</text>
<text text-anchor="middle" x="256" y="-164.2" font-family="Times New Roman,serif" font-size="14.00">thread_count=4</text>
<text text-anchor="middle" x="256" y="-148.45" font-family="Times New Roman,serif" font-size="14.00"> input_x=0.0</text>
<text text-anchor="middle" x="256" y="-132.7" font-family="Times New Roman,serif" font-size="14.00"> input_y=0.0</text>
<text text-anchor="middle" x="256" y="-116.95" font-family="Times New Roman,serif" font-size="14.00"> result_step1=&lt;class &#39;tuyau.context.NoDefault&#39;&gt;</text>
<text text-anchor="middle" x="256" y="-101.2" font-family="Times New Roman,serif" font-size="14.00"> result_step3=&lt;class &#39;tuyau.context.NoDefault&#39;&gt;</text>
<text text-anchor="middle" x="256" y="-85.45" font-family="Times New Roman,serif" font-size="14.00"> result_step4=&lt;class &#39;tuyau.context.NoDefault&#39;&gt;</text>
<text text-anchor="middle" x="256" y="-69.7" font-family="Times New Roman,serif" font-size="14.00"> result_step5=&lt;class &#39;tuyau.context.NoDefault&#39;&gt;</text>
<text text-anchor="middle" x="256" y="-53.95" font-family="Times New Roman,serif" font-size="14.00"> result_step6=&lt;class &#39;tuyau.context.NoDefault&#39;&gt;</text>
<text text-anchor="middle" x="256" y="-38.2" font-family="Times New Roman,serif" font-size="14.00"> result_step7=&lt;class &#39;tuyau.context.NoDefault&#39;&gt;</text>
<text text-anchor="middle" x="256" y="-22.45" font-family="Times New Roman,serif" font-size="14.00"> result_func_step=&lt;class &#39;tuyau.context.NoDefault&#39;&gt;</text>
</g>
<!-- 1859951390656&#45;&gt;1859951391808 -->
<g id="edge10" class="edge">
<title>1859951390656&#45;&gt;1859951391808</title>
<path fill="none" stroke="black" d="M256,-237C256,-235 256,-233 256,-231"/>
<polygon fill="black" stroke="black" points="259.5,-240.51 256,-230.51 252.5,-240.51 259.5,-240.51"/>
</g>
<!-- 1859951390080 -->
<g id="node10" class="node">
<title>1859951390080</title>
<path fill="none" stroke="black" d="M314.12,-619.25C314.12,-619.25 199.88,-619.25 199.88,-619.25 193.88,-619.25 187.88,-613.25 187.88,-607.25 187.88,-607.25 187.88,-595.25 187.88,-595.25 187.88,-589.25 193.88,-583.25 199.88,-583.25 199.88,-583.25 314.12,-583.25 314.12,-583.25 320.12,-583.25 326.12,-589.25 326.12,-595.25 326.12,-595.25 326.12,-607.25 326.12,-607.25 326.12,-613.25 320.12,-619.25 314.12,-619.25"/>
<text text-anchor="middle" x="257" y="-595.83" font-family="Times New Roman,serif" font-size="14.00">LogStep: result_step5</text>
</g>
<!-- 1859951390080&#45;&gt;1859951390560 -->
<g id="edge9" class="edge">
<title>1859951390080&#45;&gt;1859951390560</title>
<path fill="none" stroke="black" d="M257.05,-575.25C257.05,-573.25 257.05,-571.25 257.05,-569.25"/>
<polygon fill="black" stroke="black" points="260.54,-578.76 257.06,-568.76 253.54,-578.75 260.54,-578.76"/>
</g>
<!-- 1859951389072 -->
<g id="node13" class="node">
<title>1859951389072</title>
<path fill="none" stroke="black" d="M318.75,-789.88C318.75,-789.88 199.25,-789.88 199.25,-789.88 193.25,-789.88 187.25,-783.88 187.25,-777.88 187.25,-777.88 187.25,-762.38 187.25,-762.38 187.25,-756.38 193.25,-750.38 199.25,-750.38 199.25,-750.38 318.75,-750.38 318.75,-750.38 324.75,-750.38 330.75,-756.38 330.75,-762.38 330.75,-762.38 330.75,-777.88 330.75,-777.88 330.75,-783.88 324.75,-789.88 318.75,-789.88"/>
<text text-anchor="middle" x="259" y="-772.58" font-family="Times New Roman,serif" font-size="14.00">AdditionStep: Step 3.1</text>
<text text-anchor="middle" x="259" y="-756.83" font-family="Times New Roman,serif" font-size="14.00">result: None</text>
</g>
<!-- 1859951388400&#45;&gt;1859951389072 -->
<g id="edge12" class="edge">
<title>1859951388400&#45;&gt;1859951389072</title>
<path fill="none" stroke="black" d="M259.15,-829.62C259.15,-827.62 259.15,-825.62 259.16,-823.62"/>
<polygon fill="black" stroke="black" points="262.65,-833.14 259.16,-823.14 255.65,-833.13 262.65,-833.14"/>
</g>
<!-- 1859951389552 -->
<g id="node15" class="node">
<title>1859951389552</title>
<path fill="none" stroke="black" d="M483.25,-789.88C483.25,-789.88 366.75,-789.88 366.75,-789.88 360.75,-789.88 354.75,-783.88 354.75,-777.88 354.75,-777.88 354.75,-762.38 354.75,-762.38 354.75,-756.38 360.75,-750.38 366.75,-750.38 366.75,-750.38 483.25,-750.38 483.25,-750.38 489.25,-750.38 495.25,-756.38 495.25,-762.38 495.25,-762.38 495.25,-777.88 495.25,-777.88 495.25,-783.88 489.25,-789.88 483.25,-789.88"/>
<text text-anchor="middle" x="425" y="-772.58" font-family="Times New Roman,serif" font-size="14.00">MutliplyStep: Step 4.1</text>
<text text-anchor="middle" x="425" y="-756.83" font-family="Times New Roman,serif" font-size="14.00">result: None</text>
</g>
<!-- 1859951388400&#45;&gt;1859951389552 -->
<g id="edge16" class="edge">
<title>1859951388400&#45;&gt;1859951389552</title>
<path fill="none" stroke="black" d="M335,-845.77C346.98,-842.23 356.82,-837.12 367.24,-829.02"/>
<polygon fill="black" stroke="black" points="369.47,-831.71 374.87,-822.6 364.97,-826.36 369.47,-831.71"/>
</g>
<!-- 1859951390032 -->
<g id="node14" class="node">
<title>1859951390032</title>
<path fill="none" stroke="black" d="M318.75,-702.62C318.75,-702.62 199.25,-702.62 199.25,-702.62 193.25,-702.62 187.25,-696.62 187.25,-690.62 187.25,-690.62 187.25,-675.12 187.25,-675.12 187.25,-669.12 193.25,-663.12 199.25,-663.12 199.25,-663.12 318.75,-663.12 318.75,-663.12 324.75,-663.12 330.75,-669.12 330.75,-675.12 330.75,-675.12 330.75,-690.62 330.75,-690.62 330.75,-696.62 324.75,-702.62 318.75,-702.62"/>
<text text-anchor="middle" x="259" y="-685.33" font-family="Times New Roman,serif" font-size="14.00">AdditionStep: Step 5.1</text>
<text text-anchor="middle" x="259" y="-669.58" font-family="Times New Roman,serif" font-size="14.00">result: None</text>
</g>
<!-- 1859951389072&#45;&gt;1859951390032 -->
<g id="edge14" class="edge">
<title>1859951389072&#45;&gt;1859951390032</title>
<path fill="none" stroke="black" d="M259.24,-742.38C259.25,-740.37 259.25,-738.37 259.25,-736.37"/>
<polygon fill="black" stroke="black" points="262.74,-745.89 259.25,-735.88 255.74,-745.88 262.74,-745.89"/>
</g>
<!-- 1859951390032&#45;&gt;1859951390080 -->
<g id="edge13" class="edge">
<title>1859951390032&#45;&gt;1859951390080</title>
<path fill="none" stroke="black" d="M258.56,-662.99C258.38,-655.31 258.17,-646.93 257.76,-630.72"/>
<polygon fill="black" stroke="black" points="261.26,-630.98 257.51,-621.07 254.27,-631.16 261.26,-630.98"/>
</g>
<!-- 1859951389552&#45;&gt;1859951390032 -->
<g id="edge15" class="edge">
<title>1859951389552&#45;&gt;1859951390032</title>
<path fill="none" stroke="black" d="M347,-746.2C344.16,-744.5 341.2,-742.65 338.07,-740.63"/>
<polygon fill="black" stroke="black" points="340.25,-737.87 330,-735.22 336.36,-743.69 340.25,-737.87"/>
</g>
</g>
</svg>
