<?xml version="1.0" encoding="UTF-8" standalone="no"?>
<!DOCTYPE svg PUBLIC "-//W3C//DTD SVG 1.1//EN"
 "http://www.w3.org/Graphics/SVG/1.1/DTD/svg11.dtd">
<!-- Generated by graphviz version 10.0.1 (20240210.2158)
 -->
<!-- Title: Example Pipeline_preview Pages: 1 -->
<svg width="522pt" height="867pt"
 viewBox="0.00 0.00 522.00 866.88" xmlns="http://www.w3.org/2000/svg" xmlns:xlink="http://www.w3.org/1999/xlink">
<g id="graph0" class="graph" transform="scale(1 1) rotate(0) translate(4 862.88)">
<title>Example Pipeline_preview</title>
<polygon fill="white" stroke="none" points="-4,4 -4,-862.88 518,-862.88 518,4 -4,4"/>
<g id="clust1" class="cluster">
<title>cluster_2278308939728</title>
<polygon fill="none" stroke="grey" points="90,-677.12 90,-850.88 266,-850.88 266,-677.12 90,-677.12"/>
<text text-anchor="middle" x="178" y="-833.58" font-family="Times New Roman,serif" font-size="14.00">Example Pipeline</text>
</g>
<g id="clust2" class="cluster">
<title>cluster_2278315939632</title>
<polygon fill="none" stroke="grey" points="14,-337.25 14,-669.12 174,-669.12 174,-337.25 14,-337.25"/>
<text text-anchor="middle" x="94" y="-651.83" font-family="Times New Roman,serif" font-size="14.00">Process node 1</text>
</g>
<g id="clust3" class="cluster">
<title>cluster_2278315940256</title>
<polygon fill="none" stroke="grey" points="32,-178 32,-329.25 188,-329.25 188,-178 32,-178"/>
<text text-anchor="middle" x="110" y="-311.95" font-family="Times New Roman,serif" font-size="14.00">Process node 6</text>
</g>
<g id="clust4" class="cluster">
<title>cluster_2278314317712</title>
<polygon fill="none" stroke="grey" points="8,-8 8,-158 212,-158 212,-8 8,-8"/>
</g>
<g id="clust5" class="cluster">
<title>cluster_2278315939872</title>
<polygon fill="none" stroke="grey" points="186,-591.62 186,-667.38 338,-667.38 338,-591.62 186,-591.62"/>
<text text-anchor="middle" x="262" y="-650.08" font-family="Times New Roman,serif" font-size="14.00">Process node 2</text>
</g>
<g id="clust6" class="cluster">
<title>cluster_2278315939968</title>
<polygon fill="none" stroke="grey" points="182,-504.38 182,-583.62 342,-583.62 342,-504.38 182,-504.38"/>
<text text-anchor="middle" x="262" y="-566.33" font-family="Times New Roman,serif" font-size="14.00">Process node 3</text>
</g>
<g id="clust7" class="cluster">
<title>cluster_2278315940160</title>
<polygon fill="none" stroke="grey" points="182,-417.12 182,-496.38 342,-496.38 342,-417.12 182,-417.12"/>
<text text-anchor="middle" x="262" y="-479.07" font-family="Times New Roman,serif" font-size="14.00">Process node 5</text>
</g>
<g id="clust8" class="cluster">
<title>cluster_2278315940064</title>
<polygon fill="none" stroke="grey" points="350,-504.38 350,-583.62 506,-583.62 506,-504.38 350,-504.38"/>
<text text-anchor="middle" x="428" y="-566.33" font-family="Times New Roman,serif" font-size="14.00">Process node 4</text>
</g>
<!-- 2278314317664 -->
<g id="node1" class="node">
<title>2278314317664</title>
<text text-anchor="middle" x="178" y="-801.83" font-family="Times New Roman,serif" font-size="14.00">ExampleContext:</text>
<text text-anchor="middle" x="178" y="-786.08" font-family="Times New Roman,serif" font-size="14.00"> &#45; input_x: float = 1.5</text>
<text text-anchor="middle" x="178" y="-770.33" font-family="Times New Roman,serif" font-size="14.00"> &#45; input_y: int = 8</text>
<text text-anchor="middle" x="178" y="-754.58" font-family="Times New Roman,serif" font-size="14.00"> &#45; result_step1: float = 0.0</text>
<text text-anchor="middle" x="178" y="-738.83" font-family="Times New Roman,serif" font-size="14.00"> &#45; result_step3: float = 0.0</text>
<text text-anchor="middle" x="178" y="-723.08" font-family="Times New Roman,serif" font-size="14.00"> &#45; result_step4: float = 0.0</text>
<text text-anchor="middle" x="178" y="-707.33" font-family="Times New Roman,serif" font-size="14.00"> &#45; result_step5: float = 0.0</text>
<text text-anchor="middle" x="178" y="-691.58" font-family="Times New Roman,serif" font-size="14.00"> &#45; result_step6: float = 0.0</text>
</g>
<!-- 2278315939680 -->
<g id="node2" class="node">
<title>2278315939680</title>
<path fill="none" stroke="darkgreen" d="M153.75,-637.38C153.75,-637.38 34.25,-637.38 34.25,-637.38 28.25,-637.38 22.25,-631.38 22.25,-625.38 22.25,-625.38 22.25,-609.88 22.25,-609.88 22.25,-603.88 28.25,-597.88 34.25,-597.88 34.25,-597.88 153.75,-597.88 153.75,-597.88 159.75,-597.88 165.75,-603.88 165.75,-609.88 165.75,-609.88 165.75,-625.38 165.75,-625.38 165.75,-631.38 159.75,-637.38 153.75,-637.38"/>
<text text-anchor="middle" x="94" y="-620.08" font-family="Times New Roman,serif" font-size="14.00">AdditionStep: Step 1.1</text>
<text text-anchor="middle" x="94" y="-604.33" font-family="Times New Roman,serif" font-size="14.00">result: 9.5</text>
</g>
<!-- 2278314317664&#45;&gt;2278315939680 -->
<g id="edge4" class="edge">
<title>2278314317664&#45;&gt;2278315939680</title>
<path fill="none" stroke="black" d="M136.25,-685.26C127.8,-671.94 119.34,-658.59 112.23,-647.38"/>
<polygon fill="black" stroke="black" points="115.24,-645.59 106.93,-639.02 109.33,-649.34 115.24,-645.59"/>
</g>
<!-- 2278315939920 -->
<g id="node10" class="node">
<title>2278315939920</title>
<path fill="none" stroke="grey" d="M318.38,-635.62C318.38,-635.62 205.62,-635.62 205.62,-635.62 199.62,-635.62 193.62,-629.62 193.62,-623.62 193.62,-623.62 193.62,-611.62 193.62,-611.62 193.62,-605.62 199.62,-599.62 205.62,-599.62 205.62,-599.62 318.38,-599.62 318.38,-599.62 324.38,-599.62 330.38,-605.62 330.38,-611.62 330.38,-611.62 330.38,-623.62 330.38,-623.62 330.38,-629.62 324.38,-635.62 318.38,-635.62"/>
<text text-anchor="middle" x="262" y="-612.2" font-family="Times New Roman,serif" font-size="14.00">SkipStep: Skip step 2</text>
</g>
<!-- 2278314317664&#45;&gt;2278315939920 -->
<g id="edge9" class="edge">
<title>2278314317664&#45;&gt;2278315939920</title>
<path fill="none" stroke="black" d="M219.75,-685.26C228.67,-671.2 237.6,-657.11 244.94,-645.53"/>
<polygon fill="black" stroke="black" points="247.73,-647.67 250.13,-637.35 241.82,-643.92 247.73,-647.67"/>
</g>
<!-- 2278315939728 -->
<g id="node3" class="node">
<title>2278315939728</title>
<path fill="none" stroke="darkgreen" d="M140.62,-550.12C140.62,-550.12 47.38,-550.12 47.38,-550.12 41.38,-550.12 35.38,-544.12 35.38,-538.12 35.38,-538.12 35.38,-526.12 35.38,-526.12 35.38,-520.12 41.38,-514.12 47.38,-514.12 47.38,-514.12 140.62,-514.12 140.62,-514.12 146.62,-514.12 152.62,-520.12 152.62,-526.12 152.62,-526.12 152.62,-538.12 152.62,-538.12 152.62,-544.12 146.62,-550.12 140.62,-550.12"/>
<text text-anchor="middle" x="94" y="-526.7" font-family="Times New Roman,serif" font-size="14.00">LogStep: Step 1.2</text>
</g>
<!-- 2278315939680&#45;&gt;2278315939728 -->
<g id="edge1" class="edge">
<title>2278315939680&#45;&gt;2278315939728</title>
<path fill="none" stroke="black" d="M94,-597.68C94,-587.07 94,-573.62 94,-561.75"/>
<polygon fill="black" stroke="black" points="97.5,-562.09 94,-552.09 90.5,-562.09 97.5,-562.09"/>
</g>
<!-- 2278315939776 -->
<!-- Square previous result -->
<g id="node4" class="node">
<title>2278315939776</title>
<path fill="none" stroke="darkgreen" d="M153.25,-472.5C153.25,-472.5 36.75,-472.5 36.75,-472.5 30.75,-472.5 24.75,-466.5 24.75,-460.5 24.75,-460.5 24.75,-429.25 24.75,-429.25 24.75,-423.25 30.75,-417.25 36.75,-417.25 36.75,-417.25 153.25,-417.25 153.25,-417.25 159.25,-417.25 165.25,-423.25 165.25,-429.25 165.25,-429.25 165.25,-460.5 165.25,-460.5 165.25,-466.5 159.25,-472.5 153.25,-472.5"/>
<text text-anchor="middle" x="95" y="-455.2" font-family="Times New Roman,serif" font-size="14.00">MutliplyStep: Step 1.3</text>
<text text-anchor="middle" x="95" y="-439.45" font-family="Times New Roman,serif" font-size="14.00">Square previous result</text>
<text text-anchor="middle" x="95" y="-423.7" font-family="Times New Roman,serif" font-size="14.00">result: 90.25</text>
</g>
<!-- 2278315939728&#45;&gt;2278315939776 -->
<g id="edge2" class="edge">
<title>2278315939728&#45;&gt;2278315939776</title>
<path fill="none" stroke="black" d="M94.2,-513.87C94.3,-505.32 94.43,-494.62 94.55,-484.26"/>
<polygon fill="black" stroke="black" points="98.05,-484.39 94.67,-474.35 91.05,-484.31 98.05,-484.39"/>
</g>
<!-- 2278315939824 -->
<g id="node5" class="node">
<title>2278315939824</title>
<path fill="none" stroke="darkgreen" d="M146.62,-381.25C146.62,-381.25 53.38,-381.25 53.38,-381.25 47.38,-381.25 41.38,-375.25 41.38,-369.25 41.38,-369.25 41.38,-357.25 41.38,-357.25 41.38,-351.25 47.38,-345.25 53.38,-345.25 53.38,-345.25 146.62,-345.25 146.62,-345.25 152.62,-345.25 158.62,-351.25 158.62,-357.25 158.62,-357.25 158.62,-369.25 158.62,-369.25 158.62,-375.25 152.62,-381.25 146.62,-381.25"/>
<text text-anchor="middle" x="100" y="-357.82" font-family="Times New Roman,serif" font-size="14.00">LogStep: Step 1.2</text>
</g>
<!-- 2278315939776&#45;&gt;2278315939824 -->
<g id="edge3" class="edge">
<title>2278315939776&#45;&gt;2278315939824</title>
<path fill="none" stroke="black" d="M96.69,-416.92C97.18,-409.13 97.72,-400.6 98.21,-392.72"/>
<polygon fill="black" stroke="black" points="101.69,-393.15 98.83,-382.95 94.71,-392.71 101.69,-393.15"/>
</g>
<!-- 2278315940352 -->
<g id="node6" class="node">
<title>2278315940352</title>
<path fill="none" stroke="darkgreen" d="M168.25,-297.5C168.25,-297.5 51.75,-297.5 51.75,-297.5 45.75,-297.5 39.75,-291.5 39.75,-285.5 39.75,-285.5 39.75,-270 39.75,-270 39.75,-264 45.75,-258 51.75,-258 51.75,-258 168.25,-258 168.25,-258 174.25,-258 180.25,-264 180.25,-270 180.25,-270 180.25,-285.5 180.25,-285.5 180.25,-291.5 174.25,-297.5 168.25,-297.5"/>
<text text-anchor="middle" x="110" y="-280.2" font-family="Times New Roman,serif" font-size="14.00">MutliplyStep: Step 6.1</text>
<text text-anchor="middle" x="110" y="-264.45" font-family="Times New Roman,serif" font-size="14.00">result: 111.625</text>
</g>
<!-- 2278315939824&#45;&gt;2278315940352 -->
<g id="edge7" class="edge">
<title>2278315939824&#45;&gt;2278315940352</title>
<path fill="none" stroke="black" d="M102.07,-344.95C103.31,-334.63 104.91,-321.24 106.35,-309.2"/>
<polygon fill="black" stroke="black" points="109.83,-309.62 107.54,-299.28 102.88,-308.79 109.83,-309.62"/>
</g>
<!-- 2278315940400 -->
<g id="node7" class="node">
<title>2278315940400</title>
<path fill="none" stroke="darkgreen" d="M133.38,-222C133.38,-222 86.62,-222 86.62,-222 80.62,-222 74.62,-216 74.62,-210 74.62,-210 74.62,-198 74.62,-198 74.62,-192 80.62,-186 86.62,-186 86.62,-186 133.38,-186 133.38,-186 139.38,-186 145.38,-192 145.38,-198 145.38,-198 145.38,-210 145.38,-210 145.38,-216 139.38,-222 133.38,-222"/>
<text text-anchor="middle" x="110" y="-198.57" font-family="Times New Roman,serif" font-size="14.00">LogStep: </text>
</g>
<!-- 2278315940352&#45;&gt;2278315940400 -->
<g id="edge5" class="edge">
<title>2278315940352&#45;&gt;2278315940400</title>
<path fill="none" stroke="black" d="M110,-257.52C110,-250.25 110,-241.79 110,-233.83"/>
<polygon fill="black" stroke="black" points="113.5,-233.83 110,-223.83 106.5,-233.83 113.5,-233.83"/>
</g>
<!-- 2278314549248 -->
<g id="node9" class="node">
<title>2278314549248</title>
<text text-anchor="middle" x="110" y="-132.7" font-family="Times New Roman,serif" font-size="14.00">ExampleContext:</text>
<text text-anchor="middle" x="110" y="-116.95" font-family="Times New Roman,serif" font-size="14.00"> &#45; input_x: float = 1.5</text>
<text text-anchor="middle" x="110" y="-101.2" font-family="Times New Roman,serif" font-size="14.00"> &#45; input_y: int = 8</text>
<text text-anchor="middle" x="110" y="-85.45" font-family="Times New Roman,serif" font-size="14.00"> &#45; result_step1: float = 90.25</text>
<text text-anchor="middle" x="110" y="-69.7" font-family="Times New Roman,serif" font-size="14.00"> &#45; result_step3: float = 9.5</text>
<text text-anchor="middle" x="110" y="-53.95" font-family="Times New Roman,serif" font-size="14.00"> &#45; result_step4: float = 2.25</text>
<text text-anchor="middle" x="110" y="-38.2" font-family="Times New Roman,serif" font-size="14.00"> &#45; result_step5: float = 11.75</text>
<text text-anchor="middle" x="110" y="-22.45" font-family="Times New Roman,serif" font-size="14.00"> &#45; result_step6: float = 111.625</text>
</g>
<!-- 2278315940400&#45;&gt;2278314549248 -->
<g id="edge8" class="edge">
<title>2278315940400&#45;&gt;2278314549248</title>
<path fill="none" stroke="black" d="M110,-185.7C110,-178.78 110,-170.29 110,-161.19"/>
<polygon fill="black" stroke="black" points="113.5,-161.37 110,-151.37 106.5,-161.37 113.5,-161.37"/>
</g>
<!-- 2278315940208 -->
<g id="node8" class="node">
<title>2278315940208</title>
<path fill="none" stroke="darkgreen" d="M321.75,-464.62C321.75,-464.62 202.25,-464.62 202.25,-464.62 196.25,-464.62 190.25,-458.62 190.25,-452.62 190.25,-452.62 190.25,-437.12 190.25,-437.12 190.25,-431.12 196.25,-425.12 202.25,-425.12 202.25,-425.12 321.75,-425.12 321.75,-425.12 327.75,-425.12 333.75,-431.12 333.75,-437.12 333.75,-437.12 333.75,-452.62 333.75,-452.62 333.75,-458.62 327.75,-464.62 321.75,-464.62"/>
<text text-anchor="middle" x="262" y="-447.32" font-family="Times New Roman,serif" font-size="14.00">AdditionStep: Step 5.1</text>
<text text-anchor="middle" x="262" y="-431.57" font-family="Times New Roman,serif" font-size="14.00">result: 11.75</text>
</g>
<!-- 2278315940208&#45;&gt;2278315940352 -->
<g id="edge6" class="edge">
<title>2278315940208&#45;&gt;2278315940352</title>
<path fill="none" stroke="black" d="M248.75,-424.88C233,-402.83 205.38,-365.84 178,-337.25 167.38,-326.16 154.84,-314.93 143.45,-305.31"/>
<polygon fill="black" stroke="black" points="145.71,-302.64 135.78,-298.95 141.24,-308.03 145.71,-302.64"/>
</g>
<!-- 2278315940016 -->
<g id="node11" class="node">
<title>2278315940016</title>
<path fill="none" stroke="darkgreen" d="M321.75,-551.88C321.75,-551.88 202.25,-551.88 202.25,-551.88 196.25,-551.88 190.25,-545.88 190.25,-539.88 190.25,-539.88 190.25,-524.38 190.25,-524.38 190.25,-518.38 196.25,-512.38 202.25,-512.38 202.25,-512.38 321.75,-512.38 321.75,-512.38 327.75,-512.38 333.75,-518.38 333.75,-524.38 333.75,-524.38 333.75,-539.88 333.75,-539.88 333.75,-545.88 327.75,-551.88 321.75,-551.88"/>
<text text-anchor="middle" x="262" y="-534.58" font-family="Times New Roman,serif" font-size="14.00">AdditionStep: Step 3.1</text>
<text text-anchor="middle" x="262" y="-518.83" font-family="Times New Roman,serif" font-size="14.00">result: 9.5</text>
</g>
<!-- 2278315939920&#45;&gt;2278315940016 -->
<g id="edge10" class="edge">
<title>2278315939920&#45;&gt;2278315940016</title>
<path fill="none" stroke="black" d="M262,-599.32C262,-589.01 262,-575.61 262,-563.57"/>
<polygon fill="black" stroke="black" points="265.5,-563.66 262,-553.66 258.5,-563.66 265.5,-563.66"/>
</g>
<!-- 2278315940112 -->
<g id="node12" class="node">
<title>2278315940112</title>
<path fill="none" stroke="darkgreen" d="M486.25,-551.88C486.25,-551.88 369.75,-551.88 369.75,-551.88 363.75,-551.88 357.75,-545.88 357.75,-539.88 357.75,-539.88 357.75,-524.38 357.75,-524.38 357.75,-518.38 363.75,-512.38 369.75,-512.38 369.75,-512.38 486.25,-512.38 486.25,-512.38 492.25,-512.38 498.25,-518.38 498.25,-524.38 498.25,-524.38 498.25,-539.88 498.25,-539.88 498.25,-545.88 492.25,-551.88 486.25,-551.88"/>
<text text-anchor="middle" x="428" y="-534.58" font-family="Times New Roman,serif" font-size="14.00">MutliplyStep: Step 4.1</text>
<text text-anchor="middle" x="428" y="-518.83" font-family="Times New Roman,serif" font-size="14.00">result: 2.25</text>
</g>
<!-- 2278315939920&#45;&gt;2278315940112 -->
<g id="edge13" class="edge">
<title>2278315939920&#45;&gt;2278315940112</title>
<path fill="none" stroke="black" d="M310.62,-599.22C322.38,-594.55 334.79,-589.23 346,-583.62 360.93,-576.17 376.67,-566.86 390.33,-558.26"/>
<polygon fill="black" stroke="black" points="392.05,-561.32 398.6,-552.99 388.29,-555.42 392.05,-561.32"/>
</g>
<!-- 2278315940016&#45;&gt;2278315940208 -->
<g id="edge11" class="edge">
<title>2278315940016&#45;&gt;2278315940208</title>
<path fill="none" stroke="black" d="M262,-512.21C262,-501.68 262,-488.34 262,-476.38"/>
<polygon fill="black" stroke="black" points="265.5,-476.55 262,-466.55 258.5,-476.55 265.5,-476.55"/>
</g>
<!-- 2278315940112&#45;&gt;2278315940208 -->
<g id="edge12" class="edge">
<title>2278315940112&#45;&gt;2278315940208</title>
<path fill="none" stroke="black" d="M390.75,-511.99C366.7,-499.64 335.19,-483.46 309.37,-470.2"/>
<polygon fill="black" stroke="black" points="311.26,-467.24 300.76,-465.78 308.06,-473.46 311.26,-467.24"/>
</g>
</g>
</svg>
