<?xml version="1.0" encoding="UTF-8" standalone="no"?>
<!DOCTYPE svg PUBLIC "-//W3C//DTD SVG 1.1//EN"
 "http://www.w3.org/Graphics/SVG/1.1/DTD/svg11.dtd">
<!-- Generated by graphviz version 10.0.1 (20240210.2158)
 -->
<!-- Title: Example Pipeline_preview Pages: 1 -->
<svg width="516pt" height="1152pt"
 viewBox="0.00 0.00 516.00 1152.12" xmlns="http://www.w3.org/2000/svg" xmlns:xlink="http://www.w3.org/1999/xlink">
<g id="graph0" class="graph" transform="scale(1 1) rotate(0) translate(4 1148.12)">
<title>Example Pipeline_preview</title>
<polygon fill="white" stroke="none" points="-4,4 -4,-1148.12 512,-1148.12 512,4 -4,4"/>
<g id="clust1" class="cluster">
<title>cluster_3001981425360</title>
<polygon fill="none" stroke="grey" points="33,-915.12 33,-1136.12 359,-1136.12 359,-915.12 33,-915.12"/>
<text text-anchor="middle" x="196" y="-1118.83" font-family="Times New Roman,serif" font-size="14.00">Example Pipeline</text>
</g>
<g id="clust2" class="cluster">
<title>cluster_3001981160576</title>
<polygon fill="none" stroke="grey" points="8,-575.25 8,-907.12 168,-907.12 168,-575.25 8,-575.25"/>
<text text-anchor="middle" x="88" y="-889.83" font-family="Times New Roman,serif" font-size="14.00">Process node 1</text>
</g>
<g id="clust3" class="cluster">
<title>cluster_3001981424736</title>
<polygon fill="none" stroke="grey" points="71,-237 71,-567.25 305,-567.25 305,-237 71,-237"/>
<text text-anchor="middle" x="188" y="-549.95" font-family="Times New Roman,serif" font-size="14.00">Process node 6</text>
</g>
<g id="clust4" class="cluster">
<title>cluster_3001981425984</title>
<polygon fill="none" stroke="grey" points="37,-8 37,-229 339,-229 339,-8 37,-8"/>
<text text-anchor="middle" x="188" y="-211.7" font-family="Times New Roman,serif" font-size="14.00">FINAL NODE</text>
</g>
<g id="clust5" class="cluster">
<title>cluster_3001981272144</title>
<polygon fill="none" stroke="grey" points="180,-829.62 180,-905.38 332,-905.38 332,-829.62 180,-829.62"/>
<text text-anchor="middle" x="256" y="-888.08" font-family="Times New Roman,serif" font-size="14.00">Process node 2</text>
</g>
<g id="clust6" class="cluster">
<title>cluster_3001981288176</title>
<polygon fill="none" stroke="grey" points="176,-742.38 176,-821.62 336,-821.62 336,-742.38 176,-742.38"/>
<text text-anchor="middle" x="256" y="-804.33" font-family="Times New Roman,serif" font-size="14.00">Process node 3</text>
</g>
<g id="clust7" class="cluster">
<title>cluster_3001981424256</title>
<polygon fill="none" stroke="grey" points="176,-575.25 176,-734.38 336,-734.38 336,-575.25 176,-575.25"/>
<text text-anchor="middle" x="256" y="-717.08" font-family="Times New Roman,serif" font-size="14.00">Process node 5</text>
</g>
<g id="clust8" class="cluster">
<title>cluster_3001981423824</title>
<polygon fill="none" stroke="grey" points="344,-742.38 344,-821.62 500,-821.62 500,-742.38 344,-742.38"/>
<text text-anchor="middle" x="422" y="-804.33" font-family="Times New Roman,serif" font-size="14.00">Process node 4</text>
</g>
<!-- 3001981425552 -->
<g id="node1" class="node">
<title>3001981425552</title>
<text text-anchor="middle" x="196" y="-1087.08" font-family="Times New Roman,serif" font-size="14.00">ExampleContext</text>
<text text-anchor="middle" x="196" y="-1071.33" font-family="Times New Roman,serif" font-size="14.00">thread_count=4</text>
<text text-anchor="middle" x="196" y="-1055.58" font-family="Times New Roman,serif" font-size="14.00"> input_x=0.0</text>
<text text-anchor="middle" x="196" y="-1039.83" font-family="Times New Roman,serif" font-size="14.00"> input_y=0.0</text>
<text text-anchor="middle" x="196" y="-1024.08" font-family="Times New Roman,serif" font-size="14.00"> result_step1=&lt;class &#39;tuyau.context.NoDefault&#39;&gt;</text>
<text text-anchor="middle" x="196" y="-1008.33" font-family="Times New Roman,serif" font-size="14.00"> result_step3=&lt;class &#39;tuyau.context.NoDefault&#39;&gt;</text>
<text text-anchor="middle" x="196" y="-992.58" font-family="Times New Roman,serif" font-size="14.00"> result_step4=&lt;class &#39;tuyau.context.NoDefault&#39;&gt;</text>
<text text-anchor="middle" x="196" y="-976.83" font-family="Times New Roman,serif" font-size="14.00"> result_step5=&lt;class &#39;tuyau.context.NoDefault&#39;&gt;</text>
<text text-anchor="middle" x="196" y="-961.08" font-family="Times New Roman,serif" font-size="14.00"> result_step6=&lt;class &#39;tuyau.context.NoDefault&#39;&gt;</text>
<text text-anchor="middle" x="196" y="-945.33" font-family="Times New Roman,serif" font-size="14.00"> result_step7=&lt;class &#39;tuyau.context.NoDefault&#39;&gt;</text>
<text text-anchor="middle" x="196" y="-929.58" font-family="Times New Roman,serif" font-size="14.00"> result_func_step=&lt;class &#39;tuyau.context.NoDefault&#39;&gt;</text>
</g>
<!-- 3001981166480 -->
<g id="node2" class="node">
<title>3001981166480</title>
<path fill="none" stroke="darkgreen" d="M147.75,-875.38C147.75,-875.38 28.25,-875.38 28.25,-875.38 22.25,-875.38 16.25,-869.38 16.25,-863.38 16.25,-863.38 16.25,-847.88 16.25,-847.88 16.25,-841.88 22.25,-835.88 28.25,-835.88 28.25,-835.88 147.75,-835.88 147.75,-835.88 153.75,-835.88 159.75,-841.88 159.75,-847.88 159.75,-847.88 159.75,-863.38 159.75,-863.38 159.75,-869.38 153.75,-875.38 147.75,-875.38"/>
<text text-anchor="middle" x="88" y="-858.08" font-family="Times New Roman,serif" font-size="14.00">AdditionStep: Step 1.1</text>
<text text-anchor="middle" x="88" y="-842.33" font-family="Times New Roman,serif" font-size="14.00">result: 9.5</text>
</g>
<!-- 3001981425552&#45;&gt;3001981166480 -->
<g id="edge4" class="edge">
<title>3001981425552&#45;&gt;3001981166480</title>
<path fill="none" stroke="black" d="M111.37,-915.12C110.35,-913.12 109.33,-911.12 108.31,-909.12"/>
<polygon fill="black" stroke="black" points="115.64,-915.79 107.98,-908.47 109.4,-918.97 115.64,-915.79"/>
</g>
<!-- 3001981288128 -->
<g id="node12" class="node">
<title>3001981288128</title>
<path fill="none" stroke="grey" d="M312.38,-873.62C312.38,-873.62 199.62,-873.62 199.62,-873.62 193.62,-873.62 187.62,-867.62 187.62,-861.62 187.62,-861.62 187.62,-849.62 187.62,-849.62 187.62,-843.62 193.62,-837.62 199.62,-837.62 199.62,-837.62 312.38,-837.62 312.38,-837.62 318.38,-837.62 324.38,-843.62 324.38,-849.62 324.38,-849.62 324.38,-861.62 324.38,-861.62 324.38,-867.62 318.38,-873.62 312.38,-873.62"/>
<text text-anchor="middle" x="256" y="-850.2" font-family="Times New Roman,serif" font-size="14.00">SkipStep: Skip step 2</text>
</g>
<!-- 3001981425552&#45;&gt;3001981288128 -->
<g id="edge11" class="edge">
<title>3001981425552&#45;&gt;3001981288128</title>
<path fill="none" stroke="black" d="M238.32,-915.12C239.12,-912.69 239.93,-910.25 240.74,-907.81"/>
<polygon fill="black" stroke="black" points="241.25,-917.4 241.07,-906.81 234.6,-915.21 241.25,-917.4"/>
</g>
<!-- 3001941533920 -->
<g id="node3" class="node">
<title>3001941533920</title>
<path fill="none" stroke="darkgreen" d="M134.62,-788.12C134.62,-788.12 41.38,-788.12 41.38,-788.12 35.38,-788.12 29.38,-782.12 29.38,-776.12 29.38,-776.12 29.38,-764.12 29.38,-764.12 29.38,-758.12 35.38,-752.12 41.38,-752.12 41.38,-752.12 134.62,-752.12 134.62,-752.12 140.62,-752.12 146.62,-758.12 146.62,-764.12 146.62,-764.12 146.62,-776.12 146.62,-776.12 146.62,-782.12 140.62,-788.12 134.62,-788.12"/>
<text text-anchor="middle" x="88" y="-764.7" font-family="Times New Roman,serif" font-size="14.00">LogStep: Step 1.2</text>
</g>
<!-- 3001981166480&#45;&gt;3001941533920 -->
<g id="edge1" class="edge">
<title>3001981166480&#45;&gt;3001941533920</title>
<path fill="none" stroke="black" d="M81.92,-835.43C79.99,-826.01 80.39,-817.38 83.14,-799.4"/>
<polygon fill="black" stroke="black" points="86.54,-800.31 84.67,-789.88 79.63,-799.2 86.54,-800.31"/>
</g>
<!-- 3001981173056 -->
<!-- Square previous result -->
<g id="node4" class="node">
<title>3001981173056</title>
<path fill="none" stroke="darkgreen" d="M147.25,-710.5C147.25,-710.5 30.75,-710.5 30.75,-710.5 24.75,-710.5 18.75,-704.5 18.75,-698.5 18.75,-698.5 18.75,-667.25 18.75,-667.25 18.75,-661.25 24.75,-655.25 30.75,-655.25 30.75,-655.25 147.25,-655.25 147.25,-655.25 153.25,-655.25 159.25,-661.25 159.25,-667.25 159.25,-667.25 159.25,-698.5 159.25,-698.5 159.25,-704.5 153.25,-710.5 147.25,-710.5"/>
<text text-anchor="middle" x="89" y="-693.2" font-family="Times New Roman,serif" font-size="14.00">MutliplyStep: Step 1.3</text>
<text text-anchor="middle" x="89" y="-677.45" font-family="Times New Roman,serif" font-size="14.00">Square previous result</text>
<text text-anchor="middle" x="89" y="-661.7" font-family="Times New Roman,serif" font-size="14.00">result: 90.25</text>
</g>
<!-- 3001941533920&#45;&gt;3001981173056 -->
<g id="edge2" class="edge">
<title>3001941533920&#45;&gt;3001981173056</title>
<path fill="none" stroke="black" d="M81.34,-751.67C78.52,-742.12 78.16,-734.71 80.34,-721.84"/>
<polygon fill="black" stroke="black" points="83.72,-722.78 82.21,-712.3 76.85,-721.43 83.72,-722.78"/>
</g>
<!-- 3001981173680 -->
<g id="node5" class="node">
<title>3001981173680</title>
<path fill="none" stroke="darkgreen" d="M141.62,-619.25C141.62,-619.25 48.38,-619.25 48.38,-619.25 42.38,-619.25 36.38,-613.25 36.38,-607.25 36.38,-607.25 36.38,-595.25 36.38,-595.25 36.38,-589.25 42.38,-583.25 48.38,-583.25 48.38,-583.25 141.62,-583.25 141.62,-583.25 147.62,-583.25 153.62,-589.25 153.62,-595.25 153.62,-595.25 153.62,-607.25 153.62,-607.25 153.62,-613.25 147.62,-619.25 141.62,-619.25"/>
<text text-anchor="middle" x="95" y="-595.83" font-family="Times New Roman,serif" font-size="14.00">LogStep: Step 1.2</text>
</g>
<!-- 3001981173056&#45;&gt;3001981173680 -->
<g id="edge3" class="edge">
<title>3001981173056&#45;&gt;3001981173680</title>
<path fill="none" stroke="black" d="M80.91,-654.91C80.03,-647.48 81.09,-640.65 84.39,-630.31"/>
<polygon fill="black" stroke="black" points="87.6,-631.73 87.56,-621.13 80.98,-629.44 87.6,-631.73"/>
</g>
<!-- 3001981425120 -->
<g id="node6" class="node">
<title>3001981425120</title>
<path fill="none" stroke="darkgreen" d="M247.75,-535.5C247.75,-535.5 128.25,-535.5 128.25,-535.5 122.25,-535.5 116.25,-529.5 116.25,-523.5 116.25,-523.5 116.25,-508 116.25,-508 116.25,-502 122.25,-496 128.25,-496 128.25,-496 247.75,-496 247.75,-496 253.75,-496 259.75,-502 259.75,-508 259.75,-508 259.75,-523.5 259.75,-523.5 259.75,-529.5 253.75,-535.5 247.75,-535.5"/>
<text text-anchor="middle" x="188" y="-518.2" font-family="Times New Roman,serif" font-size="14.00">AdditionStep: Step 6.1</text>
<text text-anchor="middle" x="188" y="-502.45" font-family="Times New Roman,serif" font-size="14.00">result: 102.0</text>
</g>
<!-- 3001981173680&#45;&gt;3001981425120 -->
<g id="edge8" class="edge">
<title>3001981173680&#45;&gt;3001981425120</title>
<path fill="none" stroke="black" d="M107.95,-575.25C109.2,-573.25 110.45,-571.25 111.7,-569.25"/>
<polygon fill="black" stroke="black" points="109.81,-578.87 112.14,-568.53 103.88,-575.16 109.81,-578.87"/>
</g>
<!-- 3001981425168 -->
<g id="node7" class="node">
<title>3001981425168</title>
<path fill="none" stroke="darkgreen" d="M245.12,-460C245.12,-460 130.88,-460 130.88,-460 124.88,-460 118.88,-454 118.88,-448 118.88,-448 118.88,-436 118.88,-436 118.88,-430 124.88,-424 130.88,-424 130.88,-424 245.12,-424 245.12,-424 251.12,-424 257.12,-430 257.12,-436 257.12,-436 257.12,-448 257.12,-448 257.12,-454 251.12,-460 245.12,-460"/>
<text text-anchor="middle" x="188" y="-436.57" font-family="Times New Roman,serif" font-size="14.00">LogStep: result_step6</text>
</g>
<!-- 3001981425120&#45;&gt;3001981425168 -->
<g id="edge5" class="edge">
<title>3001981425120&#45;&gt;3001981425168</title>
<path fill="none" stroke="black" d="M184.56,-495.71C182.75,-484.76 181.78,-477.41 181.63,-471.44"/>
<polygon fill="black" stroke="black" points="185.08,-472.13 182.37,-461.89 178.1,-471.59 185.08,-472.13"/>
</g>
<!-- 3001981160384 -->
<g id="node8" class="node">
<title>3001981160384</title>
<path fill="none" stroke="darkgreen" d="M284.5,-388C284.5,-388 91.5,-388 91.5,-388 85.5,-388 79.5,-382 79.5,-376 79.5,-376 79.5,-329 79.5,-329 79.5,-323 85.5,-317 91.5,-317 91.5,-317 284.5,-317 284.5,-317 290.5,-317 296.5,-323 296.5,-329 296.5,-329 296.5,-376 296.5,-376 296.5,-382 290.5,-388 284.5,-388"/>
<text text-anchor="middle" x="188" y="-370.7" font-family="Times New Roman,serif" font-size="14.00">Function Step: Function step</text>
<text text-anchor="middle" x="188" y="-354.95" font-family="Times New Roman,serif" font-size="14.00">function: do_something_in_process</text>
<text text-anchor="middle" x="188" y="-339.2" font-family="Times New Roman,serif" font-size="14.00">args: </text>
<text text-anchor="middle" x="188" y="-323.45" font-family="Times New Roman,serif" font-size="14.00">kwargs: a=11.75, b=102.0</text>
</g>
<!-- 3001981425168&#45;&gt;3001981160384 -->
<g id="edge6" class="edge">
<title>3001981425168&#45;&gt;3001981160384</title>
<path fill="none" stroke="black" d="M186.12,-423.62C185.14,-413.85 184.41,-406.13 183.93,-399.75"/>
<polygon fill="black" stroke="black" points="187.43,-399.63 183.39,-389.84 180.44,-400.01 187.43,-399.63"/>
</g>
<!-- 3001981425216 -->
<g id="node9" class="node">
<title>3001981425216</title>
<path fill="none" stroke="darkgreen" d="M257.88,-281C257.88,-281 118.12,-281 118.12,-281 112.12,-281 106.12,-275 106.12,-269 106.12,-269 106.12,-257 106.12,-257 106.12,-251 112.12,-245 118.12,-245 118.12,-245 257.88,-245 257.88,-245 263.88,-245 269.88,-251 269.88,-257 269.88,-257 269.88,-269 269.88,-269 269.88,-275 263.88,-281 257.88,-281"/>
<text text-anchor="middle" x="188" y="-257.57" font-family="Times New Roman,serif" font-size="14.00">LogStep: result_func_step</text>
</g>
<!-- 3001981160384&#45;&gt;3001981425216 -->
<g id="edge7" class="edge">
<title>3001981160384&#45;&gt;3001981425216</title>
<path fill="none" stroke="black" d="M185.59,-316.59C184.96,-306.12 184.69,-298.87 184.76,-292.8"/>
<polygon fill="black" stroke="black" points="188.25,-293.03 185.31,-282.86 181.26,-292.65 188.25,-293.03"/>
</g>
<!-- 3001981426224 -->
<g id="node11" class="node">
<title>3001981426224</title>
<text text-anchor="middle" x="188" y="-179.95" font-family="Times New Roman,serif" font-size="14.00">ExampleContext</text>
<text text-anchor="middle" x="188" y="-164.2" font-family="Times New Roman,serif" font-size="14.00">thread_count=2</text>
<text text-anchor="middle" x="188" y="-148.45" font-family="Times New Roman,serif" font-size="14.00"> input_x=1.5</text>
<text text-anchor="middle" x="188" y="-132.7" font-family="Times New Roman,serif" font-size="14.00"> input_y=8</text>
<text text-anchor="middle" x="188" y="-116.95" font-family="Times New Roman,serif" font-size="14.00"> result_step1=90.25</text>
<text text-anchor="middle" x="188" y="-101.2" font-family="Times New Roman,serif" font-size="14.00"> result_step3=9.5</text>
<text text-anchor="middle" x="188" y="-85.45" font-family="Times New Roman,serif" font-size="14.00"> result_step4=2.25</text>
<text text-anchor="middle" x="188" y="-69.7" font-family="Times New Roman,serif" font-size="14.00"> result_step5=11.75</text>
<text text-anchor="middle" x="188" y="-53.95" font-family="Times New Roman,serif" font-size="14.00"> result_step6=102.0</text>
<text text-anchor="middle" x="188" y="-38.2" font-family="Times New Roman,serif" font-size="14.00"> result_step7=&lt;class &#39;tuyau.context.NoDefault&#39;&gt;</text>
<text text-anchor="middle" x="188" y="-22.45" font-family="Times New Roman,serif" font-size="14.00"> result_func_step=10542.0625</text>
</g>
<!-- 3001981425216&#45;&gt;3001981426224 -->
<g id="edge10" class="edge">
<title>3001981425216&#45;&gt;3001981426224</title>
<path fill="none" stroke="black" d="M186.91,-237C186.78,-235 186.64,-233 186.51,-231"/>
<polygon fill="black" stroke="black" points="190.64,-240.25 186.47,-230.51 183.65,-240.72 190.64,-240.25"/>
</g>
<!-- 3001981424688 -->
<g id="node10" class="node">
<title>3001981424688</title>
<path fill="none" stroke="darkgreen" d="M311.12,-619.25C311.12,-619.25 196.88,-619.25 196.88,-619.25 190.88,-619.25 184.88,-613.25 184.88,-607.25 184.88,-607.25 184.88,-595.25 184.88,-595.25 184.88,-589.25 190.88,-583.25 196.88,-583.25 196.88,-583.25 311.12,-583.25 311.12,-583.25 317.12,-583.25 323.12,-589.25 323.12,-595.25 323.12,-595.25 323.12,-607.25 323.12,-607.25 323.12,-613.25 317.12,-619.25 311.12,-619.25"/>
<text text-anchor="middle" x="254" y="-595.83" font-family="Times New Roman,serif" font-size="14.00">LogStep: result_step5</text>
</g>
<!-- 3001981424688&#45;&gt;3001981425120 -->
<g id="edge9" class="edge">
<title>3001981424688&#45;&gt;3001981425120</title>
<path fill="none" stroke="black" d="M227.18,-575.25C227.18,-575.25 227.17,-575.25 227.17,-575.24"/>
<polygon fill="black" stroke="black" points="229.83,-572.95 220.3,-568.32 224.86,-577.88 229.83,-572.95"/>
</g>
<!-- 3001981423728 -->
<g id="node13" class="node">
<title>3001981423728</title>
<path fill="none" stroke="darkgreen" d="M315.75,-789.88C315.75,-789.88 196.25,-789.88 196.25,-789.88 190.25,-789.88 184.25,-783.88 184.25,-777.88 184.25,-777.88 184.25,-762.38 184.25,-762.38 184.25,-756.38 190.25,-750.38 196.25,-750.38 196.25,-750.38 315.75,-750.38 315.75,-750.38 321.75,-750.38 327.75,-756.38 327.75,-762.38 327.75,-762.38 327.75,-777.88 327.75,-777.88 327.75,-783.88 321.75,-789.88 315.75,-789.88"/>
<text text-anchor="middle" x="256" y="-772.58" font-family="Times New Roman,serif" font-size="14.00">AdditionStep: Step 3.1</text>
<text text-anchor="middle" x="256" y="-756.83" font-family="Times New Roman,serif" font-size="14.00">result: 9.5</text>
</g>
<!-- 3001981288128&#45;&gt;3001981423728 -->
<g id="edge12" class="edge">
<title>3001981288128&#45;&gt;3001981423728</title>
<path fill="none" stroke="black" d="M256.1,-829.62C256.1,-827.62 256.1,-825.62 256.1,-823.62"/>
<polygon fill="black" stroke="black" points="259.6,-833.14 256.1,-823.13 252.6,-833.13 259.6,-833.14"/>
</g>
<!-- 3001981424208 -->
<g id="node15" class="node">
<title>3001981424208</title>
<path fill="none" stroke="darkgreen" d="M480.25,-789.88C480.25,-789.88 363.75,-789.88 363.75,-789.88 357.75,-789.88 351.75,-783.88 351.75,-777.88 351.75,-777.88 351.75,-762.38 351.75,-762.38 351.75,-756.38 357.75,-750.38 363.75,-750.38 363.75,-750.38 480.25,-750.38 480.25,-750.38 486.25,-750.38 492.25,-756.38 492.25,-762.38 492.25,-762.38 492.25,-777.88 492.25,-777.88 492.25,-783.88 486.25,-789.88 480.25,-789.88"/>
<text text-anchor="middle" x="422" y="-772.58" font-family="Times New Roman,serif" font-size="14.00">MutliplyStep: Step 4.1</text>
<text text-anchor="middle" x="422" y="-756.83" font-family="Times New Roman,serif" font-size="14.00">result: 2.25</text>
</g>
<!-- 3001981288128&#45;&gt;3001981424208 -->
<g id="edge16" class="edge">
<title>3001981288128&#45;&gt;3001981424208</title>
<path fill="none" stroke="black" d="M332,-845.78C343.94,-842.24 353.77,-837.12 364.17,-829.03"/>
<polygon fill="black" stroke="black" points="366.42,-831.71 371.82,-822.6 361.92,-826.35 366.42,-831.71"/>
</g>
<!-- 3001981424640 -->
<g id="node14" class="node">
<title>3001981424640</title>
<path fill="none" stroke="darkgreen" d="M315.75,-702.62C315.75,-702.62 196.25,-702.62 196.25,-702.62 190.25,-702.62 184.25,-696.62 184.25,-690.62 184.25,-690.62 184.25,-675.12 184.25,-675.12 184.25,-669.12 190.25,-663.12 196.25,-663.12 196.25,-663.12 315.75,-663.12 315.75,-663.12 321.75,-663.12 327.75,-669.12 327.75,-675.12 327.75,-675.12 327.75,-690.62 327.75,-690.62 327.75,-696.62 321.75,-702.62 315.75,-702.62"/>
<text text-anchor="middle" x="256" y="-685.33" font-family="Times New Roman,serif" font-size="14.00">AdditionStep: Step 5.1</text>
<text text-anchor="middle" x="256" y="-669.58" font-family="Times New Roman,serif" font-size="14.00">result: 11.75</text>
</g>
<!-- 3001981423728&#45;&gt;3001981424640 -->
<g id="edge14" class="edge">
<title>3001981423728&#45;&gt;3001981424640</title>
<path fill="none" stroke="black" d="M256.16,-742.38C256.16,-740.37 256.16,-738.37 256.16,-736.37"/>
<polygon fill="black" stroke="black" points="259.66,-745.89 256.17,-735.89 252.66,-745.88 259.66,-745.89"/>
</g>
<!-- 3001981424640&#45;&gt;3001981424688 -->
<g id="edge13" class="edge">
<title>3001981424640&#45;&gt;3001981424688</title>
<path fill="none" stroke="black" d="M255.4,-662.99C255.19,-655.32 254.99,-646.94 254.64,-630.73"/>
<polygon fill="black" stroke="black" points="258.15,-630.99 254.43,-621.07 251.15,-631.14 258.15,-630.99"/>
</g>
<!-- 3001981424208&#45;&gt;3001981424640 -->
<g id="edge15" class="edge">
<title>3001981424208&#45;&gt;3001981424640</title>
<path fill="none" stroke="black" d="M344,-746.33C341.11,-744.61 338.09,-742.73 334.91,-740.65"/>
<polygon fill="black" stroke="black" points="337.06,-737.88 326.8,-735.22 333.16,-743.7 337.06,-737.88"/>
</g>
</g>
</svg>
