<?xml version="1.0" encoding="UTF-8" standalone="no"?>
<!DOCTYPE svg PUBLIC "-//W3C//DTD SVG 1.1//EN"
 "http://www.w3.org/Graphics/SVG/1.1/DTD/svg11.dtd">
<!-- Generated by graphviz version 10.0.1 (20240210.2158)
 -->
<!-- Title: Example Pipeline_preview Pages: 1 -->
<svg width="491pt" height="867pt"
 viewBox="0.00 0.00 491.00 866.88" xmlns="http://www.w3.org/2000/svg" xmlns:xlink="http://www.w3.org/1999/xlink">
<g id="graph0" class="graph" transform="scale(1 1) rotate(0) translate(4 862.88)">
<title>Example Pipeline_preview</title>
<polygon fill="white" stroke="none" points="-4,4 -4,-862.88 487,-862.88 487,4 -4,4"/>
<g id="clust1" class="cluster">
<title>cluster_2307397160016</title>
<polygon fill="none" stroke="grey" points="89,-677.12 89,-850.88 265,-850.88 265,-677.12 89,-677.12"/>
<text text-anchor="middle" x="177" y="-833.58" font-family="Times New Roman,serif" font-size="14.00">Example Pipeline</text>
</g>
<g id="clust2" class="cluster">
<title>cluster_2307404327072</title>
<polygon fill="none" stroke="grey" points="11,-337.25 11,-669.12 167,-669.12 167,-337.25 11,-337.25"/>
<text text-anchor="middle" x="89" y="-651.83" font-family="Times New Roman,serif" font-size="14.00">Process node 1</text>
</g>
<g id="clust3" class="cluster">
<title>cluster_2307404327696</title>
<polygon fill="none" stroke="grey" points="15,-178 15,-329.25 177,-329.25 177,-178 15,-178"/>
<text text-anchor="middle" x="96" y="-311.95" font-family="Times New Roman,serif" font-size="14.00">Final process node</text>
</g>
<g id="clust4" class="cluster">
<title>cluster_2307404326880</title>
<polygon fill="none" stroke="grey" points="8,-8 8,-158 184,-158 184,-8 8,-8"/>
</g>
<g id="clust5" class="cluster">
<title>cluster_2307404327312</title>
<polygon fill="none" stroke="grey" points="175,-591.62 175,-667.38 327,-667.38 327,-591.62 175,-591.62"/>
<text text-anchor="middle" x="251" y="-650.08" font-family="Times New Roman,serif" font-size="14.00">Process node 2</text>
</g>
<g id="clust6" class="cluster">
<title>cluster_2307404327408</title>
<polygon fill="none" stroke="grey" points="175,-504.38 175,-583.62 311,-583.62 311,-504.38 175,-504.38"/>
<text text-anchor="middle" x="243" y="-566.33" font-family="Times New Roman,serif" font-size="14.00">Process node 3</text>
</g>
<g id="clust7" class="cluster">
<title>cluster_2307404327600</title>
<polygon fill="none" stroke="grey" points="175,-417.12 175,-496.38 311,-496.38 311,-417.12 175,-417.12"/>
<text text-anchor="middle" x="243" y="-479.07" font-family="Times New Roman,serif" font-size="14.00">Process node </text>
</g>
<g id="clust8" class="cluster">
<title>cluster_2307404327504</title>
<polygon fill="none" stroke="grey" points="319,-504.38 319,-583.62 475,-583.62 475,-504.38 319,-504.38"/>
<text text-anchor="middle" x="397" y="-566.33" font-family="Times New Roman,serif" font-size="14.00">Process node 4</text>
</g>
<!-- 2307404326640 -->
<g id="node1" class="node">
<title>2307404326640</title>
<text text-anchor="middle" x="177" y="-801.83" font-family="Times New Roman,serif" font-size="14.00">ExampleContext:</text>
<text text-anchor="middle" x="177" y="-786.08" font-family="Times New Roman,serif" font-size="14.00"> &#45; input_x: float = 0.0</text>
<text text-anchor="middle" x="177" y="-770.33" font-family="Times New Roman,serif" font-size="14.00"> &#45; input_y: float = 0.0</text>
<text text-anchor="middle" x="177" y="-754.58" font-family="Times New Roman,serif" font-size="14.00"> &#45; result_step1: float = 0.0</text>
<text text-anchor="middle" x="177" y="-738.83" font-family="Times New Roman,serif" font-size="14.00"> &#45; result_step3: float = 0.0</text>
<text text-anchor="middle" x="177" y="-723.08" font-family="Times New Roman,serif" font-size="14.00"> &#45; result_step4: float = 0.0</text>
<text text-anchor="middle" x="177" y="-707.33" font-family="Times New Roman,serif" font-size="14.00"> &#45; result_step5: float = 0.0</text>
<text text-anchor="middle" x="177" y="-691.58" font-family="Times New Roman,serif" font-size="14.00"> &#45; result_step6: float = 0.0</text>
</g>
<!-- 2307404327120 -->
<g id="node2" class="node">
<title>2307404327120</title>
<path fill="none" stroke="black" d="M143.75,-637.38C143.75,-637.38 48.25,-637.38 48.25,-637.38 42.25,-637.38 36.25,-631.38 36.25,-625.38 36.25,-625.38 36.25,-609.88 36.25,-609.88 36.25,-603.88 42.25,-597.88 48.25,-597.88 48.25,-597.88 143.75,-597.88 143.75,-597.88 149.75,-597.88 155.75,-603.88 155.75,-609.88 155.75,-609.88 155.75,-625.38 155.75,-625.38 155.75,-631.38 149.75,-637.38 143.75,-637.38"/>
<text text-anchor="middle" x="96" y="-620.08" font-family="Times New Roman,serif" font-size="14.00">AddStep: Step 1.1</text>
<text text-anchor="middle" x="96" y="-604.33" font-family="Times New Roman,serif" font-size="14.00">result: None</text>
</g>
<!-- 2307404326640&#45;&gt;2307404327120 -->
<g id="edge4" class="edge">
<title>2307404326640&#45;&gt;2307404327120</title>
<path fill="none" stroke="black" d="M115.33,-677.12C114.43,-675.12 113.53,-673.12 112.63,-671.12"/>
<polygon fill="black" stroke="black" points="119.65,-678.19 112.35,-670.5 113.27,-681.06 119.65,-678.19"/>
</g>
<!-- 2307404327360 -->
<g id="node10" class="node">
<title>2307404327360</title>
<path fill="none" stroke="black" d="M307.38,-635.62C307.38,-635.62 194.62,-635.62 194.62,-635.62 188.62,-635.62 182.62,-629.62 182.62,-623.62 182.62,-623.62 182.62,-611.62 182.62,-611.62 182.62,-605.62 188.62,-599.62 194.62,-599.62 194.62,-599.62 307.38,-599.62 307.38,-599.62 313.38,-599.62 319.38,-605.62 319.38,-611.62 319.38,-611.62 319.38,-623.62 319.38,-623.62 319.38,-629.62 313.38,-635.62 307.38,-635.62"/>
<text text-anchor="middle" x="251" y="-612.2" font-family="Times New Roman,serif" font-size="14.00">SkipStep: Skip step 2</text>
</g>
<!-- 2307404326640&#45;&gt;2307404327360 -->
<g id="edge9" class="edge">
<title>2307404326640&#45;&gt;2307404327360</title>
<path fill="none" stroke="black" d="M225.88,-677.12C226.99,-674.69 228.11,-672.25 229.22,-669.81"/>
<polygon fill="black" stroke="black" points="228.73,-679.3 229.7,-668.75 222.37,-676.39 228.73,-679.3"/>
</g>
<!-- 2307404327168 -->
<g id="node3" class="node">
<title>2307404327168</title>
<path fill="none" stroke="black" d="M137.62,-550.12C137.62,-550.12 44.38,-550.12 44.38,-550.12 38.38,-550.12 32.38,-544.12 32.38,-538.12 32.38,-538.12 32.38,-526.12 32.38,-526.12 32.38,-520.12 38.38,-514.12 44.38,-514.12 44.38,-514.12 137.62,-514.12 137.62,-514.12 143.62,-514.12 149.62,-520.12 149.62,-526.12 149.62,-526.12 149.62,-538.12 149.62,-538.12 149.62,-544.12 143.62,-550.12 137.62,-550.12"/>
<text text-anchor="middle" x="91" y="-526.7" font-family="Times New Roman,serif" font-size="14.00">LogStep: Step 1.2</text>
</g>
<!-- 2307404327120&#45;&gt;2307404327168 -->
<g id="edge1" class="edge">
<title>2307404327120&#45;&gt;2307404327168</title>
<path fill="none" stroke="black" d="M87.13,-597.55C83.6,-587.38 83.42,-579.05 85.96,-561.84"/>
<polygon fill="black" stroke="black" points="89.39,-562.53 87.52,-552.1 82.48,-561.42 89.39,-562.53"/>
</g>
<!-- 2307404327216 -->
<!-- Square previous result -->
<g id="node4" class="node">
<title>2307404327216</title>
<path fill="none" stroke="black" d="M147.25,-472.5C147.25,-472.5 30.75,-472.5 30.75,-472.5 24.75,-472.5 18.75,-466.5 18.75,-460.5 18.75,-460.5 18.75,-429.25 18.75,-429.25 18.75,-423.25 24.75,-417.25 30.75,-417.25 30.75,-417.25 147.25,-417.25 147.25,-417.25 153.25,-417.25 159.25,-423.25 159.25,-429.25 159.25,-429.25 159.25,-460.5 159.25,-460.5 159.25,-466.5 153.25,-472.5 147.25,-472.5"/>
<text text-anchor="middle" x="89" y="-455.2" font-family="Times New Roman,serif" font-size="14.00">MutliplyStep: Step 1.3</text>
<text text-anchor="middle" x="89" y="-439.45" font-family="Times New Roman,serif" font-size="14.00">Square previous result</text>
<text text-anchor="middle" x="89" y="-423.7" font-family="Times New Roman,serif" font-size="14.00">result: None</text>
</g>
<!-- 2307404327168&#45;&gt;2307404327216 -->
<g id="edge2" class="edge">
<title>2307404327168&#45;&gt;2307404327216</title>
<path fill="none" stroke="black" d="M82.85,-513.9C78.21,-502.49 76.8,-494.96 78.47,-483.99"/>
<polygon fill="black" stroke="black" points="81.89,-484.72 80.54,-474.21 75.04,-483.27 81.89,-484.72"/>
</g>
<!-- 2307404327264 -->
<g id="node5" class="node">
<title>2307404327264</title>
<path fill="none" stroke="black" d="M137.62,-381.25C137.62,-381.25 44.38,-381.25 44.38,-381.25 38.38,-381.25 32.38,-375.25 32.38,-369.25 32.38,-369.25 32.38,-357.25 32.38,-357.25 32.38,-351.25 38.38,-345.25 44.38,-345.25 44.38,-345.25 137.62,-345.25 137.62,-345.25 143.62,-345.25 149.62,-351.25 149.62,-357.25 149.62,-357.25 149.62,-369.25 149.62,-369.25 149.62,-375.25 143.62,-381.25 137.62,-381.25"/>
<text text-anchor="middle" x="91" y="-357.82" font-family="Times New Roman,serif" font-size="14.00">LogStep: Step 1.2</text>
</g>
<!-- 2307404327216&#45;&gt;2307404327264 -->
<g id="edge3" class="edge">
<title>2307404327216&#45;&gt;2307404327264</title>
<path fill="none" stroke="black" d="M79.96,-416.97C77.45,-407.19 77.22,-400.44 79.39,-392.2"/>
<polygon fill="black" stroke="black" points="82.61,-393.59 82.54,-383 75.98,-391.32 82.61,-393.59"/>
</g>
<!-- 2307404327744 -->
<g id="node6" class="node">
<title>2307404327744</title>
<path fill="none" stroke="black" d="M154.25,-297.5C154.25,-297.5 37.75,-297.5 37.75,-297.5 31.75,-297.5 25.75,-291.5 25.75,-285.5 25.75,-285.5 25.75,-270 25.75,-270 25.75,-264 31.75,-258 37.75,-258 37.75,-258 154.25,-258 154.25,-258 160.25,-258 166.25,-264 166.25,-270 166.25,-270 166.25,-285.5 166.25,-285.5 166.25,-291.5 160.25,-297.5 154.25,-297.5"/>
<text text-anchor="middle" x="96" y="-280.2" font-family="Times New Roman,serif" font-size="14.00">MutliplyStep: Step 6.1</text>
<text text-anchor="middle" x="96" y="-264.45" font-family="Times New Roman,serif" font-size="14.00">result: None</text>
</g>
<!-- 2307404327264&#45;&gt;2307404327744 -->
<g id="edge7" class="edge">
<title>2307404327264&#45;&gt;2307404327744</title>
<path fill="none" stroke="black" d="M86.24,-337.25C85.75,-335.25 85.25,-333.25 84.75,-331.25"/>
<polygon fill="black" stroke="black" points="90.43,-339.58 84.62,-330.72 83.63,-341.26 90.43,-339.58"/>
</g>
<!-- 2307404327792 -->
<g id="node7" class="node">
<title>2307404327792</title>
<path fill="none" stroke="black" d="M157.25,-222C157.25,-222 34.75,-222 34.75,-222 28.75,-222 22.75,-216 22.75,-210 22.75,-210 22.75,-198 22.75,-198 22.75,-192 28.75,-186 34.75,-186 34.75,-186 157.25,-186 157.25,-186 163.25,-186 169.25,-192 169.25,-198 169.25,-198 169.25,-210 169.25,-210 169.25,-216 163.25,-222 157.25,-222"/>
<text text-anchor="middle" x="96" y="-198.57" font-family="Times New Roman,serif" font-size="14.00">LogStep: Final logging!</text>
</g>
<!-- 2307404327744&#45;&gt;2307404327792 -->
<g id="edge5" class="edge">
<title>2307404327744&#45;&gt;2307404327792</title>
<path fill="none" stroke="black" d="M92.36,-257.86C90.43,-246.84 89.4,-239.49 89.26,-233.48"/>
<polygon fill="black" stroke="black" points="92.72,-234.06 90.1,-223.79 85.75,-233.45 92.72,-234.06"/>
</g>
<!-- 2307404326832 -->
<g id="node9" class="node">
<title>2307404326832</title>
<text text-anchor="middle" x="96" y="-132.7" font-family="Times New Roman,serif" font-size="14.00">ExampleContext:</text>
<text text-anchor="middle" x="96" y="-116.95" font-family="Times New Roman,serif" font-size="14.00"> &#45; input_x: float = 0.0</text>
<text text-anchor="middle" x="96" y="-101.2" font-family="Times New Roman,serif" font-size="14.00"> &#45; input_y: float = 0.0</text>
<text text-anchor="middle" x="96" y="-85.45" font-family="Times New Roman,serif" font-size="14.00"> &#45; result_step1: float = 0.0</text>
<text text-anchor="middle" x="96" y="-69.7" font-family="Times New Roman,serif" font-size="14.00"> &#45; result_step3: float = 0.0</text>
<text text-anchor="middle" x="96" y="-53.95" font-family="Times New Roman,serif" font-size="14.00"> &#45; result_step4: float = 0.0</text>
<text text-anchor="middle" x="96" y="-38.2" font-family="Times New Roman,serif" font-size="14.00"> &#45; result_step5: float = 0.0</text>
<text text-anchor="middle" x="96" y="-22.45" font-family="Times New Roman,serif" font-size="14.00"> &#45; result_step6: float = 0.0</text>
</g>
<!-- 2307404327792&#45;&gt;2307404326832 -->
<g id="edge8" class="edge">
<title>2307404327792&#45;&gt;2307404326832</title>
<path fill="none" stroke="black" d="M92.55,-178C91.73,-171.73 91.02,-166.1 90.41,-161.01"/>
<polygon fill="black" stroke="black" points="96.85,-167.24 89.73,-159.39 90.4,-169.97 96.85,-167.24"/>
</g>
<!-- 2307404327648 -->
<g id="node8" class="node">
<title>2307404327648</title>
<path fill="none" stroke="black" d="M290.75,-464.62C290.75,-464.62 195.25,-464.62 195.25,-464.62 189.25,-464.62 183.25,-458.62 183.25,-452.62 183.25,-452.62 183.25,-437.12 183.25,-437.12 183.25,-431.12 189.25,-425.12 195.25,-425.12 195.25,-425.12 290.75,-425.12 290.75,-425.12 296.75,-425.12 302.75,-431.12 302.75,-437.12 302.75,-437.12 302.75,-452.62 302.75,-452.62 302.75,-458.62 296.75,-464.62 290.75,-464.62"/>
<text text-anchor="middle" x="243" y="-447.32" font-family="Times New Roman,serif" font-size="14.00">AddStep: Step 5.1</text>
<text text-anchor="middle" x="243" y="-431.57" font-family="Times New Roman,serif" font-size="14.00">result: None</text>
</g>
<!-- 2307404327648&#45;&gt;2307404327744 -->
<g id="edge6" class="edge">
<title>2307404327648&#45;&gt;2307404327744</title>
<path fill="none" stroke="black" d="M217.28,-417.13C180.6,-377.54 159.96,-355.11 144.79,-337.85"/>
<polygon fill="black" stroke="black" points="147.52,-335.64 138.32,-330.39 142.23,-340.24 147.52,-335.64"/>
</g>
<!-- 2307404327456 -->
<g id="node11" class="node">
<title>2307404327456</title>
<path fill="none" stroke="black" d="M290.75,-551.88C290.75,-551.88 195.25,-551.88 195.25,-551.88 189.25,-551.88 183.25,-545.88 183.25,-539.88 183.25,-539.88 183.25,-524.38 183.25,-524.38 183.25,-518.38 189.25,-512.38 195.25,-512.38 195.25,-512.38 290.75,-512.38 290.75,-512.38 296.75,-512.38 302.75,-518.38 302.75,-524.38 302.75,-524.38 302.75,-539.88 302.75,-539.88 302.75,-545.88 296.75,-551.88 290.75,-551.88"/>
<text text-anchor="middle" x="243" y="-534.58" font-family="Times New Roman,serif" font-size="14.00">AddStep: Step 3.1</text>
<text text-anchor="middle" x="243" y="-518.83" font-family="Times New Roman,serif" font-size="14.00">result: None</text>
</g>
<!-- 2307404327360&#45;&gt;2307404327456 -->
<g id="edge10" class="edge">
<title>2307404327360&#45;&gt;2307404327456</title>
<path fill="none" stroke="black" d="M248.2,-591.62C247.92,-589.62 247.65,-587.62 247.38,-585.62"/>
<polygon fill="black" stroke="black" points="252.13,-594.56 247.32,-585.12 245.19,-595.5 252.13,-594.56"/>
</g>
<!-- 2307404327552 -->
<g id="node12" class="node">
<title>2307404327552</title>
<path fill="none" stroke="black" d="M455.25,-551.88C455.25,-551.88 338.75,-551.88 338.75,-551.88 332.75,-551.88 326.75,-545.88 326.75,-539.88 326.75,-539.88 326.75,-524.38 326.75,-524.38 326.75,-518.38 332.75,-512.38 338.75,-512.38 338.75,-512.38 455.25,-512.38 455.25,-512.38 461.25,-512.38 467.25,-518.38 467.25,-524.38 467.25,-524.38 467.25,-539.88 467.25,-539.88 467.25,-545.88 461.25,-551.88 455.25,-551.88"/>
<text text-anchor="middle" x="397" y="-534.58" font-family="Times New Roman,serif" font-size="14.00">MutliplyStep: Step 4.1</text>
<text text-anchor="middle" x="397" y="-518.83" font-family="Times New Roman,serif" font-size="14.00">result: None</text>
</g>
<!-- 2307404327360&#45;&gt;2307404327552 -->
<g id="edge13" class="edge">
<title>2307404327360&#45;&gt;2307404327552</title>
<path fill="none" stroke="black" d="M327,-601.72C333.71,-598.87 339.62,-595.41 345.4,-590.93"/>
<polygon fill="black" stroke="black" points="347.43,-593.81 352.69,-584.61 342.84,-588.52 347.43,-593.81"/>
</g>
<!-- 2307404327456&#45;&gt;2307404327648 -->
<g id="edge11" class="edge">
<title>2307404327456&#45;&gt;2307404327648</title>
<path fill="none" stroke="black" d="M243.32,-504.38C243.32,-502.37 243.32,-500.37 243.32,-498.37"/>
<polygon fill="black" stroke="black" points="246.82,-507.89 243.32,-497.89 239.82,-507.88 246.82,-507.89"/>
</g>
<!-- 2307404327552&#45;&gt;2307404327648 -->
<g id="edge12" class="edge">
<title>2307404327552&#45;&gt;2307404327648</title>
<path fill="none" stroke="black" d="M341.06,-504.38C335.11,-501 328.49,-497.12 320.61,-492.41"/>
<polygon fill="black" stroke="black" points="322.67,-489.56 312.29,-487.4 319.05,-495.56 322.67,-489.56"/>
</g>
</g>
</svg>
