<?xml version="1.0" encoding="UTF-8" standalone="no"?>
<!DOCTYPE svg PUBLIC "-//W3C//DTD SVG 1.1//EN"
 "http://www.w3.org/Graphics/SVG/1.1/DTD/svg11.dtd">
<!-- Generated by graphviz version 10.0.1 (20240210.2158)
 -->
<!-- Title: Example Pipeline_preview Pages: 1 -->
<svg width="518pt" height="867pt"
 viewBox="0.00 0.00 518.00 866.88" xmlns="http://www.w3.org/2000/svg" xmlns:xlink="http://www.w3.org/1999/xlink">
<g id="graph0" class="graph" transform="scale(1 1) rotate(0) translate(4 862.88)">
<title>Example Pipeline_preview</title>
<polygon fill="white" stroke="none" points="-4,4 -4,-862.88 514,-862.88 514,4 -4,4"/>
<g id="clust1" class="cluster">
<title>cluster_1980341652560</title>
<polygon fill="none" stroke="grey" points="86,-677.12 86,-850.88 262,-850.88 262,-677.12 86,-677.12"/>
<text text-anchor="middle" x="174" y="-833.58" font-family="Times New Roman,serif" font-size="14.00">Example Pipeline</text>
</g>
<g id="clust2" class="cluster">
<title>cluster_1980380828768</title>
<polygon fill="none" stroke="grey" points="10,-337.25 10,-669.12 170,-669.12 170,-337.25 10,-337.25"/>
<text text-anchor="middle" x="90" y="-651.83" font-family="Times New Roman,serif" font-size="14.00">Process node 1</text>
</g>
<g id="clust3" class="cluster">
<title>cluster_1980380829632</title>
<polygon fill="none" stroke="grey" points="18,-178 18,-329.25 174,-329.25 174,-178 18,-178"/>
<text text-anchor="middle" x="96" y="-311.95" font-family="Times New Roman,serif" font-size="14.00">Process node 6</text>
</g>
<g id="clust4" class="cluster">
<title>cluster_1980348255408</title>
<polygon fill="none" stroke="grey" points="8,-8 8,-158 184,-158 184,-8 8,-8"/>
</g>
<g id="clust5" class="cluster">
<title>cluster_1980380829248</title>
<polygon fill="none" stroke="grey" points="182,-591.62 182,-667.38 334,-667.38 334,-591.62 182,-591.62"/>
<text text-anchor="middle" x="258" y="-650.08" font-family="Times New Roman,serif" font-size="14.00">Process node 2</text>
</g>
<g id="clust6" class="cluster">
<title>cluster_1980380829344</title>
<polygon fill="none" stroke="grey" points="178,-504.38 178,-583.62 338,-583.62 338,-504.38 178,-504.38"/>
<text text-anchor="middle" x="258" y="-566.33" font-family="Times New Roman,serif" font-size="14.00">Process node 3</text>
</g>
<g id="clust7" class="cluster">
<title>cluster_1980380829536</title>
<polygon fill="none" stroke="grey" points="178,-417.12 178,-496.38 338,-496.38 338,-417.12 178,-417.12"/>
<text text-anchor="middle" x="258" y="-479.07" font-family="Times New Roman,serif" font-size="14.00">Process node 5</text>
</g>
<g id="clust8" class="cluster">
<title>cluster_1980380829440</title>
<polygon fill="none" stroke="grey" points="346,-504.38 346,-583.62 502,-583.62 502,-504.38 346,-504.38"/>
<text text-anchor="middle" x="424" y="-566.33" font-family="Times New Roman,serif" font-size="14.00">Process node 4</text>
</g>
<!-- 1980375615968 -->
<g id="node1" class="node">
<title>1980375615968</title>
<text text-anchor="middle" x="174" y="-801.83" font-family="Times New Roman,serif" font-size="14.00">ExampleContext:</text>
<text text-anchor="middle" x="174" y="-786.08" font-family="Times New Roman,serif" font-size="14.00"> &#45; input_x: float = 0.0</text>
<text text-anchor="middle" x="174" y="-770.33" font-family="Times New Roman,serif" font-size="14.00"> &#45; input_y: float = 0.0</text>
<text text-anchor="middle" x="174" y="-754.58" font-family="Times New Roman,serif" font-size="14.00"> &#45; result_step1: float = 0.0</text>
<text text-anchor="middle" x="174" y="-738.83" font-family="Times New Roman,serif" font-size="14.00"> &#45; result_step3: float = 0.0</text>
<text text-anchor="middle" x="174" y="-723.08" font-family="Times New Roman,serif" font-size="14.00"> &#45; result_step4: float = 0.0</text>
<text text-anchor="middle" x="174" y="-707.33" font-family="Times New Roman,serif" font-size="14.00"> &#45; result_step5: float = 0.0</text>
<text text-anchor="middle" x="174" y="-691.58" font-family="Times New Roman,serif" font-size="14.00"> &#45; result_step6: float = 0.0</text>
</g>
<!-- 1980380828816 -->
<g id="node2" class="node">
<title>1980380828816</title>
<path fill="none" stroke="black" d="M149.75,-637.38C149.75,-637.38 30.25,-637.38 30.25,-637.38 24.25,-637.38 18.25,-631.38 18.25,-625.38 18.25,-625.38 18.25,-609.88 18.25,-609.88 18.25,-603.88 24.25,-597.88 30.25,-597.88 30.25,-597.88 149.75,-597.88 149.75,-597.88 155.75,-597.88 161.75,-603.88 161.75,-609.88 161.75,-609.88 161.75,-625.38 161.75,-625.38 161.75,-631.38 155.75,-637.38 149.75,-637.38"/>
<text text-anchor="middle" x="90" y="-620.08" font-family="Times New Roman,serif" font-size="14.00">AdditionStep: Step 1.1</text>
<text text-anchor="middle" x="90" y="-604.33" font-family="Times New Roman,serif" font-size="14.00">result: None</text>
</g>
<!-- 1980375615968&#45;&gt;1980380828816 -->
<g id="edge4" class="edge">
<title>1980375615968&#45;&gt;1980380828816</title>
<path fill="none" stroke="black" d="M132.25,-685.26C123.8,-671.94 115.34,-658.59 108.23,-647.38"/>
<polygon fill="black" stroke="black" points="111.24,-645.59 102.93,-639.02 105.33,-649.34 111.24,-645.59"/>
</g>
<!-- 1980380829296 -->
<g id="node10" class="node">
<title>1980380829296</title>
<path fill="none" stroke="black" d="M314.38,-635.62C314.38,-635.62 201.62,-635.62 201.62,-635.62 195.62,-635.62 189.62,-629.62 189.62,-623.62 189.62,-623.62 189.62,-611.62 189.62,-611.62 189.62,-605.62 195.62,-599.62 201.62,-599.62 201.62,-599.62 314.38,-599.62 314.38,-599.62 320.38,-599.62 326.38,-605.62 326.38,-611.62 326.38,-611.62 326.38,-623.62 326.38,-623.62 326.38,-629.62 320.38,-635.62 314.38,-635.62"/>
<text text-anchor="middle" x="258" y="-612.2" font-family="Times New Roman,serif" font-size="14.00">SkipStep: Skip step 2</text>
</g>
<!-- 1980375615968&#45;&gt;1980380829296 -->
<g id="edge9" class="edge">
<title>1980375615968&#45;&gt;1980380829296</title>
<path fill="none" stroke="black" d="M215.75,-685.26C224.67,-671.2 233.6,-657.11 240.94,-645.53"/>
<polygon fill="black" stroke="black" points="243.73,-647.67 246.13,-637.35 237.82,-643.92 243.73,-647.67"/>
</g>
<!-- 1980380828672 -->
<g id="node3" class="node">
<title>1980380828672</title>
<path fill="none" stroke="black" d="M136.62,-550.12C136.62,-550.12 43.38,-550.12 43.38,-550.12 37.38,-550.12 31.38,-544.12 31.38,-538.12 31.38,-538.12 31.38,-526.12 31.38,-526.12 31.38,-520.12 37.38,-514.12 43.38,-514.12 43.38,-514.12 136.62,-514.12 136.62,-514.12 142.62,-514.12 148.62,-520.12 148.62,-526.12 148.62,-526.12 148.62,-538.12 148.62,-538.12 148.62,-544.12 142.62,-550.12 136.62,-550.12"/>
<text text-anchor="middle" x="90" y="-526.7" font-family="Times New Roman,serif" font-size="14.00">LogStep: Step 1.2</text>
</g>
<!-- 1980380828816&#45;&gt;1980380828672 -->
<g id="edge1" class="edge">
<title>1980380828816&#45;&gt;1980380828672</title>
<path fill="none" stroke="black" d="M90,-597.68C90,-587.07 90,-573.62 90,-561.75"/>
<polygon fill="black" stroke="black" points="93.5,-562.09 90,-552.09 86.5,-562.09 93.5,-562.09"/>
</g>
<!-- 1980375808096 -->
<!-- Square previous result -->
<g id="node4" class="node">
<title>1980375808096</title>
<path fill="none" stroke="black" d="M149.25,-472.5C149.25,-472.5 32.75,-472.5 32.75,-472.5 26.75,-472.5 20.75,-466.5 20.75,-460.5 20.75,-460.5 20.75,-429.25 20.75,-429.25 20.75,-423.25 26.75,-417.25 32.75,-417.25 32.75,-417.25 149.25,-417.25 149.25,-417.25 155.25,-417.25 161.25,-423.25 161.25,-429.25 161.25,-429.25 161.25,-460.5 161.25,-460.5 161.25,-466.5 155.25,-472.5 149.25,-472.5"/>
<text text-anchor="middle" x="91" y="-455.2" font-family="Times New Roman,serif" font-size="14.00">MutliplyStep: Step 1.3</text>
<text text-anchor="middle" x="91" y="-439.45" font-family="Times New Roman,serif" font-size="14.00">Square previous result</text>
<text text-anchor="middle" x="91" y="-423.7" font-family="Times New Roman,serif" font-size="14.00">result: None</text>
</g>
<!-- 1980380828672&#45;&gt;1980375808096 -->
<g id="edge2" class="edge">
<title>1980380828672&#45;&gt;1980375808096</title>
<path fill="none" stroke="black" d="M90.2,-513.87C90.3,-505.32 90.43,-494.62 90.55,-484.26"/>
<polygon fill="black" stroke="black" points="94.05,-484.39 90.67,-474.35 87.05,-484.31 94.05,-484.39"/>
</g>
<!-- 1980380829200 -->
<g id="node5" class="node">
<title>1980380829200</title>
<path fill="none" stroke="black" d="M139.62,-381.25C139.62,-381.25 46.38,-381.25 46.38,-381.25 40.38,-381.25 34.38,-375.25 34.38,-369.25 34.38,-369.25 34.38,-357.25 34.38,-357.25 34.38,-351.25 40.38,-345.25 46.38,-345.25 46.38,-345.25 139.62,-345.25 139.62,-345.25 145.62,-345.25 151.62,-351.25 151.62,-357.25 151.62,-357.25 151.62,-369.25 151.62,-369.25 151.62,-375.25 145.62,-381.25 139.62,-381.25"/>
<text text-anchor="middle" x="93" y="-357.82" font-family="Times New Roman,serif" font-size="14.00">LogStep: Step 1.2</text>
</g>
<!-- 1980375808096&#45;&gt;1980380829200 -->
<g id="edge3" class="edge">
<title>1980375808096&#45;&gt;1980380829200</title>
<path fill="none" stroke="black" d="M91.68,-416.92C91.87,-409.13 92.09,-400.6 92.28,-392.72"/>
<polygon fill="black" stroke="black" points="95.78,-393.04 92.53,-382.95 88.78,-392.86 95.78,-393.04"/>
</g>
<!-- 1980380829680 -->
<g id="node6" class="node">
<title>1980380829680</title>
<path fill="none" stroke="black" d="M154.25,-297.5C154.25,-297.5 37.75,-297.5 37.75,-297.5 31.75,-297.5 25.75,-291.5 25.75,-285.5 25.75,-285.5 25.75,-270 25.75,-270 25.75,-264 31.75,-258 37.75,-258 37.75,-258 154.25,-258 154.25,-258 160.25,-258 166.25,-264 166.25,-270 166.25,-270 166.25,-285.5 166.25,-285.5 166.25,-291.5 160.25,-297.5 154.25,-297.5"/>
<text text-anchor="middle" x="96" y="-280.2" font-family="Times New Roman,serif" font-size="14.00">MutliplyStep: Step 6.1</text>
<text text-anchor="middle" x="96" y="-264.45" font-family="Times New Roman,serif" font-size="14.00">result: None</text>
</g>
<!-- 1980380829200&#45;&gt;1980380829680 -->
<g id="edge7" class="edge">
<title>1980380829200&#45;&gt;1980380829680</title>
<path fill="none" stroke="black" d="M93.62,-344.95C93.99,-334.63 94.47,-321.24 94.91,-309.2"/>
<polygon fill="black" stroke="black" points="98.4,-309.41 95.26,-299.29 91.41,-309.16 98.4,-309.41"/>
</g>
<!-- 1980380829728 -->
<g id="node7" class="node">
<title>1980380829728</title>
<path fill="none" stroke="black" d="M119.38,-222C119.38,-222 72.62,-222 72.62,-222 66.62,-222 60.62,-216 60.62,-210 60.62,-210 60.62,-198 60.62,-198 60.62,-192 66.62,-186 72.62,-186 72.62,-186 119.38,-186 119.38,-186 125.38,-186 131.38,-192 131.38,-198 131.38,-198 131.38,-210 131.38,-210 131.38,-216 125.38,-222 119.38,-222"/>
<text text-anchor="middle" x="96" y="-198.57" font-family="Times New Roman,serif" font-size="14.00">LogStep: </text>
</g>
<!-- 1980380829680&#45;&gt;1980380829728 -->
<g id="edge5" class="edge">
<title>1980380829680&#45;&gt;1980380829728</title>
<path fill="none" stroke="black" d="M96,-257.52C96,-250.25 96,-241.79 96,-233.83"/>
<polygon fill="black" stroke="black" points="99.5,-233.83 96,-223.83 92.5,-233.83 99.5,-233.83"/>
</g>
<!-- 1980347954096 -->
<g id="node9" class="node">
<title>1980347954096</title>
<text text-anchor="middle" x="96" y="-132.7" font-family="Times New Roman,serif" font-size="14.00">ExampleContext:</text>
<text text-anchor="middle" x="96" y="-116.95" font-family="Times New Roman,serif" font-size="14.00"> &#45; input_x: float = 0.0</text>
<text text-anchor="middle" x="96" y="-101.2" font-family="Times New Roman,serif" font-size="14.00"> &#45; input_y: float = 0.0</text>
<text text-anchor="middle" x="96" y="-85.45" font-family="Times New Roman,serif" font-size="14.00"> &#45; result_step1: float = 0.0</text>
<text text-anchor="middle" x="96" y="-69.7" font-family="Times New Roman,serif" font-size="14.00"> &#45; result_step3: float = 0.0</text>
<text text-anchor="middle" x="96" y="-53.95" font-family="Times New Roman,serif" font-size="14.00"> &#45; result_step4: float = 0.0</text>
<text text-anchor="middle" x="96" y="-38.2" font-family="Times New Roman,serif" font-size="14.00"> &#45; result_step5: float = 0.0</text>
<text text-anchor="middle" x="96" y="-22.45" font-family="Times New Roman,serif" font-size="14.00"> &#45; result_step6: float = 0.0</text>
</g>
<!-- 1980380829728&#45;&gt;1980347954096 -->
<g id="edge8" class="edge">
<title>1980380829728&#45;&gt;1980347954096</title>
<path fill="none" stroke="black" d="M96,-185.7C96,-178.78 96,-170.29 96,-161.19"/>
<polygon fill="black" stroke="black" points="99.5,-161.37 96,-151.37 92.5,-161.37 99.5,-161.37"/>
</g>
<!-- 1980380829584 -->
<g id="node8" class="node">
<title>1980380829584</title>
<path fill="none" stroke="black" d="M317.75,-464.62C317.75,-464.62 198.25,-464.62 198.25,-464.62 192.25,-464.62 186.25,-458.62 186.25,-452.62 186.25,-452.62 186.25,-437.12 186.25,-437.12 186.25,-431.12 192.25,-425.12 198.25,-425.12 198.25,-425.12 317.75,-425.12 317.75,-425.12 323.75,-425.12 329.75,-431.12 329.75,-437.12 329.75,-437.12 329.75,-452.62 329.75,-452.62 329.75,-458.62 323.75,-464.62 317.75,-464.62"/>
<text text-anchor="middle" x="258" y="-447.32" font-family="Times New Roman,serif" font-size="14.00">AdditionStep: Step 5.1</text>
<text text-anchor="middle" x="258" y="-431.57" font-family="Times New Roman,serif" font-size="14.00">result: None</text>
</g>
<!-- 1980380829584&#45;&gt;1980380829680 -->
<g id="edge6" class="edge">
<title>1980380829584&#45;&gt;1980380829680</title>
<path fill="none" stroke="black" d="M245.36,-424.94C229.97,-402.63 202.49,-365.07 174,-337.25 162.01,-325.54 147.64,-314.15 134.51,-304.57"/>
<polygon fill="black" stroke="black" points="136.63,-301.78 126.45,-298.81 132.56,-307.47 136.63,-301.78"/>
</g>
<!-- 1980380829392 -->
<g id="node11" class="node">
<title>1980380829392</title>
<path fill="none" stroke="black" d="M317.75,-551.88C317.75,-551.88 198.25,-551.88 198.25,-551.88 192.25,-551.88 186.25,-545.88 186.25,-539.88 186.25,-539.88 186.25,-524.38 186.25,-524.38 186.25,-518.38 192.25,-512.38 198.25,-512.38 198.25,-512.38 317.75,-512.38 317.75,-512.38 323.75,-512.38 329.75,-518.38 329.75,-524.38 329.75,-524.38 329.75,-539.88 329.75,-539.88 329.75,-545.88 323.75,-551.88 317.75,-551.88"/>
<text text-anchor="middle" x="258" y="-534.58" font-family="Times New Roman,serif" font-size="14.00">AdditionStep: Step 3.1</text>
<text text-anchor="middle" x="258" y="-518.83" font-family="Times New Roman,serif" font-size="14.00">result: None</text>
</g>
<!-- 1980380829296&#45;&gt;1980380829392 -->
<g id="edge10" class="edge">
<title>1980380829296&#45;&gt;1980380829392</title>
<path fill="none" stroke="black" d="M258,-599.32C258,-589.01 258,-575.61 258,-563.57"/>
<polygon fill="black" stroke="black" points="261.5,-563.66 258,-553.66 254.5,-563.66 261.5,-563.66"/>
</g>
<!-- 1980380829488 -->
<g id="node12" class="node">
<title>1980380829488</title>
<path fill="none" stroke="black" d="M482.25,-551.88C482.25,-551.88 365.75,-551.88 365.75,-551.88 359.75,-551.88 353.75,-545.88 353.75,-539.88 353.75,-539.88 353.75,-524.38 353.75,-524.38 353.75,-518.38 359.75,-512.38 365.75,-512.38 365.75,-512.38 482.25,-512.38 482.25,-512.38 488.25,-512.38 494.25,-518.38 494.25,-524.38 494.25,-524.38 494.25,-539.88 494.25,-539.88 494.25,-545.88 488.25,-551.88 482.25,-551.88"/>
<text text-anchor="middle" x="424" y="-534.58" font-family="Times New Roman,serif" font-size="14.00">MutliplyStep: Step 4.1</text>
<text text-anchor="middle" x="424" y="-518.83" font-family="Times New Roman,serif" font-size="14.00">result: None</text>
</g>
<!-- 1980380829296&#45;&gt;1980380829488 -->
<g id="edge13" class="edge">
<title>1980380829296&#45;&gt;1980380829488</title>
<path fill="none" stroke="black" d="M306.62,-599.22C318.38,-594.55 330.79,-589.23 342,-583.62 356.93,-576.17 372.67,-566.86 386.33,-558.26"/>
<polygon fill="black" stroke="black" points="388.05,-561.32 394.6,-552.99 384.29,-555.42 388.05,-561.32"/>
</g>
<!-- 1980380829392&#45;&gt;1980380829584 -->
<g id="edge11" class="edge">
<title>1980380829392&#45;&gt;1980380829584</title>
<path fill="none" stroke="black" d="M258,-512.21C258,-501.68 258,-488.34 258,-476.38"/>
<polygon fill="black" stroke="black" points="261.5,-476.55 258,-466.55 254.5,-476.55 261.5,-476.55"/>
</g>
<!-- 1980380829488&#45;&gt;1980380829584 -->
<g id="edge12" class="edge">
<title>1980380829488&#45;&gt;1980380829584</title>
<path fill="none" stroke="black" d="M386.75,-511.99C362.7,-499.64 331.19,-483.46 305.37,-470.2"/>
<polygon fill="black" stroke="black" points="307.26,-467.24 296.76,-465.78 304.06,-473.46 307.26,-467.24"/>
</g>
</g>
</svg>
