<?xml version="1.0" encoding="UTF-8" standalone="no"?>
<!DOCTYPE svg PUBLIC "-//W3C//DTD SVG 1.1//EN"
 "http://www.w3.org/Graphics/SVG/1.1/DTD/svg11.dtd">
<!-- Generated by graphviz version 10.0.1 (20240210.2158)
 -->
<!-- Title: Example Pipeline_preview Pages: 1 -->
<svg width="488pt" height="787pt"
 viewBox="0.00 0.00 488.00 787.00" xmlns="http://www.w3.org/2000/svg" xmlns:xlink="http://www.w3.org/1999/xlink">
<g id="graph0" class="graph" transform="scale(1 1) rotate(0) translate(4 783)">
<title>Example Pipeline_preview</title>
<polygon fill="white" stroke="none" points="-4,4 -4,-783 484,-783 484,4 -4,4"/>
<g id="clust1" class="cluster">
<title>cluster_1926508021904</title>
<polygon fill="none" stroke="grey" points="68,-597.25 68,-771 280,-771 280,-597.25 68,-597.25"/>
<text text-anchor="middle" x="174" y="-753.7" font-family="Times New Roman,serif" font-size="14.00">Example Pipeline</text>
</g>
<g id="clust2" class="cluster">
<title>cluster_1926515010224</title>
<polygon fill="none" stroke="grey" points="172,-511.75 172,-587.5 324,-587.5 324,-511.75 172,-511.75"/>
<text text-anchor="middle" x="248" y="-570.2" font-family="Times New Roman,serif" font-size="14.00">Process node 2</text>
</g>
<g id="clust3" class="cluster">
<title>cluster_1926515007440</title>
<polygon fill="none" stroke="grey" points="172,-424.5 172,-503.75 308,-503.75 308,-424.5 172,-424.5"/>
<text text-anchor="middle" x="240" y="-486.45" font-family="Times New Roman,serif" font-size="14.00">Process node 3</text>
</g>
<g id="clust4" class="cluster">
<title>cluster_1926515007344</title>
<polygon fill="none" stroke="grey" points="172,-337.25 172,-416.5 308,-416.5 308,-337.25 172,-337.25"/>
<text text-anchor="middle" x="240" y="-399.2" font-family="Times New Roman,serif" font-size="14.00">Process node </text>
</g>
<g id="clust5" class="cluster">
<title>cluster_1926515007488</title>
<polygon fill="none" stroke="grey" points="89,-178 89,-329.25 251,-329.25 251,-178 89,-178"/>
<text text-anchor="middle" x="170" y="-311.95" font-family="Times New Roman,serif" font-size="14.00">Final process node</text>
</g>
<g id="clust6" class="cluster">
<title>cluster_1926514842784</title>
<polygon fill="none" stroke="grey" points="64,-8 64,-158 276,-158 276,-8 64,-8"/>
</g>
<g id="clust7" class="cluster">
<title>cluster_1926515007200</title>
<polygon fill="none" stroke="grey" points="316,-424.5 316,-503.75 472,-503.75 472,-424.5 316,-424.5"/>
<text text-anchor="middle" x="394" y="-486.45" font-family="Times New Roman,serif" font-size="14.00">Process node 4</text>
</g>
<g id="clust8" class="cluster">
<title>cluster_1926515006528</title>
<polygon fill="none" stroke="grey" points="8,-337.25 8,-589.25 164,-589.25 164,-337.25 8,-337.25"/>
<text text-anchor="middle" x="86" y="-571.95" font-family="Times New Roman,serif" font-size="14.00">Process node 1</text>
</g>
<!-- 1926513137216 -->
<g id="node1" class="node">
<title>1926513137216</title>
<text text-anchor="middle" x="174" y="-721.95" font-family="Times New Roman,serif" font-size="14.00">ExampleContext:</text>
<text text-anchor="middle" x="174" y="-706.2" font-family="Times New Roman,serif" font-size="14.00"> &#45; input_x: float = 0.0</text>
<text text-anchor="middle" x="174" y="-690.45" font-family="Times New Roman,serif" font-size="14.00"> &#45; input_y: float = 0.0</text>
<text text-anchor="middle" x="174" y="-674.7" font-family="Times New Roman,serif" font-size="14.00"> &#45; result_step1: Optional = None</text>
<text text-anchor="middle" x="174" y="-658.95" font-family="Times New Roman,serif" font-size="14.00"> &#45; result_step3: Optional = None</text>
<text text-anchor="middle" x="174" y="-643.2" font-family="Times New Roman,serif" font-size="14.00"> &#45; result_step4: Optional = None</text>
<text text-anchor="middle" x="174" y="-627.45" font-family="Times New Roman,serif" font-size="14.00"> &#45; result_step5: Optional = None</text>
<text text-anchor="middle" x="174" y="-611.7" font-family="Times New Roman,serif" font-size="14.00"> &#45; result_step6: Optional = None</text>
</g>
<!-- 1926515007056 -->
<g id="node2" class="node">
<title>1926515007056</title>
<path fill="none" stroke="black" d="M304.38,-555.75C304.38,-555.75 191.62,-555.75 191.62,-555.75 185.62,-555.75 179.62,-549.75 179.62,-543.75 179.62,-543.75 179.62,-531.75 179.62,-531.75 179.62,-525.75 185.62,-519.75 191.62,-519.75 191.62,-519.75 304.38,-519.75 304.38,-519.75 310.38,-519.75 316.38,-525.75 316.38,-531.75 316.38,-531.75 316.38,-543.75 316.38,-543.75 316.38,-549.75 310.38,-555.75 304.38,-555.75"/>
<text text-anchor="middle" x="248" y="-532.33" font-family="Times New Roman,serif" font-size="14.00">SkipStep: Skip step 2</text>
</g>
<!-- 1926513137216&#45;&gt;1926515007056 -->
<g id="edge1" class="edge">
<title>1926513137216&#45;&gt;1926515007056</title>
<path fill="none" stroke="black" d="M222.4,-597.25C223.52,-594.81 224.65,-592.37 225.78,-589.93"/>
<polygon fill="black" stroke="black" points="225.25,-599.42 226.28,-588.87 218.9,-596.47 225.25,-599.42"/>
</g>
<!-- 1926515006816 -->
<g id="node10" class="node">
<title>1926515006816</title>
<path fill="none" stroke="black" d="M140.75,-557.5C140.75,-557.5 45.25,-557.5 45.25,-557.5 39.25,-557.5 33.25,-551.5 33.25,-545.5 33.25,-545.5 33.25,-530 33.25,-530 33.25,-524 39.25,-518 45.25,-518 45.25,-518 140.75,-518 140.75,-518 146.75,-518 152.75,-524 152.75,-530 152.75,-530 152.75,-545.5 152.75,-545.5 152.75,-551.5 146.75,-557.5 140.75,-557.5"/>
<text text-anchor="middle" x="93" y="-540.2" font-family="Times New Roman,serif" font-size="14.00">AddStep: Step 1.1</text>
<text text-anchor="middle" x="93" y="-524.45" font-family="Times New Roman,serif" font-size="14.00">result: None</text>
</g>
<!-- 1926513137216&#45;&gt;1926515006816 -->
<g id="edge12" class="edge">
<title>1926513137216&#45;&gt;1926515006816</title>
<path fill="none" stroke="black" d="M111.31,-597.25C110.44,-595.25 109.58,-593.25 108.71,-591.25"/>
<polygon fill="black" stroke="black" points="115.63,-598.43 108.45,-590.64 109.21,-601.2 115.63,-598.43"/>
</g>
<!-- 1926515007248 -->
<g id="node3" class="node">
<title>1926515007248</title>
<path fill="none" stroke="black" d="M287.75,-472C287.75,-472 192.25,-472 192.25,-472 186.25,-472 180.25,-466 180.25,-460 180.25,-460 180.25,-444.5 180.25,-444.5 180.25,-438.5 186.25,-432.5 192.25,-432.5 192.25,-432.5 287.75,-432.5 287.75,-432.5 293.75,-432.5 299.75,-438.5 299.75,-444.5 299.75,-444.5 299.75,-460 299.75,-460 299.75,-466 293.75,-472 287.75,-472"/>
<text text-anchor="middle" x="240" y="-454.7" font-family="Times New Roman,serif" font-size="14.00">AddStep: Step 3.1</text>
<text text-anchor="middle" x="240" y="-438.95" font-family="Times New Roman,serif" font-size="14.00">result: None</text>
</g>
<!-- 1926515007056&#45;&gt;1926515007248 -->
<g id="edge2" class="edge">
<title>1926515007056&#45;&gt;1926515007248</title>
<path fill="none" stroke="black" d="M245.2,-511.75C244.93,-509.75 244.66,-507.75 244.38,-505.75"/>
<polygon fill="black" stroke="black" points="249.13,-514.69 244.32,-505.25 242.19,-515.63 249.13,-514.69"/>
</g>
<!-- 1926515007296 -->
<g id="node5" class="node">
<title>1926515007296</title>
<path fill="none" stroke="black" d="M452.25,-472C452.25,-472 335.75,-472 335.75,-472 329.75,-472 323.75,-466 323.75,-460 323.75,-460 323.75,-444.5 323.75,-444.5 323.75,-438.5 329.75,-432.5 335.75,-432.5 335.75,-432.5 452.25,-432.5 452.25,-432.5 458.25,-432.5 464.25,-438.5 464.25,-444.5 464.25,-444.5 464.25,-460 464.25,-460 464.25,-466 458.25,-472 452.25,-472"/>
<text text-anchor="middle" x="394" y="-454.7" font-family="Times New Roman,serif" font-size="14.00">MutliplyStep: Step 4.1</text>
<text text-anchor="middle" x="394" y="-438.95" font-family="Times New Roman,serif" font-size="14.00">result: None</text>
</g>
<!-- 1926515007056&#45;&gt;1926515007296 -->
<g id="edge9" class="edge">
<title>1926515007056&#45;&gt;1926515007296</title>
<path fill="none" stroke="black" d="M324,-521.12C331.05,-518.35 337.12,-515.1 342.85,-510.96"/>
<polygon fill="black" stroke="black" points="344.95,-513.76 350.45,-504.71 340.51,-508.36 344.95,-513.76"/>
</g>
<!-- 1926515007392 -->
<g id="node4" class="node">
<title>1926515007392</title>
<path fill="none" stroke="black" d="M287.75,-384.75C287.75,-384.75 192.25,-384.75 192.25,-384.75 186.25,-384.75 180.25,-378.75 180.25,-372.75 180.25,-372.75 180.25,-357.25 180.25,-357.25 180.25,-351.25 186.25,-345.25 192.25,-345.25 192.25,-345.25 287.75,-345.25 287.75,-345.25 293.75,-345.25 299.75,-351.25 299.75,-357.25 299.75,-357.25 299.75,-372.75 299.75,-372.75 299.75,-378.75 293.75,-384.75 287.75,-384.75"/>
<text text-anchor="middle" x="240" y="-367.45" font-family="Times New Roman,serif" font-size="14.00">AddStep: Step 5.1</text>
<text text-anchor="middle" x="240" y="-351.7" font-family="Times New Roman,serif" font-size="14.00">result: None</text>
</g>
<!-- 1926515007248&#45;&gt;1926515007392 -->
<g id="edge3" class="edge">
<title>1926515007248&#45;&gt;1926515007392</title>
<path fill="none" stroke="black" d="M240,-424.5C240,-422.5 240,-420.5 240,-418.5"/>
<polygon fill="black" stroke="black" points="243.5,-428.01 240,-418.01 236.5,-428.01 243.5,-428.01"/>
</g>
<!-- 1926515010080 -->
<g id="node6" class="node">
<title>1926515010080</title>
<path fill="none" stroke="black" d="M228.25,-297.5C228.25,-297.5 111.75,-297.5 111.75,-297.5 105.75,-297.5 99.75,-291.5 99.75,-285.5 99.75,-285.5 99.75,-270 99.75,-270 99.75,-264 105.75,-258 111.75,-258 111.75,-258 228.25,-258 228.25,-258 234.25,-258 240.25,-264 240.25,-270 240.25,-270 240.25,-285.5 240.25,-285.5 240.25,-291.5 234.25,-297.5 228.25,-297.5"/>
<text text-anchor="middle" x="170" y="-280.2" font-family="Times New Roman,serif" font-size="14.00">MutliplyStep: Step 6.1</text>
<text text-anchor="middle" x="170" y="-264.45" font-family="Times New Roman,serif" font-size="14.00">result: None</text>
</g>
<!-- 1926515007392&#45;&gt;1926515010080 -->
<g id="edge7" class="edge">
<title>1926515007392&#45;&gt;1926515010080</title>
<path fill="none" stroke="black" d="M221.11,-337.25C219.45,-335.25 217.78,-333.25 216.11,-331.25"/>
<polygon fill="black" stroke="black" points="224.5,-335.85 215.41,-330.41 219.13,-340.33 224.5,-335.85"/>
</g>
<!-- 1926515007296&#45;&gt;1926515007392 -->
<g id="edge4" class="edge">
<title>1926515007296&#45;&gt;1926515007392</title>
<path fill="none" stroke="black" d="M358.21,-424.5C347.84,-417.56 336.26,-411.11 318.07,-402.07"/>
<polygon fill="black" stroke="black" points="319.87,-399.06 309.36,-397.8 316.79,-405.34 319.87,-399.06"/>
</g>
<!-- 1926515007584 -->
<g id="node7" class="node">
<title>1926515007584</title>
<path fill="none" stroke="black" d="M231.25,-222C231.25,-222 108.75,-222 108.75,-222 102.75,-222 96.75,-216 96.75,-210 96.75,-210 96.75,-198 96.75,-198 96.75,-192 102.75,-186 108.75,-186 108.75,-186 231.25,-186 231.25,-186 237.25,-186 243.25,-192 243.25,-198 243.25,-198 243.25,-210 243.25,-210 243.25,-216 237.25,-222 231.25,-222"/>
<text text-anchor="middle" x="170" y="-198.57" font-family="Times New Roman,serif" font-size="14.00">LogStep: Final logging!</text>
</g>
<!-- 1926515010080&#45;&gt;1926515007584 -->
<g id="edge5" class="edge">
<title>1926515010080&#45;&gt;1926515007584</title>
<path fill="none" stroke="black" d="M167.51,-257.61C166.23,-246.81 165.5,-239.43 165.33,-233.53"/>
<polygon fill="black" stroke="black" points="168.81,-233.9 165.77,-223.75 161.82,-233.58 168.81,-233.9"/>
</g>
<!-- 1926515005808 -->
<g id="node9" class="node">
<title>1926515005808</title>
<text text-anchor="middle" x="170" y="-132.7" font-family="Times New Roman,serif" font-size="14.00">ExampleContext:</text>
<text text-anchor="middle" x="170" y="-116.95" font-family="Times New Roman,serif" font-size="14.00"> &#45; input_x: float = 0.0</text>
<text text-anchor="middle" x="170" y="-101.2" font-family="Times New Roman,serif" font-size="14.00"> &#45; input_y: float = 0.0</text>
<text text-anchor="middle" x="170" y="-85.45" font-family="Times New Roman,serif" font-size="14.00"> &#45; result_step1: Optional = None</text>
<text text-anchor="middle" x="170" y="-69.7" font-family="Times New Roman,serif" font-size="14.00"> &#45; result_step3: Optional = None</text>
<text text-anchor="middle" x="170" y="-53.95" font-family="Times New Roman,serif" font-size="14.00"> &#45; result_step4: Optional = None</text>
<text text-anchor="middle" x="170" y="-38.2" font-family="Times New Roman,serif" font-size="14.00"> &#45; result_step5: Optional = None</text>
<text text-anchor="middle" x="170" y="-22.45" font-family="Times New Roman,serif" font-size="14.00"> &#45; result_step6: Optional = None</text>
</g>
<!-- 1926515007584&#45;&gt;1926515005808 -->
<g id="edge8" class="edge">
<title>1926515007584&#45;&gt;1926515005808</title>
<path fill="none" stroke="black" d="M167.96,-178C167.48,-171.8 167.06,-166.21 166.7,-161.14"/>
<polygon fill="black" stroke="black" points="172.07,-168.35 166.29,-159.47 165.27,-170.02 172.07,-168.35"/>
</g>
<!-- 1926515007008 -->
<g id="node8" class="node">
<title>1926515007008</title>
<path fill="none" stroke="black" d="M144.25,-384.75C144.25,-384.75 27.75,-384.75 27.75,-384.75 21.75,-384.75 15.75,-378.75 15.75,-372.75 15.75,-372.75 15.75,-357.25 15.75,-357.25 15.75,-351.25 21.75,-345.25 27.75,-345.25 27.75,-345.25 144.25,-345.25 144.25,-345.25 150.25,-345.25 156.25,-351.25 156.25,-357.25 156.25,-357.25 156.25,-372.75 156.25,-372.75 156.25,-378.75 150.25,-384.75 144.25,-384.75"/>
<text text-anchor="middle" x="86" y="-367.45" font-family="Times New Roman,serif" font-size="14.00">MutliplyStep: Step 1.3</text>
<text text-anchor="middle" x="86" y="-351.7" font-family="Times New Roman,serif" font-size="14.00">result: None</text>
</g>
<!-- 1926515007008&#45;&gt;1926515010080 -->
<g id="edge6" class="edge">
<title>1926515007008&#45;&gt;1926515010080</title>
<path fill="none" stroke="black" d="M96.97,-337.25C97.89,-335.25 98.81,-333.25 99.73,-331.25"/>
<polygon fill="black" stroke="black" points="99.02,-341.17 100.02,-330.62 92.66,-338.25 99.02,-341.17"/>
</g>
<!-- 1926514841344 -->
<g id="node11" class="node">
<title>1926514841344</title>
<path fill="none" stroke="black" d="M134.62,-470.25C134.62,-470.25 41.38,-470.25 41.38,-470.25 35.38,-470.25 29.38,-464.25 29.38,-458.25 29.38,-458.25 29.38,-446.25 29.38,-446.25 29.38,-440.25 35.38,-434.25 41.38,-434.25 41.38,-434.25 134.62,-434.25 134.62,-434.25 140.62,-434.25 146.62,-440.25 146.62,-446.25 146.62,-446.25 146.62,-458.25 146.62,-458.25 146.62,-464.25 140.62,-470.25 134.62,-470.25"/>
<text text-anchor="middle" x="88" y="-446.82" font-family="Times New Roman,serif" font-size="14.00">LogStep: Step 1.2</text>
</g>
<!-- 1926515006816&#45;&gt;1926514841344 -->
<g id="edge10" class="edge">
<title>1926515006816&#45;&gt;1926514841344</title>
<path fill="none" stroke="black" d="M83.54,-517.67C79.2,-506.52 78.89,-498.32 81.92,-481.45"/>
<polygon fill="black" stroke="black" points="85.3,-482.41 83.79,-471.92 78.43,-481.06 85.3,-482.41"/>
</g>
<!-- 1926514841344&#45;&gt;1926515007008 -->
<g id="edge11" class="edge">
<title>1926514841344&#45;&gt;1926515007008</title>
<path fill="none" stroke="black" d="M80.03,-433.76C73.72,-418.12 72.42,-409.79 75.85,-395.87"/>
<polygon fill="black" stroke="black" points="79.11,-397.22 78.55,-386.64 72.39,-395.26 79.11,-397.22"/>
</g>
</g>
</svg>
