<?xml version="1.0" encoding="UTF-8" standalone="no"?>
<!DOCTYPE svg PUBLIC "-//W3C//DTD SVG 1.1//EN"
 "http://www.w3.org/Graphics/SVG/1.1/DTD/svg11.dtd">
<!-- Generated by graphviz version 10.0.1 (20240210.2158)
 -->
<!-- Title: Example Pipeline_preview Pages: 1 -->
<svg width="520pt" height="1121pt"
 viewBox="0.00 0.00 520.00 1120.62" xmlns="http://www.w3.org/2000/svg" xmlns:xlink="http://www.w3.org/1999/xlink">
<g id="graph0" class="graph" transform="scale(1 1) rotate(0) translate(4 1116.62)">
<title>Example Pipeline_preview</title>
<polygon fill="white" stroke="none" points="-4,4 -4,-1116.62 516,-1116.62 516,4 -4,4"/>
<g id="clust1" class="cluster">
<title>cluster_2371801224624</title>
<polygon fill="none" stroke="grey" points="10,-899.38 10,-1104.62 394,-1104.62 394,-899.38 10,-899.38"/>
<text text-anchor="middle" x="202" y="-1087.33" font-family="Times New Roman,serif" font-size="14.00">Example Pipeline</text>
</g>
<g id="clust2" class="cluster">
<title>cluster_2371801814976</title>
<polygon fill="none" stroke="grey" points="11,-559.5 11,-891.38 171,-891.38 171,-559.5 11,-559.5"/>
<text text-anchor="middle" x="91" y="-874.08" font-family="Times New Roman,serif" font-size="14.00">Process node 1</text>
</g>
<g id="clust3" class="cluster">
<title>cluster_2371838693008</title>
<polygon fill="none" stroke="grey" points="8,-221.25 8,-551.5 504,-551.5 504,-221.25 8,-221.25"/>
<text text-anchor="middle" x="256" y="-534.2" font-family="Times New Roman,serif" font-size="14.00">Process node 6</text>
</g>
<g id="clust4" class="cluster">
<title>cluster_2371838450224</title>
<polygon fill="none" stroke="grey" points="64,-8 64,-213.25 448,-213.25 448,-8 64,-8"/>
<text text-anchor="middle" x="256" y="-195.95" font-family="Times New Roman,serif" font-size="14.00">FINAL NODE</text>
</g>
<g id="clust5" class="cluster">
<title>cluster_2371838691856</title>
<polygon fill="none" stroke="grey" points="183,-813.88 183,-889.62 335,-889.62 335,-813.88 183,-813.88"/>
<text text-anchor="middle" x="259" y="-872.33" font-family="Times New Roman,serif" font-size="14.00">Process node 2</text>
</g>
<g id="clust6" class="cluster">
<title>cluster_2371838692144</title>
<polygon fill="none" stroke="grey" points="179,-726.62 179,-805.88 339,-805.88 339,-726.62 179,-726.62"/>
<text text-anchor="middle" x="259" y="-788.58" font-family="Times New Roman,serif" font-size="14.00">Process node 3</text>
</g>
<g id="clust7" class="cluster">
<title>cluster_2371801225632</title>
<polygon fill="none" stroke="grey" points="179,-559.5 179,-718.62 339,-718.62 339,-559.5 179,-559.5"/>
<text text-anchor="middle" x="259" y="-701.33" font-family="Times New Roman,serif" font-size="14.00">Process node 5</text>
</g>
<g id="clust8" class="cluster">
<title>cluster_2371838692432</title>
<polygon fill="none" stroke="grey" points="347,-726.62 347,-805.88 503,-805.88 503,-726.62 347,-726.62"/>
<text text-anchor="middle" x="425" y="-788.58" font-family="Times New Roman,serif" font-size="14.00">Process node 4</text>
</g>
<!-- 2371838444224 -->
<g id="node1" class="node">
<title>2371838444224</title>
<text text-anchor="middle" x="202" y="-1055.58" font-family="Times New Roman,serif" font-size="14.00">ExampleContext(thread_count=4,</text>
<text text-anchor="middle" x="202" y="-1039.83" font-family="Times New Roman,serif" font-size="14.00"> &#160;&#160;&#160;&#160;&#160;&#160;&#160;&#160;&#160;&#160;&#160;&#160;&#160;&#160;input_x=0.0,</text>
<text text-anchor="middle" x="202" y="-1024.08" font-family="Times New Roman,serif" font-size="14.00"> &#160;&#160;&#160;&#160;&#160;&#160;&#160;&#160;&#160;&#160;&#160;&#160;&#160;&#160;input_y=0.0,</text>
<text text-anchor="middle" x="202" y="-1008.33" font-family="Times New Roman,serif" font-size="14.00"> &#160;&#160;&#160;&#160;&#160;&#160;&#160;&#160;&#160;&#160;&#160;&#160;&#160;&#160;result_step1=&lt;class &#39;tuyau.context.NoDefault&#39;&gt;,</text>
<text text-anchor="middle" x="202" y="-992.58" font-family="Times New Roman,serif" font-size="14.00"> &#160;&#160;&#160;&#160;&#160;&#160;&#160;&#160;&#160;&#160;&#160;&#160;&#160;&#160;result_step3=&lt;class &#39;tuyau.context.NoDefault&#39;&gt;,</text>
<text text-anchor="middle" x="202" y="-976.83" font-family="Times New Roman,serif" font-size="14.00"> &#160;&#160;&#160;&#160;&#160;&#160;&#160;&#160;&#160;&#160;&#160;&#160;&#160;&#160;result_step4=&lt;class &#39;tuyau.context.NoDefault&#39;&gt;,</text>
<text text-anchor="middle" x="202" y="-961.08" font-family="Times New Roman,serif" font-size="14.00"> &#160;&#160;&#160;&#160;&#160;&#160;&#160;&#160;&#160;&#160;&#160;&#160;&#160;&#160;result_step5=&lt;class &#39;tuyau.context.NoDefault&#39;&gt;,</text>
<text text-anchor="middle" x="202" y="-945.33" font-family="Times New Roman,serif" font-size="14.00"> &#160;&#160;&#160;&#160;&#160;&#160;&#160;&#160;&#160;&#160;&#160;&#160;&#160;&#160;result_step6=&lt;class &#39;tuyau.context.NoDefault&#39;&gt;,</text>
<text text-anchor="middle" x="202" y="-929.58" font-family="Times New Roman,serif" font-size="14.00"> &#160;&#160;&#160;&#160;&#160;&#160;&#160;&#160;&#160;&#160;&#160;&#160;&#160;&#160;result_step7=&lt;class &#39;tuyau.context.NoDefault&#39;&gt;,</text>
<text text-anchor="middle" x="202" y="-913.83" font-family="Times New Roman,serif" font-size="14.00"> &#160;&#160;&#160;&#160;&#160;&#160;&#160;&#160;&#160;&#160;&#160;&#160;&#160;&#160;result_func_step=&lt;class &#39;tuyau.context.NoDefault&#39;&gt;)</text>
</g>
<!-- 2371838691664 -->
<g id="node2" class="node">
<title>2371838691664</title>
<path fill="none" stroke="black" d="M150.75,-859.62C150.75,-859.62 31.25,-859.62 31.25,-859.62 25.25,-859.62 19.25,-853.62 19.25,-847.62 19.25,-847.62 19.25,-832.12 19.25,-832.12 19.25,-826.12 25.25,-820.12 31.25,-820.12 31.25,-820.12 150.75,-820.12 150.75,-820.12 156.75,-820.12 162.75,-826.12 162.75,-832.12 162.75,-832.12 162.75,-847.62 162.75,-847.62 162.75,-853.62 156.75,-859.62 150.75,-859.62"/>
<text text-anchor="middle" x="91" y="-842.33" font-family="Times New Roman,serif" font-size="14.00">AdditionStep: Step 1.1</text>
<text text-anchor="middle" x="91" y="-826.58" font-family="Times New Roman,serif" font-size="14.00">result: None</text>
</g>
<!-- 2371838444224&#45;&gt;2371838691664 -->
<g id="edge4" class="edge">
<title>2371838444224&#45;&gt;2371838691664</title>
<path fill="none" stroke="black" d="M140.98,-907.63C130.62,-893.78 120.51,-880.29 112.13,-869.1"/>
<polygon fill="black" stroke="black" points="114.95,-867.02 106.15,-861.11 109.35,-871.22 114.95,-867.02"/>
</g>
<!-- 2371838692096 -->
<g id="node12" class="node">
<title>2371838692096</title>
<path fill="none" stroke="black" d="M315.38,-857.88C315.38,-857.88 202.62,-857.88 202.62,-857.88 196.62,-857.88 190.62,-851.88 190.62,-845.88 190.62,-845.88 190.62,-833.88 190.62,-833.88 190.62,-827.88 196.62,-821.88 202.62,-821.88 202.62,-821.88 315.38,-821.88 315.38,-821.88 321.38,-821.88 327.38,-827.88 327.38,-833.88 327.38,-833.88 327.38,-845.88 327.38,-845.88 327.38,-851.88 321.38,-857.88 315.38,-857.88"/>
<text text-anchor="middle" x="259" y="-834.45" font-family="Times New Roman,serif" font-size="14.00">SkipStep: Skip step 2</text>
</g>
<!-- 2371838444224&#45;&gt;2371838692096 -->
<g id="edge11" class="edge">
<title>2371838444224&#45;&gt;2371838692096</title>
<path fill="none" stroke="black" d="M233.33,-907.63C238.73,-893.6 243.99,-879.93 248.32,-868.65"/>
<polygon fill="black" stroke="black" points="251.46,-870.24 251.78,-859.65 244.93,-867.73 251.46,-870.24"/>
</g>
<!-- 2371838691712 -->
<g id="node3" class="node">
<title>2371838691712</title>
<path fill="none" stroke="black" d="M137.62,-772.38C137.62,-772.38 44.38,-772.38 44.38,-772.38 38.38,-772.38 32.38,-766.38 32.38,-760.38 32.38,-760.38 32.38,-748.38 32.38,-748.38 32.38,-742.38 38.38,-736.38 44.38,-736.38 44.38,-736.38 137.62,-736.38 137.62,-736.38 143.62,-736.38 149.62,-742.38 149.62,-748.38 149.62,-748.38 149.62,-760.38 149.62,-760.38 149.62,-766.38 143.62,-772.38 137.62,-772.38"/>
<text text-anchor="middle" x="91" y="-748.95" font-family="Times New Roman,serif" font-size="14.00">LogStep: Step 1.2</text>
</g>
<!-- 2371838691664&#45;&gt;2371838691712 -->
<g id="edge1" class="edge">
<title>2371838691664&#45;&gt;2371838691712</title>
<path fill="none" stroke="black" d="M91,-819.93C91,-809.32 91,-795.87 91,-784"/>
<polygon fill="black" stroke="black" points="94.5,-784.34 91,-774.34 87.5,-784.34 94.5,-784.34"/>
</g>
<!-- 2371838691760 -->
<!-- Square previous result -->
<g id="node4" class="node">
<title>2371838691760</title>
<path fill="none" stroke="black" d="M150.25,-694.75C150.25,-694.75 33.75,-694.75 33.75,-694.75 27.75,-694.75 21.75,-688.75 21.75,-682.75 21.75,-682.75 21.75,-651.5 21.75,-651.5 21.75,-645.5 27.75,-639.5 33.75,-639.5 33.75,-639.5 150.25,-639.5 150.25,-639.5 156.25,-639.5 162.25,-645.5 162.25,-651.5 162.25,-651.5 162.25,-682.75 162.25,-682.75 162.25,-688.75 156.25,-694.75 150.25,-694.75"/>
<text text-anchor="middle" x="92" y="-677.45" font-family="Times New Roman,serif" font-size="14.00">MutliplyStep: Step 1.3</text>
<text text-anchor="middle" x="92" y="-661.7" font-family="Times New Roman,serif" font-size="14.00">Square previous result</text>
<text text-anchor="middle" x="92" y="-645.95" font-family="Times New Roman,serif" font-size="14.00">result: None</text>
</g>
<!-- 2371838691712&#45;&gt;2371838691760 -->
<g id="edge2" class="edge">
<title>2371838691712&#45;&gt;2371838691760</title>
<path fill="none" stroke="black" d="M91.2,-736.12C91.3,-727.57 91.43,-716.87 91.55,-706.51"/>
<polygon fill="black" stroke="black" points="95.05,-706.64 91.67,-696.6 88.05,-706.56 95.05,-706.64"/>
</g>
<!-- 2371838691808 -->
<g id="node5" class="node">
<title>2371838691808</title>
<path fill="none" stroke="black" d="M144.62,-603.5C144.62,-603.5 51.38,-603.5 51.38,-603.5 45.38,-603.5 39.38,-597.5 39.38,-591.5 39.38,-591.5 39.38,-579.5 39.38,-579.5 39.38,-573.5 45.38,-567.5 51.38,-567.5 51.38,-567.5 144.62,-567.5 144.62,-567.5 150.62,-567.5 156.62,-573.5 156.62,-579.5 156.62,-579.5 156.62,-591.5 156.62,-591.5 156.62,-597.5 150.62,-603.5 144.62,-603.5"/>
<text text-anchor="middle" x="98" y="-580.08" font-family="Times New Roman,serif" font-size="14.00">LogStep: Step 1.2</text>
</g>
<!-- 2371838691760&#45;&gt;2371838691808 -->
<g id="edge3" class="edge">
<title>2371838691760&#45;&gt;2371838691808</title>
<path fill="none" stroke="black" d="M94.03,-639.17C94.62,-631.38 95.26,-622.85 95.85,-614.97"/>
<polygon fill="black" stroke="black" points="99.33,-615.44 96.59,-605.2 92.35,-614.91 99.33,-615.44"/>
</g>
<!-- 2371838693248 -->
<g id="node6" class="node">
<title>2371838693248</title>
<path fill="none" stroke="black" d="M315.75,-519.75C315.75,-519.75 196.25,-519.75 196.25,-519.75 190.25,-519.75 184.25,-513.75 184.25,-507.75 184.25,-507.75 184.25,-492.25 184.25,-492.25 184.25,-486.25 190.25,-480.25 196.25,-480.25 196.25,-480.25 315.75,-480.25 315.75,-480.25 321.75,-480.25 327.75,-486.25 327.75,-492.25 327.75,-492.25 327.75,-507.75 327.75,-507.75 327.75,-513.75 321.75,-519.75 315.75,-519.75"/>
<text text-anchor="middle" x="256" y="-502.45" font-family="Times New Roman,serif" font-size="14.00">AdditionStep: Step 6.1</text>
<text text-anchor="middle" x="256" y="-486.7" font-family="Times New Roman,serif" font-size="14.00">result: None</text>
</g>
<!-- 2371838691808&#45;&gt;2371838693248 -->
<g id="edge9" class="edge">
<title>2371838691808&#45;&gt;2371838693248</title>
<path fill="none" stroke="black" d="M130.74,-567.2C153.54,-555.15 184.28,-538.9 209.6,-525.52"/>
<polygon fill="black" stroke="black" points="211.18,-528.65 218.38,-520.88 207.9,-522.46 211.18,-528.65"/>
</g>
<!-- 2371838693296 -->
<g id="node7" class="node">
<title>2371838693296</title>
<path fill="none" stroke="black" d="M313.12,-444.25C313.12,-444.25 198.88,-444.25 198.88,-444.25 192.88,-444.25 186.88,-438.25 186.88,-432.25 186.88,-432.25 186.88,-420.25 186.88,-420.25 186.88,-414.25 192.88,-408.25 198.88,-408.25 198.88,-408.25 313.12,-408.25 313.12,-408.25 319.12,-408.25 325.12,-414.25 325.12,-420.25 325.12,-420.25 325.12,-432.25 325.12,-432.25 325.12,-438.25 319.12,-444.25 313.12,-444.25"/>
<text text-anchor="middle" x="256" y="-420.82" font-family="Times New Roman,serif" font-size="14.00">LogStep: result_step6</text>
</g>
<!-- 2371838693248&#45;&gt;2371838693296 -->
<g id="edge5" class="edge">
<title>2371838693248&#45;&gt;2371838693296</title>
<path fill="none" stroke="black" d="M256,-479.77C256,-472.5 256,-464.04 256,-456.08"/>
<polygon fill="black" stroke="black" points="259.5,-456.08 256,-446.08 252.5,-456.08 259.5,-456.08"/>
</g>
<!-- 2371838691520 -->
<g id="node8" class="node">
<title>2371838691520</title>
<path fill="none" stroke="black" d="M483.75,-372.25C483.75,-372.25 28.25,-372.25 28.25,-372.25 22.25,-372.25 16.25,-366.25 16.25,-360.25 16.25,-360.25 16.25,-313.25 16.25,-313.25 16.25,-307.25 22.25,-301.25 28.25,-301.25 28.25,-301.25 483.75,-301.25 483.75,-301.25 489.75,-301.25 495.75,-307.25 495.75,-313.25 495.75,-313.25 495.75,-360.25 495.75,-360.25 495.75,-366.25 489.75,-372.25 483.75,-372.25"/>
<text text-anchor="middle" x="256" y="-354.95" font-family="Times New Roman,serif" font-size="14.00">Function Step: Function step</text>
<text text-anchor="middle" x="256" y="-339.2" font-family="Times New Roman,serif" font-size="14.00">function: do_something_in_process</text>
<text text-anchor="middle" x="256" y="-323.45" font-family="Times New Roman,serif" font-size="14.00">args: </text>
<text text-anchor="middle" x="256" y="-307.7" font-family="Times New Roman,serif" font-size="14.00">kwargs: a=&lt;class &#39;tuyau.context.NoDefault&#39;&gt;, b=&lt;class &#39;tuyau.context.NoDefault&#39;&gt;</text>
</g>
<!-- 2371838693296&#45;&gt;2371838691520 -->
<g id="edge6" class="edge">
<title>2371838693296&#45;&gt;2371838691520</title>
<path fill="none" stroke="black" d="M256,-407.96C256,-401.05 256,-392.72 256,-384.25"/>
<polygon fill="black" stroke="black" points="259.5,-384.25 256,-374.25 252.5,-384.25 259.5,-384.25"/>
</g>
<!-- 2371838693344 -->
<g id="node9" class="node">
<title>2371838693344</title>
<path fill="none" stroke="black" d="M325.88,-265.25C325.88,-265.25 186.12,-265.25 186.12,-265.25 180.12,-265.25 174.12,-259.25 174.12,-253.25 174.12,-253.25 174.12,-241.25 174.12,-241.25 174.12,-235.25 180.12,-229.25 186.12,-229.25 186.12,-229.25 325.88,-229.25 325.88,-229.25 331.88,-229.25 337.88,-235.25 337.88,-241.25 337.88,-241.25 337.88,-253.25 337.88,-253.25 337.88,-259.25 331.88,-265.25 325.88,-265.25"/>
<text text-anchor="middle" x="256" y="-241.82" font-family="Times New Roman,serif" font-size="14.00">LogStep: result_func_step</text>
</g>
<!-- 2371838691520&#45;&gt;2371838693344 -->
<g id="edge7" class="edge">
<title>2371838691520&#45;&gt;2371838693344</title>
<path fill="none" stroke="black" d="M256,-300.92C256,-292.91 256,-284.49 256,-276.78"/>
<polygon fill="black" stroke="black" points="259.5,-276.95 256,-266.95 252.5,-276.95 259.5,-276.95"/>
</g>
<!-- 2371838456512 -->
<g id="node11" class="node">
<title>2371838456512</title>
<text text-anchor="middle" x="256" y="-164.2" font-family="Times New Roman,serif" font-size="14.00">ExampleContext(thread_count=4,</text>
<text text-anchor="middle" x="256" y="-148.45" font-family="Times New Roman,serif" font-size="14.00"> &#160;&#160;&#160;&#160;&#160;&#160;&#160;&#160;&#160;&#160;&#160;&#160;&#160;&#160;input_x=0.0,</text>
<text text-anchor="middle" x="256" y="-132.7" font-family="Times New Roman,serif" font-size="14.00"> &#160;&#160;&#160;&#160;&#160;&#160;&#160;&#160;&#160;&#160;&#160;&#160;&#160;&#160;input_y=0.0,</text>
<text text-anchor="middle" x="256" y="-116.95" font-family="Times New Roman,serif" font-size="14.00"> &#160;&#160;&#160;&#160;&#160;&#160;&#160;&#160;&#160;&#160;&#160;&#160;&#160;&#160;result_step1=&lt;class &#39;tuyau.context.NoDefault&#39;&gt;,</text>
<text text-anchor="middle" x="256" y="-101.2" font-family="Times New Roman,serif" font-size="14.00"> &#160;&#160;&#160;&#160;&#160;&#160;&#160;&#160;&#160;&#160;&#160;&#160;&#160;&#160;result_step3=&lt;class &#39;tuyau.context.NoDefault&#39;&gt;,</text>
<text text-anchor="middle" x="256" y="-85.45" font-family="Times New Roman,serif" font-size="14.00"> &#160;&#160;&#160;&#160;&#160;&#160;&#160;&#160;&#160;&#160;&#160;&#160;&#160;&#160;result_step4=&lt;class &#39;tuyau.context.NoDefault&#39;&gt;,</text>
<text text-anchor="middle" x="256" y="-69.7" font-family="Times New Roman,serif" font-size="14.00"> &#160;&#160;&#160;&#160;&#160;&#160;&#160;&#160;&#160;&#160;&#160;&#160;&#160;&#160;result_step5=&lt;class &#39;tuyau.context.NoDefault&#39;&gt;,</text>
<text text-anchor="middle" x="256" y="-53.95" font-family="Times New Roman,serif" font-size="14.00"> &#160;&#160;&#160;&#160;&#160;&#160;&#160;&#160;&#160;&#160;&#160;&#160;&#160;&#160;result_step6=&lt;class &#39;tuyau.context.NoDefault&#39;&gt;,</text>
<text text-anchor="middle" x="256" y="-38.2" font-family="Times New Roman,serif" font-size="14.00"> &#160;&#160;&#160;&#160;&#160;&#160;&#160;&#160;&#160;&#160;&#160;&#160;&#160;&#160;result_step7=&lt;class &#39;tuyau.context.NoDefault&#39;&gt;,</text>
<text text-anchor="middle" x="256" y="-22.45" font-family="Times New Roman,serif" font-size="14.00"> &#160;&#160;&#160;&#160;&#160;&#160;&#160;&#160;&#160;&#160;&#160;&#160;&#160;&#160;result_func_step=&lt;class &#39;tuyau.context.NoDefault&#39;&gt;)</text>
</g>
<!-- 2371838693344&#45;&gt;2371838456512 -->
<g id="edge10" class="edge">
<title>2371838693344&#45;&gt;2371838456512</title>
<path fill="none" stroke="black" d="M256,-228.87C256,-219.24 256,-206.44 256,-192.64"/>
<polygon fill="black" stroke="black" points="259.5,-192.91 256,-182.91 252.5,-192.91 259.5,-192.91"/>
</g>
<!-- 2371838692960 -->
<g id="node10" class="node">
<title>2371838692960</title>
<path fill="none" stroke="black" d="M314.12,-603.5C314.12,-603.5 199.88,-603.5 199.88,-603.5 193.88,-603.5 187.88,-597.5 187.88,-591.5 187.88,-591.5 187.88,-579.5 187.88,-579.5 187.88,-573.5 193.88,-567.5 199.88,-567.5 199.88,-567.5 314.12,-567.5 314.12,-567.5 320.12,-567.5 326.12,-573.5 326.12,-579.5 326.12,-579.5 326.12,-591.5 326.12,-591.5 326.12,-597.5 320.12,-603.5 314.12,-603.5"/>
<text text-anchor="middle" x="257" y="-580.08" font-family="Times New Roman,serif" font-size="14.00">LogStep: result_step5</text>
</g>
<!-- 2371838692960&#45;&gt;2371838693248 -->
<g id="edge8" class="edge">
<title>2371838692960&#45;&gt;2371838693248</title>
<path fill="none" stroke="black" d="M256.79,-567.2C256.67,-556.88 256.51,-543.49 256.36,-531.45"/>
<polygon fill="black" stroke="black" points="259.87,-531.5 256.25,-521.54 252.87,-531.58 259.87,-531.5"/>
</g>
<!-- 2371838692384 -->
<g id="node13" class="node">
<title>2371838692384</title>
<path fill="none" stroke="black" d="M318.75,-774.12C318.75,-774.12 199.25,-774.12 199.25,-774.12 193.25,-774.12 187.25,-768.12 187.25,-762.12 187.25,-762.12 187.25,-746.62 187.25,-746.62 187.25,-740.62 193.25,-734.62 199.25,-734.62 199.25,-734.62 318.75,-734.62 318.75,-734.62 324.75,-734.62 330.75,-740.62 330.75,-746.62 330.75,-746.62 330.75,-762.12 330.75,-762.12 330.75,-768.12 324.75,-774.12 318.75,-774.12"/>
<text text-anchor="middle" x="259" y="-756.83" font-family="Times New Roman,serif" font-size="14.00">AdditionStep: Step 3.1</text>
<text text-anchor="middle" x="259" y="-741.08" font-family="Times New Roman,serif" font-size="14.00">result: None</text>
</g>
<!-- 2371838692096&#45;&gt;2371838692384 -->
<g id="edge12" class="edge">
<title>2371838692096&#45;&gt;2371838692384</title>
<path fill="none" stroke="black" d="M259,-821.57C259,-811.26 259,-797.86 259,-785.82"/>
<polygon fill="black" stroke="black" points="262.5,-785.91 259,-775.91 255.5,-785.91 262.5,-785.91"/>
</g>
<!-- 2371838692672 -->
<g id="node15" class="node">
<title>2371838692672</title>
<path fill="none" stroke="black" d="M483.25,-774.12C483.25,-774.12 366.75,-774.12 366.75,-774.12 360.75,-774.12 354.75,-768.12 354.75,-762.12 354.75,-762.12 354.75,-746.62 354.75,-746.62 354.75,-740.62 360.75,-734.62 366.75,-734.62 366.75,-734.62 483.25,-734.62 483.25,-734.62 489.25,-734.62 495.25,-740.62 495.25,-746.62 495.25,-746.62 495.25,-762.12 495.25,-762.12 495.25,-768.12 489.25,-774.12 483.25,-774.12"/>
<text text-anchor="middle" x="425" y="-756.83" font-family="Times New Roman,serif" font-size="14.00">MutliplyStep: Step 4.1</text>
<text text-anchor="middle" x="425" y="-741.08" font-family="Times New Roman,serif" font-size="14.00">result: None</text>
</g>
<!-- 2371838692096&#45;&gt;2371838692672 -->
<g id="edge16" class="edge">
<title>2371838692096&#45;&gt;2371838692672</title>
<path fill="none" stroke="black" d="M307.62,-821.47C319.38,-816.8 331.79,-811.48 343,-805.88 357.93,-798.42 373.67,-789.11 387.33,-780.51"/>
<polygon fill="black" stroke="black" points="389.05,-783.57 395.6,-775.24 385.29,-777.67 389.05,-783.57"/>
</g>
<!-- 2371838692912 -->
<g id="node14" class="node">
<title>2371838692912</title>
<path fill="none" stroke="black" d="M318.75,-686.88C318.75,-686.88 199.25,-686.88 199.25,-686.88 193.25,-686.88 187.25,-680.88 187.25,-674.88 187.25,-674.88 187.25,-659.38 187.25,-659.38 187.25,-653.38 193.25,-647.38 199.25,-647.38 199.25,-647.38 318.75,-647.38 318.75,-647.38 324.75,-647.38 330.75,-653.38 330.75,-659.38 330.75,-659.38 330.75,-674.88 330.75,-674.88 330.75,-680.88 324.75,-686.88 318.75,-686.88"/>
<text text-anchor="middle" x="259" y="-669.58" font-family="Times New Roman,serif" font-size="14.00">AdditionStep: Step 5.1</text>
<text text-anchor="middle" x="259" y="-653.83" font-family="Times New Roman,serif" font-size="14.00">result: None</text>
</g>
<!-- 2371838692384&#45;&gt;2371838692912 -->
<g id="edge14" class="edge">
<title>2371838692384&#45;&gt;2371838692912</title>
<path fill="none" stroke="black" d="M259,-734.46C259,-723.93 259,-710.59 259,-698.63"/>
<polygon fill="black" stroke="black" points="262.5,-698.8 259,-688.8 255.5,-698.8 262.5,-698.8"/>
</g>
<!-- 2371838692912&#45;&gt;2371838692960 -->
<g id="edge13" class="edge">
<title>2371838692912&#45;&gt;2371838692960</title>
<path fill="none" stroke="black" d="M258.53,-647.25C258.29,-637.7 257.99,-625.89 257.72,-615.24"/>
<polygon fill="black" stroke="black" points="261.22,-615.3 257.47,-605.39 254.23,-615.47 261.22,-615.3"/>
</g>
<!-- 2371838692672&#45;&gt;2371838692912 -->
<g id="edge15" class="edge">
<title>2371838692672&#45;&gt;2371838692912</title>
<path fill="none" stroke="black" d="M387.75,-734.24C363.7,-721.89 332.19,-705.71 306.37,-692.45"/>
<polygon fill="black" stroke="black" points="308.26,-689.49 297.76,-688.03 305.06,-695.71 308.26,-689.49"/>
</g>
</g>
</svg>
