<?xml version="1.0" encoding="UTF-8" standalone="no"?>
<!DOCTYPE svg PUBLIC "-//W3C//DTD SVG 1.1//EN"
 "http://www.w3.org/Graphics/SVG/1.1/DTD/svg11.dtd">
<!-- Generated by graphviz version 10.0.1 (20240210.2158)
 -->
<!-- Title: Example Pipeline_preview Pages: 1 -->
<svg width="495pt" height="867pt"
 viewBox="0.00 0.00 495.00 866.88" xmlns="http://www.w3.org/2000/svg" xmlns:xlink="http://www.w3.org/1999/xlink">
<g id="graph0" class="graph" transform="scale(1 1) rotate(0) translate(4 862.88)">
<title>Example Pipeline_preview</title>
<polygon fill="white" stroke="none" points="-4,4 -4,-862.88 491,-862.88 491,4 -4,4"/>
<g id="clust1" class="cluster">
<title>cluster_2307397160016</title>
<polygon fill="none" stroke="grey" points="93,-677.12 93,-850.88 269,-850.88 269,-677.12 93,-677.12"/>
<text text-anchor="middle" x="181" y="-833.58" font-family="Times New Roman,serif" font-size="14.00">Example Pipeline</text>
</g>
<g id="clust2" class="cluster">
<title>cluster_2307404327072</title>
<polygon fill="none" stroke="grey" points="15,-337.25 15,-669.12 171,-669.12 171,-337.25 15,-337.25"/>
<text text-anchor="middle" x="93" y="-651.83" font-family="Times New Roman,serif" font-size="14.00">Process node 1</text>
</g>
<g id="clust3" class="cluster">
<title>cluster_2307404327696</title>
<polygon fill="none" stroke="grey" points="29,-178 29,-329.25 191,-329.25 191,-178 29,-178"/>
<text text-anchor="middle" x="110" y="-311.95" font-family="Times New Roman,serif" font-size="14.00">Final process node</text>
</g>
<g id="clust4" class="cluster">
<title>cluster_2307404326880</title>
<polygon fill="none" stroke="grey" points="8,-8 8,-158 212,-158 212,-8 8,-8"/>
</g>
<g id="clust5" class="cluster">
<title>cluster_2307404327312</title>
<polygon fill="none" stroke="grey" points="179,-591.62 179,-667.38 331,-667.38 331,-591.62 179,-591.62"/>
<text text-anchor="middle" x="255" y="-650.08" font-family="Times New Roman,serif" font-size="14.00">Process node 2</text>
</g>
<g id="clust6" class="cluster">
<title>cluster_2307404327408</title>
<polygon fill="none" stroke="grey" points="179,-504.38 179,-583.62 315,-583.62 315,-504.38 179,-504.38"/>
<text text-anchor="middle" x="247" y="-566.33" font-family="Times New Roman,serif" font-size="14.00">Process node 3</text>
</g>
<g id="clust7" class="cluster">
<title>cluster_2307404327600</title>
<polygon fill="none" stroke="grey" points="179,-417.12 179,-496.38 315,-496.38 315,-417.12 179,-417.12"/>
<text text-anchor="middle" x="247" y="-479.07" font-family="Times New Roman,serif" font-size="14.00">Process node </text>
</g>
<g id="clust8" class="cluster">
<title>cluster_2307404327504</title>
<polygon fill="none" stroke="grey" points="323,-504.38 323,-583.62 479,-583.62 479,-504.38 323,-504.38"/>
<text text-anchor="middle" x="401" y="-566.33" font-family="Times New Roman,serif" font-size="14.00">Process node 4</text>
</g>
<!-- 2307404326640 -->
<g id="node1" class="node">
<title>2307404326640</title>
<text text-anchor="middle" x="181" y="-801.83" font-family="Times New Roman,serif" font-size="14.00">ExampleContext:</text>
<text text-anchor="middle" x="181" y="-786.08" font-family="Times New Roman,serif" font-size="14.00"> &#45; input_x: float = 1.5</text>
<text text-anchor="middle" x="181" y="-770.33" font-family="Times New Roman,serif" font-size="14.00"> &#45; input_y: int = 8</text>
<text text-anchor="middle" x="181" y="-754.58" font-family="Times New Roman,serif" font-size="14.00"> &#45; result_step1: float = 0.0</text>
<text text-anchor="middle" x="181" y="-738.83" font-family="Times New Roman,serif" font-size="14.00"> &#45; result_step3: float = 0.0</text>
<text text-anchor="middle" x="181" y="-723.08" font-family="Times New Roman,serif" font-size="14.00"> &#45; result_step4: float = 0.0</text>
<text text-anchor="middle" x="181" y="-707.33" font-family="Times New Roman,serif" font-size="14.00"> &#45; result_step5: float = 0.0</text>
<text text-anchor="middle" x="181" y="-691.58" font-family="Times New Roman,serif" font-size="14.00"> &#45; result_step6: float = 0.0</text>
</g>
<!-- 2307404327120 -->
<g id="node2" class="node">
<title>2307404327120</title>
<path fill="none" stroke="darkgreen" d="M147.75,-637.38C147.75,-637.38 52.25,-637.38 52.25,-637.38 46.25,-637.38 40.25,-631.38 40.25,-625.38 40.25,-625.38 40.25,-609.88 40.25,-609.88 40.25,-603.88 46.25,-597.88 52.25,-597.88 52.25,-597.88 147.75,-597.88 147.75,-597.88 153.75,-597.88 159.75,-603.88 159.75,-609.88 159.75,-609.88 159.75,-625.38 159.75,-625.38 159.75,-631.38 153.75,-637.38 147.75,-637.38"/>
<text text-anchor="middle" x="100" y="-620.08" font-family="Times New Roman,serif" font-size="14.00">AddStep: Step 1.1</text>
<text text-anchor="middle" x="100" y="-604.33" font-family="Times New Roman,serif" font-size="14.00">result: 9.5</text>
</g>
<!-- 2307404326640&#45;&gt;2307404327120 -->
<g id="edge4" class="edge">
<title>2307404326640&#45;&gt;2307404327120</title>
<path fill="none" stroke="black" d="M119.45,-677.12C118.54,-675.12 117.63,-673.12 116.72,-671.12"/>
<polygon fill="black" stroke="black" points="123.76,-678.16 116.44,-670.5 117.38,-681.05 123.76,-678.16"/>
</g>
<!-- 2307404327360 -->
<g id="node10" class="node">
<title>2307404327360</title>
<path fill="none" stroke="grey" d="M311.38,-635.62C311.38,-635.62 198.62,-635.62 198.62,-635.62 192.62,-635.62 186.62,-629.62 186.62,-623.62 186.62,-623.62 186.62,-611.62 186.62,-611.62 186.62,-605.62 192.62,-599.62 198.62,-599.62 198.62,-599.62 311.38,-599.62 311.38,-599.62 317.38,-599.62 323.38,-605.62 323.38,-611.62 323.38,-611.62 323.38,-623.62 323.38,-623.62 323.38,-629.62 317.38,-635.62 311.38,-635.62"/>
<text text-anchor="middle" x="255" y="-612.2" font-family="Times New Roman,serif" font-size="14.00">SkipStep: Skip step 2</text>
</g>
<!-- 2307404326640&#45;&gt;2307404327360 -->
<g id="edge9" class="edge">
<title>2307404326640&#45;&gt;2307404327360</title>
<path fill="none" stroke="black" d="M230.02,-677.12C231.13,-674.69 232.24,-672.25 233.35,-669.81"/>
<polygon fill="black" stroke="black" points="232.88,-679.3 233.83,-668.75 226.5,-676.4 232.88,-679.3"/>
</g>
<!-- 2307404327168 -->
<g id="node3" class="node">
<title>2307404327168</title>
<path fill="none" stroke="darkgreen" d="M141.62,-550.12C141.62,-550.12 48.38,-550.12 48.38,-550.12 42.38,-550.12 36.38,-544.12 36.38,-538.12 36.38,-538.12 36.38,-526.12 36.38,-526.12 36.38,-520.12 42.38,-514.12 48.38,-514.12 48.38,-514.12 141.62,-514.12 141.62,-514.12 147.62,-514.12 153.62,-520.12 153.62,-526.12 153.62,-526.12 153.62,-538.12 153.62,-538.12 153.62,-544.12 147.62,-550.12 141.62,-550.12"/>
<text text-anchor="middle" x="95" y="-526.7" font-family="Times New Roman,serif" font-size="14.00">LogStep: Step 1.2</text>
</g>
<!-- 2307404327120&#45;&gt;2307404327168 -->
<g id="edge1" class="edge">
<title>2307404327120&#45;&gt;2307404327168</title>
<path fill="none" stroke="black" d="M91.17,-597.6C87.62,-587.3 87.48,-578.88 90.11,-561.15"/>
<polygon fill="black" stroke="black" points="93.49,-562.19 91.61,-551.76 86.58,-561.09 93.49,-562.19"/>
</g>
<!-- 2307404327216 -->
<!-- Square previous result -->
<g id="node4" class="node">
<title>2307404327216</title>
<path fill="none" stroke="darkgreen" d="M151.25,-472.5C151.25,-472.5 34.75,-472.5 34.75,-472.5 28.75,-472.5 22.75,-466.5 22.75,-460.5 22.75,-460.5 22.75,-429.25 22.75,-429.25 22.75,-423.25 28.75,-417.25 34.75,-417.25 34.75,-417.25 151.25,-417.25 151.25,-417.25 157.25,-417.25 163.25,-423.25 163.25,-429.25 163.25,-429.25 163.25,-460.5 163.25,-460.5 163.25,-466.5 157.25,-472.5 151.25,-472.5"/>
<text text-anchor="middle" x="93" y="-455.2" font-family="Times New Roman,serif" font-size="14.00">MutliplyStep: Step 1.3</text>
<text text-anchor="middle" x="93" y="-439.45" font-family="Times New Roman,serif" font-size="14.00">Square previous result</text>
<text text-anchor="middle" x="93" y="-423.7" font-family="Times New Roman,serif" font-size="14.00">result: 90.25</text>
</g>
<!-- 2307404327168&#45;&gt;2307404327216 -->
<g id="edge2" class="edge">
<title>2307404327168&#45;&gt;2307404327216</title>
<path fill="none" stroke="black" d="M86.74,-513.63C82.21,-502.42 80.84,-494.94 82.48,-484.08"/>
<polygon fill="black" stroke="black" points="85.87,-484.94 84.51,-474.44 79.02,-483.5 85.87,-484.94"/>
</g>
<!-- 2307404327264 -->
<g id="node5" class="node">
<title>2307404327264</title>
<path fill="none" stroke="darkgreen" d="M144.62,-381.25C144.62,-381.25 51.38,-381.25 51.38,-381.25 45.38,-381.25 39.38,-375.25 39.38,-369.25 39.38,-369.25 39.38,-357.25 39.38,-357.25 39.38,-351.25 45.38,-345.25 51.38,-345.25 51.38,-345.25 144.62,-345.25 144.62,-345.25 150.62,-345.25 156.62,-351.25 156.62,-357.25 156.62,-357.25 156.62,-369.25 156.62,-369.25 156.62,-375.25 150.62,-381.25 144.62,-381.25"/>
<text text-anchor="middle" x="98" y="-357.82" font-family="Times New Roman,serif" font-size="14.00">LogStep: Step 1.2</text>
</g>
<!-- 2307404327216&#45;&gt;2307404327264 -->
<g id="edge3" class="edge">
<title>2307404327216&#45;&gt;2307404327264</title>
<path fill="none" stroke="black" d="M84.92,-416.93C82.75,-407.14 82.77,-400.39 85.24,-392.15"/>
<polygon fill="black" stroke="black" points="88.46,-393.54 88.76,-382.95 81.92,-391.04 88.46,-393.54"/>
</g>
<!-- 2307404327744 -->
<g id="node6" class="node">
<title>2307404327744</title>
<path fill="none" stroke="darkgreen" d="M168.25,-297.5C168.25,-297.5 51.75,-297.5 51.75,-297.5 45.75,-297.5 39.75,-291.5 39.75,-285.5 39.75,-285.5 39.75,-270 39.75,-270 39.75,-264 45.75,-258 51.75,-258 51.75,-258 168.25,-258 168.25,-258 174.25,-258 180.25,-264 180.25,-270 180.25,-270 180.25,-285.5 180.25,-285.5 180.25,-291.5 174.25,-297.5 168.25,-297.5"/>
<text text-anchor="middle" x="110" y="-280.2" font-family="Times New Roman,serif" font-size="14.00">MutliplyStep: Step 6.1</text>
<text text-anchor="middle" x="110" y="-264.45" font-family="Times New Roman,serif" font-size="14.00">result: 111.625</text>
</g>
<!-- 2307404327264&#45;&gt;2307404327744 -->
<g id="edge7" class="edge">
<title>2307404327264&#45;&gt;2307404327744</title>
<path fill="none" stroke="black" d="M94.89,-337.25C94.59,-335.25 94.28,-333.25 93.98,-331.25"/>
<polygon fill="black" stroke="black" points="98.87,-340.1 93.9,-330.74 91.95,-341.16 98.87,-340.1"/>
</g>
<!-- 2307404327792 -->
<g id="node7" class="node">
<title>2307404327792</title>
<path fill="none" stroke="darkgreen" d="M171.25,-222C171.25,-222 48.75,-222 48.75,-222 42.75,-222 36.75,-216 36.75,-210 36.75,-210 36.75,-198 36.75,-198 36.75,-192 42.75,-186 48.75,-186 48.75,-186 171.25,-186 171.25,-186 177.25,-186 183.25,-192 183.25,-198 183.25,-198 183.25,-210 183.25,-210 183.25,-216 177.25,-222 171.25,-222"/>
<text text-anchor="middle" x="110" y="-198.57" font-family="Times New Roman,serif" font-size="14.00">LogStep: Final logging!</text>
</g>
<!-- 2307404327744&#45;&gt;2307404327792 -->
<g id="edge5" class="edge">
<title>2307404327744&#45;&gt;2307404327792</title>
<path fill="none" stroke="black" d="M106.56,-257.71C104.76,-246.76 103.78,-239.41 103.63,-233.44"/>
<polygon fill="black" stroke="black" points="107.08,-234.13 104.37,-223.89 100.11,-233.59 107.08,-234.13"/>
</g>
<!-- 2307404326832 -->
<g id="node9" class="node">
<title>2307404326832</title>
<text text-anchor="middle" x="110" y="-132.7" font-family="Times New Roman,serif" font-size="14.00">ExampleContext:</text>
<text text-anchor="middle" x="110" y="-116.95" font-family="Times New Roman,serif" font-size="14.00"> &#45; input_x: float = 1.5</text>
<text text-anchor="middle" x="110" y="-101.2" font-family="Times New Roman,serif" font-size="14.00"> &#45; input_y: int = 8</text>
<text text-anchor="middle" x="110" y="-85.45" font-family="Times New Roman,serif" font-size="14.00"> &#45; result_step1: float = 90.25</text>
<text text-anchor="middle" x="110" y="-69.7" font-family="Times New Roman,serif" font-size="14.00"> &#45; result_step3: float = 9.5</text>
<text text-anchor="middle" x="110" y="-53.95" font-family="Times New Roman,serif" font-size="14.00"> &#45; result_step4: float = 2.25</text>
<text text-anchor="middle" x="110" y="-38.2" font-family="Times New Roman,serif" font-size="14.00"> &#45; result_step5: float = 11.75</text>
<text text-anchor="middle" x="110" y="-22.45" font-family="Times New Roman,serif" font-size="14.00"> &#45; result_step6: float = 111.625</text>
</g>
<!-- 2307404327792&#45;&gt;2307404326832 -->
<g id="edge8" class="edge">
<title>2307404327792&#45;&gt;2307404326832</title>
<path fill="none" stroke="black" d="M106.8,-178C106.05,-171.8 105.39,-166.23 104.83,-161.18"/>
<polygon fill="black" stroke="black" points="110.94,-167.58 104.18,-159.42 104.37,-170.01 110.94,-167.58"/>
</g>
<!-- 2307404327648 -->
<g id="node8" class="node">
<title>2307404327648</title>
<path fill="none" stroke="darkgreen" d="M294.75,-464.62C294.75,-464.62 199.25,-464.62 199.25,-464.62 193.25,-464.62 187.25,-458.62 187.25,-452.62 187.25,-452.62 187.25,-437.12 187.25,-437.12 187.25,-431.12 193.25,-425.12 199.25,-425.12 199.25,-425.12 294.75,-425.12 294.75,-425.12 300.75,-425.12 306.75,-431.12 306.75,-437.12 306.75,-437.12 306.75,-452.62 306.75,-452.62 306.75,-458.62 300.75,-464.62 294.75,-464.62"/>
<text text-anchor="middle" x="247" y="-447.32" font-family="Times New Roman,serif" font-size="14.00">AddStep: Step 5.1</text>
<text text-anchor="middle" x="247" y="-431.57" font-family="Times New Roman,serif" font-size="14.00">result: 11.75</text>
</g>
<!-- 2307404327648&#45;&gt;2307404327744 -->
<g id="edge6" class="edge">
<title>2307404327648&#45;&gt;2307404327744</title>
<path fill="none" stroke="black" d="M223.24,-417.13C189.54,-377.75 170.38,-355.24 156.28,-338.05"/>
<polygon fill="black" stroke="black" points="159.1,-335.97 150.08,-330.42 153.67,-340.39 159.1,-335.97"/>
</g>
<!-- 2307404327456 -->
<g id="node11" class="node">
<title>2307404327456</title>
<path fill="none" stroke="darkgreen" d="M294.75,-551.88C294.75,-551.88 199.25,-551.88 199.25,-551.88 193.25,-551.88 187.25,-545.88 187.25,-539.88 187.25,-539.88 187.25,-524.38 187.25,-524.38 187.25,-518.38 193.25,-512.38 199.25,-512.38 199.25,-512.38 294.75,-512.38 294.75,-512.38 300.75,-512.38 306.75,-518.38 306.75,-524.38 306.75,-524.38 306.75,-539.88 306.75,-539.88 306.75,-545.88 300.75,-551.88 294.75,-551.88"/>
<text text-anchor="middle" x="247" y="-534.58" font-family="Times New Roman,serif" font-size="14.00">AddStep: Step 3.1</text>
<text text-anchor="middle" x="247" y="-518.83" font-family="Times New Roman,serif" font-size="14.00">result: 9.5</text>
</g>
<!-- 2307404327360&#45;&gt;2307404327456 -->
<g id="edge10" class="edge">
<title>2307404327360&#45;&gt;2307404327456</title>
<path fill="none" stroke="black" d="M252.36,-591.62C252.09,-589.62 251.82,-587.62 251.56,-585.62"/>
<polygon fill="black" stroke="black" points="256.29,-594.57 251.49,-585.12 249.35,-595.5 256.29,-594.57"/>
</g>
<!-- 2307404327552 -->
<g id="node12" class="node">
<title>2307404327552</title>
<path fill="none" stroke="darkgreen" d="M459.25,-551.88C459.25,-551.88 342.75,-551.88 342.75,-551.88 336.75,-551.88 330.75,-545.88 330.75,-539.88 330.75,-539.88 330.75,-524.38 330.75,-524.38 330.75,-518.38 336.75,-512.38 342.75,-512.38 342.75,-512.38 459.25,-512.38 459.25,-512.38 465.25,-512.38 471.25,-518.38 471.25,-524.38 471.25,-524.38 471.25,-539.88 471.25,-539.88 471.25,-545.88 465.25,-551.88 459.25,-551.88"/>
<text text-anchor="middle" x="401" y="-534.58" font-family="Times New Roman,serif" font-size="14.00">MutliplyStep: Step 4.1</text>
<text text-anchor="middle" x="401" y="-518.83" font-family="Times New Roman,serif" font-size="14.00">result: 2.25</text>
</g>
<!-- 2307404327360&#45;&gt;2307404327552 -->
<g id="edge13" class="edge">
<title>2307404327360&#45;&gt;2307404327552</title>
<path fill="none" stroke="black" d="M331,-601.68C337.75,-598.84 343.69,-595.38 349.48,-590.91"/>
<polygon fill="black" stroke="black" points="351.5,-593.8 356.78,-584.61 346.92,-588.5 351.5,-593.8"/>
</g>
<!-- 2307404327456&#45;&gt;2307404327648 -->
<g id="edge11" class="edge">
<title>2307404327456&#45;&gt;2307404327648</title>
<path fill="none" stroke="black" d="M247.74,-504.38C247.75,-502.37 247.75,-500.37 247.75,-498.37"/>
<polygon fill="black" stroke="black" points="251.24,-507.89 247.75,-497.89 244.24,-507.88 251.24,-507.89"/>
</g>
<!-- 2307404327552&#45;&gt;2307404327648 -->
<g id="edge12" class="edge">
<title>2307404327552&#45;&gt;2307404327648</title>
<path fill="none" stroke="black" d="M345.71,-504.38C339.64,-500.94 332.86,-496.99 324.78,-492.17"/>
<polygon fill="black" stroke="black" points="326.67,-489.23 316.3,-487.09 323.08,-495.23 326.67,-489.23"/>
</g>
</g>
</svg>
