<?xml version="1.0" encoding="UTF-8" standalone="no"?>
<!DOCTYPE svg PUBLIC "-//W3C//DTD SVG 1.1//EN"
 "http://www.w3.org/Graphics/SVG/1.1/DTD/svg11.dtd">
<!-- Generated by graphviz version 10.0.1 (20240210.2158)
 -->
<!-- Title: Example Pipeline_preview Pages: 1 -->
<svg width="518pt" height="1002pt"
 viewBox="0.00 0.00 518.00 1001.88" xmlns="http://www.w3.org/2000/svg" xmlns:xlink="http://www.w3.org/1999/xlink">
<g id="graph0" class="graph" transform="scale(1 1) rotate(0) translate(4 997.88)">
<title>Example Pipeline_preview</title>
<polygon fill="white" stroke="none" points="-4,4 -4,-997.88 514,-997.88 514,4 -4,4"/>
<g id="clust1" class="cluster">
<title>cluster_2271848206208</title>
<polygon fill="none" stroke="grey" points="86,-780.62 86,-985.88 262,-985.88 262,-780.62 86,-780.62"/>
<text text-anchor="middle" x="174" y="-968.58" font-family="Times New Roman,serif" font-size="14.00">Example Pipeline</text>
</g>
<g id="clust2" class="cluster">
<title>cluster_2271881386784</title>
<polygon fill="none" stroke="grey" points="10,-440.75 10,-772.62 170,-772.62 170,-440.75 10,-440.75"/>
<text text-anchor="middle" x="90" y="-755.33" font-family="Times New Roman,serif" font-size="14.00">Process node 1</text>
</g>
<g id="clust3" class="cluster">
<title>cluster_2271881457456</title>
<polygon fill="none" stroke="grey" points="18,-209.5 18,-432.75 174,-432.75 174,-209.5 18,-209.5"/>
<text text-anchor="middle" x="96" y="-415.45" font-family="Times New Roman,serif" font-size="14.00">Process node 6</text>
</g>
<g id="clust4" class="cluster">
<title>cluster_2271855165360</title>
<polygon fill="none" stroke="grey" points="8,-8 8,-189.5 184,-189.5 184,-8 8,-8"/>
</g>
<g id="clust5" class="cluster">
<title>cluster_2271881452656</title>
<polygon fill="none" stroke="grey" points="182,-695.12 182,-770.88 334,-770.88 334,-695.12 182,-695.12"/>
<text text-anchor="middle" x="258" y="-753.58" font-family="Times New Roman,serif" font-size="14.00">Process node 2</text>
</g>
<g id="clust6" class="cluster">
<title>cluster_2271881456736</title>
<polygon fill="none" stroke="grey" points="178,-607.88 178,-687.12 338,-687.12 338,-607.88 178,-607.88"/>
<text text-anchor="middle" x="258" y="-669.83" font-family="Times New Roman,serif" font-size="14.00">Process node 3</text>
</g>
<g id="clust7" class="cluster">
<title>cluster_2271881457264</title>
<polygon fill="none" stroke="grey" points="178,-520.62 178,-599.88 338,-599.88 338,-520.62 178,-520.62"/>
<text text-anchor="middle" x="258" y="-582.58" font-family="Times New Roman,serif" font-size="14.00">Process node 5</text>
</g>
<g id="clust8" class="cluster">
<title>cluster_2271881456976</title>
<polygon fill="none" stroke="grey" points="346,-607.88 346,-687.12 502,-687.12 502,-607.88 346,-607.88"/>
<text text-anchor="middle" x="424" y="-669.83" font-family="Times New Roman,serif" font-size="14.00">Process node 4</text>
</g>
<!-- 2271855159552 -->
<g id="node1" class="node">
<title>2271855159552</title>
<text text-anchor="middle" x="174" y="-936.83" font-family="Times New Roman,serif" font-size="14.00">ExampleContext:</text>
<text text-anchor="middle" x="174" y="-921.08" font-family="Times New Roman,serif" font-size="14.00"> &#45; thread_count: int = 4</text>
<text text-anchor="middle" x="174" y="-905.33" font-family="Times New Roman,serif" font-size="14.00"> &#45; input_x: float = 1.5</text>
<text text-anchor="middle" x="174" y="-889.58" font-family="Times New Roman,serif" font-size="14.00"> &#45; input_y: int = 8</text>
<text text-anchor="middle" x="174" y="-873.83" font-family="Times New Roman,serif" font-size="14.00"> &#45; result_step1: float = 0.0</text>
<text text-anchor="middle" x="174" y="-858.08" font-family="Times New Roman,serif" font-size="14.00"> &#45; result_step3: float = 0.0</text>
<text text-anchor="middle" x="174" y="-842.33" font-family="Times New Roman,serif" font-size="14.00"> &#45; result_step4: float = 0.0</text>
<text text-anchor="middle" x="174" y="-826.58" font-family="Times New Roman,serif" font-size="14.00"> &#45; result_step5: float = 0.0</text>
<text text-anchor="middle" x="174" y="-810.83" font-family="Times New Roman,serif" font-size="14.00"> &#45; result_step6: float = 0.0</text>
<text text-anchor="middle" x="174" y="-795.08" font-family="Times New Roman,serif" font-size="14.00"> &#45; issou: int = 0</text>
</g>
<!-- 2271881387696 -->
<g id="node2" class="node">
<title>2271881387696</title>
<path fill="none" stroke="darkgreen" d="M149.75,-740.88C149.75,-740.88 30.25,-740.88 30.25,-740.88 24.25,-740.88 18.25,-734.88 18.25,-728.88 18.25,-728.88 18.25,-713.38 18.25,-713.38 18.25,-707.38 24.25,-701.38 30.25,-701.38 30.25,-701.38 149.75,-701.38 149.75,-701.38 155.75,-701.38 161.75,-707.38 161.75,-713.38 161.75,-713.38 161.75,-728.88 161.75,-728.88 161.75,-734.88 155.75,-740.88 149.75,-740.88"/>
<text text-anchor="middle" x="90" y="-723.58" font-family="Times New Roman,serif" font-size="14.00">AdditionStep: Step 1.1</text>
<text text-anchor="middle" x="90" y="-707.83" font-family="Times New Roman,serif" font-size="14.00">result: 9.5</text>
</g>
<!-- 2271855159552&#45;&gt;2271881387696 -->
<g id="edge4" class="edge">
<title>2271855159552&#45;&gt;2271881387696</title>
<path fill="none" stroke="black" d="M127.82,-788.88C120.14,-775.31 112.64,-762.08 106.38,-751.03"/>
<polygon fill="black" stroke="black" points="109.5,-749.44 101.53,-742.47 103.41,-752.89 109.5,-749.44"/>
</g>
<!-- 2271881456928 -->
<g id="node11" class="node">
<title>2271881456928</title>
<path fill="none" stroke="grey" d="M314.38,-739.12C314.38,-739.12 201.62,-739.12 201.62,-739.12 195.62,-739.12 189.62,-733.12 189.62,-727.12 189.62,-727.12 189.62,-715.12 189.62,-715.12 189.62,-709.12 195.62,-703.12 201.62,-703.12 201.62,-703.12 314.38,-703.12 314.38,-703.12 320.38,-703.12 326.38,-709.12 326.38,-715.12 326.38,-715.12 326.38,-727.12 326.38,-727.12 326.38,-733.12 320.38,-739.12 314.38,-739.12"/>
<text text-anchor="middle" x="258" y="-715.7" font-family="Times New Roman,serif" font-size="14.00">SkipStep: Skip step 2</text>
</g>
<!-- 2271855159552&#45;&gt;2271881456928 -->
<g id="edge10" class="edge">
<title>2271855159552&#45;&gt;2271881456928</title>
<path fill="none" stroke="black" d="M220.18,-788.88C228.29,-774.56 236.2,-760.61 242.66,-749.19"/>
<polygon fill="black" stroke="black" points="245.53,-751.23 247.42,-740.81 239.44,-747.78 245.53,-751.23"/>
</g>
<!-- 2271881389040 -->
<g id="node3" class="node">
<title>2271881389040</title>
<path fill="none" stroke="darkgreen" d="M136.62,-653.62C136.62,-653.62 43.38,-653.62 43.38,-653.62 37.38,-653.62 31.38,-647.62 31.38,-641.62 31.38,-641.62 31.38,-629.62 31.38,-629.62 31.38,-623.62 37.38,-617.62 43.38,-617.62 43.38,-617.62 136.62,-617.62 136.62,-617.62 142.62,-617.62 148.62,-623.62 148.62,-629.62 148.62,-629.62 148.62,-641.62 148.62,-641.62 148.62,-647.62 142.62,-653.62 136.62,-653.62"/>
<text text-anchor="middle" x="90" y="-630.2" font-family="Times New Roman,serif" font-size="14.00">LogStep: Step 1.2</text>
</g>
<!-- 2271881387696&#45;&gt;2271881389040 -->
<g id="edge1" class="edge">
<title>2271881387696&#45;&gt;2271881389040</title>
<path fill="none" stroke="black" d="M90,-701.18C90,-690.57 90,-677.12 90,-665.25"/>
<polygon fill="black" stroke="black" points="93.5,-665.59 90,-655.59 86.5,-665.59 93.5,-665.59"/>
</g>
<!-- 2271881452848 -->
<!-- Square previous result -->
<g id="node4" class="node">
<title>2271881452848</title>
<path fill="none" stroke="darkgreen" d="M149.25,-576C149.25,-576 32.75,-576 32.75,-576 26.75,-576 20.75,-570 20.75,-564 20.75,-564 20.75,-532.75 20.75,-532.75 20.75,-526.75 26.75,-520.75 32.75,-520.75 32.75,-520.75 149.25,-520.75 149.25,-520.75 155.25,-520.75 161.25,-526.75 161.25,-532.75 161.25,-532.75 161.25,-564 161.25,-564 161.25,-570 155.25,-576 149.25,-576"/>
<text text-anchor="middle" x="91" y="-558.7" font-family="Times New Roman,serif" font-size="14.00">MutliplyStep: Step 1.3</text>
<text text-anchor="middle" x="91" y="-542.95" font-family="Times New Roman,serif" font-size="14.00">Square previous result</text>
<text text-anchor="middle" x="91" y="-527.2" font-family="Times New Roman,serif" font-size="14.00">result: 90.25</text>
</g>
<!-- 2271881389040&#45;&gt;2271881452848 -->
<g id="edge2" class="edge">
<title>2271881389040&#45;&gt;2271881452848</title>
<path fill="none" stroke="black" d="M90.2,-617.37C90.3,-608.82 90.43,-598.12 90.55,-587.76"/>
<polygon fill="black" stroke="black" points="94.05,-587.89 90.67,-577.85 87.05,-587.81 94.05,-587.89"/>
</g>
<!-- 2271881452608 -->
<g id="node5" class="node">
<title>2271881452608</title>
<path fill="none" stroke="darkgreen" d="M139.62,-484.75C139.62,-484.75 46.38,-484.75 46.38,-484.75 40.38,-484.75 34.38,-478.75 34.38,-472.75 34.38,-472.75 34.38,-460.75 34.38,-460.75 34.38,-454.75 40.38,-448.75 46.38,-448.75 46.38,-448.75 139.62,-448.75 139.62,-448.75 145.62,-448.75 151.62,-454.75 151.62,-460.75 151.62,-460.75 151.62,-472.75 151.62,-472.75 151.62,-478.75 145.62,-484.75 139.62,-484.75"/>
<text text-anchor="middle" x="93" y="-461.32" font-family="Times New Roman,serif" font-size="14.00">LogStep: Step 1.2</text>
</g>
<!-- 2271881452848&#45;&gt;2271881452608 -->
<g id="edge3" class="edge">
<title>2271881452848&#45;&gt;2271881452608</title>
<path fill="none" stroke="black" d="M91.68,-520.42C91.87,-512.63 92.09,-504.1 92.28,-496.22"/>
<polygon fill="black" stroke="black" points="95.78,-496.54 92.53,-486.45 88.78,-496.36 95.78,-496.54"/>
</g>
<!-- 2271881457600 -->
<g id="node6" class="node">
<title>2271881457600</title>
<path fill="none" stroke="darkgreen" d="M154.25,-401C154.25,-401 37.75,-401 37.75,-401 31.75,-401 25.75,-395 25.75,-389 25.75,-389 25.75,-373.5 25.75,-373.5 25.75,-367.5 31.75,-361.5 37.75,-361.5 37.75,-361.5 154.25,-361.5 154.25,-361.5 160.25,-361.5 166.25,-367.5 166.25,-373.5 166.25,-373.5 166.25,-389 166.25,-389 166.25,-395 160.25,-401 154.25,-401"/>
<text text-anchor="middle" x="96" y="-383.7" font-family="Times New Roman,serif" font-size="14.00">MutliplyStep: Step 6.1</text>
<text text-anchor="middle" x="96" y="-367.95" font-family="Times New Roman,serif" font-size="14.00">result: 111.625</text>
</g>
<!-- 2271881452608&#45;&gt;2271881457600 -->
<g id="edge8" class="edge">
<title>2271881452608&#45;&gt;2271881457600</title>
<path fill="none" stroke="black" d="M93.62,-448.45C93.99,-438.13 94.47,-424.74 94.91,-412.7"/>
<polygon fill="black" stroke="black" points="98.4,-412.91 95.26,-402.79 91.41,-412.66 98.4,-412.91"/>
</g>
<!-- 2271881457648 -->
<g id="node7" class="node">
<title>2271881457648</title>
<path fill="none" stroke="darkgreen" d="M119.38,-325.5C119.38,-325.5 72.62,-325.5 72.62,-325.5 66.62,-325.5 60.62,-319.5 60.62,-313.5 60.62,-313.5 60.62,-301.5 60.62,-301.5 60.62,-295.5 66.62,-289.5 72.62,-289.5 72.62,-289.5 119.38,-289.5 119.38,-289.5 125.38,-289.5 131.38,-295.5 131.38,-301.5 131.38,-301.5 131.38,-313.5 131.38,-313.5 131.38,-319.5 125.38,-325.5 119.38,-325.5"/>
<text text-anchor="middle" x="96" y="-302.07" font-family="Times New Roman,serif" font-size="14.00">LogStep: </text>
</g>
<!-- 2271881457600&#45;&gt;2271881457648 -->
<g id="edge5" class="edge">
<title>2271881457600&#45;&gt;2271881457648</title>
<path fill="none" stroke="black" d="M96,-361.02C96,-353.75 96,-345.29 96,-337.33"/>
<polygon fill="black" stroke="black" points="99.5,-337.33 96,-327.33 92.5,-337.33 99.5,-337.33"/>
</g>
<!-- 2271881386400 -->
<g id="node8" class="node">
<title>2271881386400</title>
<path fill="none" stroke="red" d="M150.5,-253.5C150.5,-253.5 41.5,-253.5 41.5,-253.5 35.5,-253.5 29.5,-247.5 29.5,-241.5 29.5,-241.5 29.5,-229.5 29.5,-229.5 29.5,-223.5 35.5,-217.5 41.5,-217.5 41.5,-217.5 150.5,-217.5 150.5,-217.5 156.5,-217.5 162.5,-223.5 162.5,-229.5 162.5,-229.5 162.5,-241.5 162.5,-241.5 162.5,-247.5 156.5,-253.5 150.5,-253.5"/>
<text text-anchor="middle" x="96" y="-230.07" font-family="Times New Roman,serif" font-size="14.00">FuncStep: Base Step</text>
</g>
<!-- 2271881457648&#45;&gt;2271881386400 -->
<g id="edge6" class="edge">
<title>2271881457648&#45;&gt;2271881386400</title>
<path fill="none" stroke="black" d="M96,-289.2C96,-281.91 96,-273.23 96,-265.04"/>
<polygon fill="black" stroke="black" points="99.5,-265.12 96,-255.12 92.5,-265.12 99.5,-265.12"/>
</g>
<!-- 2271855159504 -->
<g id="node10" class="node">
<title>2271855159504</title>
<text text-anchor="middle" x="96" y="-164.2" font-family="Times New Roman,serif" font-size="14.00">ExampleContext:</text>
<text text-anchor="middle" x="96" y="-148.45" font-family="Times New Roman,serif" font-size="14.00"> &#45; thread_count: int = 4</text>
<text text-anchor="middle" x="96" y="-132.7" font-family="Times New Roman,serif" font-size="14.00"> &#45; input_x: float = 0.0</text>
<text text-anchor="middle" x="96" y="-116.95" font-family="Times New Roman,serif" font-size="14.00"> &#45; input_y: float = 0.0</text>
<text text-anchor="middle" x="96" y="-101.2" font-family="Times New Roman,serif" font-size="14.00"> &#45; result_step1: float = 0.0</text>
<text text-anchor="middle" x="96" y="-85.45" font-family="Times New Roman,serif" font-size="14.00"> &#45; result_step3: float = 0.0</text>
<text text-anchor="middle" x="96" y="-69.7" font-family="Times New Roman,serif" font-size="14.00"> &#45; result_step4: float = 0.0</text>
<text text-anchor="middle" x="96" y="-53.95" font-family="Times New Roman,serif" font-size="14.00"> &#45; result_step5: float = 0.0</text>
<text text-anchor="middle" x="96" y="-38.2" font-family="Times New Roman,serif" font-size="14.00"> &#45; result_step6: float = 0.0</text>
<text text-anchor="middle" x="96" y="-22.45" font-family="Times New Roman,serif" font-size="14.00"> &#45; issou: int = 0</text>
</g>
<!-- 2271881386400&#45;&gt;2271855159504 -->
<g id="edge9" class="edge">
<title>2271881386400&#45;&gt;2271855159504</title>
<path fill="none" stroke="black" d="M96,-217.16C96,-210.34 96,-201.95 96,-192.82"/>
<polygon fill="black" stroke="black" points="99.5,-192.88 96,-182.88 92.5,-192.88 99.5,-192.88"/>
</g>
<!-- 2271881457408 -->
<g id="node9" class="node">
<title>2271881457408</title>
<path fill="none" stroke="darkgreen" d="M317.75,-568.12C317.75,-568.12 198.25,-568.12 198.25,-568.12 192.25,-568.12 186.25,-562.12 186.25,-556.12 186.25,-556.12 186.25,-540.62 186.25,-540.62 186.25,-534.62 192.25,-528.62 198.25,-528.62 198.25,-528.62 317.75,-528.62 317.75,-528.62 323.75,-528.62 329.75,-534.62 329.75,-540.62 329.75,-540.62 329.75,-556.12 329.75,-556.12 329.75,-562.12 323.75,-568.12 317.75,-568.12"/>
<text text-anchor="middle" x="258" y="-550.83" font-family="Times New Roman,serif" font-size="14.00">AdditionStep: Step 5.1</text>
<text text-anchor="middle" x="258" y="-535.08" font-family="Times New Roman,serif" font-size="14.00">result: 11.75</text>
</g>
<!-- 2271881457408&#45;&gt;2271881457600 -->
<g id="edge7" class="edge">
<title>2271881457408&#45;&gt;2271881457600</title>
<path fill="none" stroke="black" d="M245.36,-528.44C229.97,-506.13 202.49,-468.57 174,-440.75 162.01,-429.04 147.64,-417.65 134.51,-408.07"/>
<polygon fill="black" stroke="black" points="136.63,-405.28 126.45,-402.31 132.56,-410.97 136.63,-405.28"/>
</g>
<!-- 2271881457120 -->
<g id="node12" class="node">
<title>2271881457120</title>
<path fill="none" stroke="darkgreen" d="M317.75,-655.38C317.75,-655.38 198.25,-655.38 198.25,-655.38 192.25,-655.38 186.25,-649.38 186.25,-643.38 186.25,-643.38 186.25,-627.88 186.25,-627.88 186.25,-621.88 192.25,-615.88 198.25,-615.88 198.25,-615.88 317.75,-615.88 317.75,-615.88 323.75,-615.88 329.75,-621.88 329.75,-627.88 329.75,-627.88 329.75,-643.38 329.75,-643.38 329.75,-649.38 323.75,-655.38 317.75,-655.38"/>
<text text-anchor="middle" x="258" y="-638.08" font-family="Times New Roman,serif" font-size="14.00">AdditionStep: Step 3.1</text>
<text text-anchor="middle" x="258" y="-622.33" font-family="Times New Roman,serif" font-size="14.00">result: 9.5</text>
</g>
<!-- 2271881456928&#45;&gt;2271881457120 -->
<g id="edge11" class="edge">
<title>2271881456928&#45;&gt;2271881457120</title>
<path fill="none" stroke="black" d="M258,-702.82C258,-692.51 258,-679.11 258,-667.07"/>
<polygon fill="black" stroke="black" points="261.5,-667.16 258,-657.16 254.5,-667.16 261.5,-667.16"/>
</g>
<!-- 2271881457216 -->
<g id="node13" class="node">
<title>2271881457216</title>
<path fill="none" stroke="darkgreen" d="M482.25,-655.38C482.25,-655.38 365.75,-655.38 365.75,-655.38 359.75,-655.38 353.75,-649.38 353.75,-643.38 353.75,-643.38 353.75,-627.88 353.75,-627.88 353.75,-621.88 359.75,-615.88 365.75,-615.88 365.75,-615.88 482.25,-615.88 482.25,-615.88 488.25,-615.88 494.25,-621.88 494.25,-627.88 494.25,-627.88 494.25,-643.38 494.25,-643.38 494.25,-649.38 488.25,-655.38 482.25,-655.38"/>
<text text-anchor="middle" x="424" y="-638.08" font-family="Times New Roman,serif" font-size="14.00">MutliplyStep: Step 4.1</text>
<text text-anchor="middle" x="424" y="-622.33" font-family="Times New Roman,serif" font-size="14.00">result: 2.25</text>
</g>
<!-- 2271881456928&#45;&gt;2271881457216 -->
<g id="edge14" class="edge">
<title>2271881456928&#45;&gt;2271881457216</title>
<path fill="none" stroke="black" d="M306.62,-702.72C318.38,-698.05 330.79,-692.73 342,-687.12 356.93,-679.67 372.67,-670.36 386.33,-661.76"/>
<polygon fill="black" stroke="black" points="388.05,-664.82 394.6,-656.49 384.29,-658.92 388.05,-664.82"/>
</g>
<!-- 2271881457120&#45;&gt;2271881457408 -->
<g id="edge12" class="edge">
<title>2271881457120&#45;&gt;2271881457408</title>
<path fill="none" stroke="black" d="M258,-615.71C258,-605.18 258,-591.84 258,-579.88"/>
<polygon fill="black" stroke="black" points="261.5,-580.05 258,-570.05 254.5,-580.05 261.5,-580.05"/>
</g>
<!-- 2271881457216&#45;&gt;2271881457408 -->
<g id="edge13" class="edge">
<title>2271881457216&#45;&gt;2271881457408</title>
<path fill="none" stroke="black" d="M386.75,-615.49C362.7,-603.14 331.19,-586.96 305.37,-573.7"/>
<polygon fill="black" stroke="black" points="307.26,-570.74 296.76,-569.28 304.06,-576.96 307.26,-570.74"/>
</g>
</g>
</svg>
